<svg width="18" height="16" viewBox="0 0 18 16" fill="none" xmlns="http://www.w3.org/2000/svg">
<path d="M16.787 10.709L15.021 8.68938C14.8805 8.5509 14.769 8.38648 14.693 8.20551C14.617 8.02455 14.5779 7.83059 14.578 7.63473V5.91674C14.5358 4.50446 13.9543 3.15992 12.9498 2.15194C11.9454 1.14396 10.5919 0.546815 9.16003 0.479887C7.69491 0.42652 6.26745 0.944261 5.18689 1.92095C4.10633 2.89763 3.45968 4.25462 3.38703 5.69792V7.63769C3.38712 7.83355 3.34805 8.02751 3.27203 8.20847C3.19602 8.38944 3.08456 8.55386 2.94403 8.69233L1.21503 10.709C1.1097 10.8136 1.0381 10.9465 1.00925 11.0911C0.980391 11.2357 0.995563 11.3855 1.05286 11.5216C1.11015 11.6577 1.207 11.7741 1.33123 11.8561C1.45546 11.9381 1.60152 11.9821 1.75103 11.9824H16.251C16.4008 11.9826 16.5472 11.9389 16.6718 11.8569C16.7963 11.7749 16.8934 11.6583 16.9506 11.5219C17.0078 11.3855 17.0226 11.2354 16.9931 11.0907C16.9636 10.9459 16.8912 10.8131 16.785 10.709H16.787Z" fill="#3F4765"/>
<path d="M6.078 13.5003C6.20716 14.1582 6.57415 14.7475 7.11081 15.1588C7.64746 15.5701 8.31733 15.7755 8.996 15.7368C9.6748 15.7755 10.3448 15.5702 10.8816 15.1589C11.4184 14.7476 11.7856 14.1583 11.915 13.5003H6.078Z" fill="#3F4765"/>
</svg>
