<svg width="16" height="16" viewBox="0 0 16 16" fill="none" xmlns="http://www.w3.org/2000/svg">
<path fill-rule="evenodd" clip-rule="evenodd" d="M12.5254 15.4107C13.1447 15.4107 13.7501 15.2299 14.2651 14.8912C14.78 14.5526 15.1814 14.0712 15.4184 13.508C15.6554 12.9448 15.7174 12.3251 15.5966 11.7272C15.4758 11.1294 15.1775 10.5802 14.7396 10.1491C14.3017 9.71809 13.7437 9.42454 13.1363 9.30562C12.5289 9.18669 11.8993 9.24773 11.3271 9.48101C10.7549 9.71429 10.2659 10.1093 9.92178 10.6162C9.5777 11.123 9.39405 11.7189 9.39405 12.3285C9.39405 13.146 9.72396 13.9299 10.3112 14.5079C10.8984 15.0859 11.6949 15.4107 12.5254 15.4107ZM12.5254 6.16426C13.1447 6.16426 13.7501 5.98353 14.265 5.6449C14.7799 5.30627 15.1813 4.82497 15.4183 4.26184C15.6553 3.69871 15.7174 3.07905 15.5967 2.4812C15.4759 1.88335 15.1778 1.33417 14.74 0.903085C14.3021 0.472002 13.7443 0.17838 13.1369 0.0593439C12.5296 -0.0596921 11.9 0.00120376 11.3278 0.234332C10.7556 0.46746 10.2665 0.862351 9.92227 1.36908C9.57807 1.8758 9.39425 2.4716 9.39405 3.08115C9.39405 3.89858 9.72396 4.68253 10.3112 5.26054C10.8984 5.83855 11.6949 6.16328 12.5254 6.16328V6.16426ZM3.13135 15.4107C3.75063 15.4107 4.35601 15.2299 4.87093 14.8913C5.38586 14.5527 5.78721 14.0714 6.02425 13.5082C6.26128 12.9451 6.32335 12.3254 6.20261 11.7276C6.08186 11.1297 5.78373 10.5806 5.3459 10.1495C4.90808 9.7184 4.35022 9.42477 3.74286 9.30574C3.1355 9.1867 2.50593 9.2476 1.93373 9.48073C1.36153 9.71385 0.872412 10.1087 0.528214 10.6155C0.184017 11.1222 0.000198043 11.718 0 12.3275C0 13.145 0.329909 13.9289 0.917151 14.5069C1.50439 15.0849 2.30086 15.4097 3.13135 15.4097V15.4107ZM3.13135 6.16426C3.75063 6.16426 4.35601 5.98353 4.87093 5.6449C5.38586 5.30627 5.78721 4.82497 6.02425 4.26184C6.26128 3.69871 6.32335 3.07905 6.20261 2.4812C6.08186 1.88335 5.78373 1.33417 5.3459 0.903085C4.90808 0.472002 4.35022 0.17838 3.74286 0.0593439C3.1355 -0.0596921 2.50593 0.00120376 1.93373 0.234332C1.36153 0.46746 0.872412 0.862351 0.528214 1.36908C0.184017 1.8758 0.000198043 2.4716 0 3.08115C0 3.89858 0.329909 4.68253 0.917151 5.26054C1.50439 5.83855 2.30086 6.16328 3.13135 6.16328V6.16426Z" fill="white"/>
</svg>
