<svg width="14" height="14" viewBox="0 0 14 14" fill="none" xmlns="http://www.w3.org/2000/svg">
<path d="M0.834961 11.8592V10.8676C0.853617 10.5064 0.972105 10.1571 1.17761 9.85739C1.38312 9.55772 1.66783 9.31913 2.00096 9.1674C5.20265 7.89981 8.77728 7.89981 11.979 9.1674C12.3121 9.31913 12.5968 9.55772 12.8023 9.85739C13.0078 10.1571 13.1263 10.5064 13.145 10.8676V11.8592C13.1448 12.125 13.0916 12.3881 12.9882 12.6336C12.8848 12.8791 12.7334 13.102 12.5425 13.2898C12.3517 13.4775 12.1252 13.6264 11.8759 13.7278C11.6267 13.8292 11.3596 13.8812 11.09 13.8808H2.88996C2.62032 13.8812 2.35325 13.8292 2.104 13.7278C1.85476 13.6264 1.62824 13.4775 1.43739 13.2898C1.24654 13.102 1.0951 12.8791 0.991734 12.6336C0.888365 12.3881 0.835092 12.125 0.834961 11.8592ZM6.98996 0.0816652C6.31351 0.0814702 5.65219 0.279006 5.08964 0.64929C4.52709 1.01957 4.08859 1.54597 3.82958 2.16191C3.57057 2.77785 3.5027 3.45566 3.63455 4.10962C3.7664 4.76358 4.09205 5.36432 4.5703 5.83585C5.04856 6.30738 5.65794 6.62853 6.32138 6.75868C6.98483 6.88882 7.67253 6.82213 8.29751 6.56702C8.92249 6.31191 9.45668 5.87985 9.83252 5.32548C10.2084 4.77111 10.409 4.11934 10.409 3.45259C10.409 2.55874 10.0488 1.70148 9.40762 1.06934C8.76646 0.437192 7.89683 0.0819265 6.98996 0.0816652Z" fill="#F89822"/>
</svg>
