<svg width="24" height="24" viewBox="0 0 24 24" fill="none" xmlns="http://www.w3.org/2000/svg">
<path d="M2.95131 14.8777L3.37594 14.6137L2.95131 14.8777ZM2.95131 9.1223L2.52668 8.85832L2.95131 9.1223ZM21.0488 14.8777L20.6242 14.6137L21.0488 14.8777ZM21.0488 9.12232L20.6242 9.38629L21.0488 9.12232ZM3.37594 14.6137C2.38339 13.0172 2.38339 10.9828 3.37594 9.38629L2.52668 8.85832C1.33315 10.7781 1.33315 13.2219 2.52668 15.1417L3.37594 14.6137ZM12.0003 20C8.08137 20 5.25078 17.6294 3.37594 14.6137L2.52668 15.1417C4.50732 18.3276 7.61187 21 12.0003 21V20ZM20.6242 14.6137C18.7495 17.6294 15.9193 20 12.0003 20V21C16.3888 21 19.493 18.3275 21.4735 15.1416L20.6242 14.6137ZM20.6242 9.38629C21.6166 10.9828 21.6166 13.0171 20.6242 14.6137L21.4735 15.1416C22.6669 13.2218 22.6669 10.7782 21.4734 8.85835L20.6242 9.38629ZM12.0003 4C15.9193 4 18.7495 6.37057 20.6242 9.38629L21.4734 8.85835C19.493 5.67246 16.3888 3 12.0003 3V4ZM3.37594 9.38629C5.25078 6.37058 8.08137 4 12.0003 4V3C7.61188 3 4.50732 5.67243 2.52668 8.85832L3.37594 9.38629ZM14 12C14 13.1046 13.1046 14 12 14V15C13.6569 15 15 13.6569 15 12H14ZM12 10C13.1046 10 14 10.8954 14 12H15C15 10.3431 13.6569 9 12 9V10ZM10 12C10 10.8954 10.8954 10 12 10V9C10.3431 9 9 10.3431 9 12H10ZM12 14C10.8954 14 10 13.1046 10 12H9C9 13.6569 10.3431 15 12 15V14Z" fill="#7F7F92"/>
</svg>
