<svg width="98" height="88" viewBox="0 0 98 88" fill="none" xmlns="http://www.w3.org/2000/svg">
<path d="M58.6782 72.9804C58.2011 70.6932 56.8916 68.6648 55.0038 67.2884C53.1159 65.912 50.7841 65.2857 48.4607 65.5311C46.1372 65.7765 43.9877 66.876 42.429 68.6164C40.8702 70.3568 40.0134 72.614 40.0246 74.9504C40.0358 77.2867 40.9143 79.5356 42.4897 81.261C44.065 82.9863 46.225 84.0651 48.5507 84.2882C50.8764 84.5113 53.202 83.8627 55.0766 82.4682C56.9512 81.0738 58.2411 79.0328 58.6962 76.7412H73.198V72.9804H58.6782ZM49.4506 80.6164C48.32 80.6164 47.2148 80.2811 46.2747 79.653C45.3347 79.0248 44.602 78.132 44.1693 77.0875C43.7366 76.043 43.6234 74.8936 43.844 73.7847C44.0646 72.6758 44.609 71.6572 45.4085 70.8578C46.2079 70.0583 47.2265 69.5139 48.3354 69.2933C49.4443 69.0727 50.5937 69.1859 51.6382 69.6186C52.6827 70.0513 53.5755 70.7839 54.2037 71.724C54.8318 72.6641 55.1671 73.7693 55.1671 74.8999C55.1671 76.416 54.5648 77.87 53.4928 78.9421C52.4207 80.0141 50.9667 80.6164 49.4506 80.6164Z" fill="white"/>
<path d="M37.1932 36.7531L44.7149 23.5932C47.4833 24.644 50.5393 24.6525 53.3136 23.6173L62.2945 39.0036C60.8489 40.2557 59.912 41.994 59.6611 43.89C59.4101 45.7859 59.8624 47.7081 60.9324 49.2932C62.0025 50.8783 63.6161 52.0165 65.4684 52.4927C67.3206 52.9688 69.2832 52.7499 70.985 51.8773C72.6868 51.0048 74.01 49.539 74.7045 47.7571C75.399 45.9751 75.4166 44.0005 74.7541 42.2065C74.0915 40.4124 72.7947 38.9233 71.1087 38.0204C69.4227 37.1176 67.4644 36.8637 65.604 37.3067L56.6562 21.7098C58.6274 20.1302 60.0593 17.9775 60.7543 15.5491C61.4492 13.1206 61.3729 10.5362 60.5358 8.15302C59.6987 5.76981 58.1422 3.70537 56.0813 2.24489C54.0203 0.784421 51.5567 0 49.0308 0C46.5048 0 44.0412 0.784421 41.9803 2.24489C39.9194 3.70537 38.3628 5.76981 37.5257 8.15302C36.6887 10.5362 36.6123 13.1206 37.3073 15.5491C38.0022 17.9775 39.4342 20.1302 41.4053 21.7098L33.4203 35.342C32.9414 35.2693 32.4576 35.2331 31.9732 35.2337C30.0852 35.233 28.2382 35.7841 26.6593 36.8192C25.0805 37.8544 23.8386 39.3284 23.0864 41.0601C22.3342 42.7917 22.1046 44.7054 22.4257 46.5659C22.7468 48.4263 23.6047 50.1523 24.8938 51.5317L17.5647 63.5994C14.7201 62.4307 11.5394 62.3779 8.65767 63.4517C5.77592 64.5254 3.40521 66.6466 2.01892 69.3917C0.63263 72.1368 0.332778 75.3038 1.17924 78.2603C2.0257 81.2168 3.95617 83.7452 6.5852 85.3407C9.21422 86.9362 12.3483 87.4813 15.3617 86.8673C18.375 86.2532 21.0459 84.5251 22.8409 82.0281C24.636 79.531 25.4231 76.4488 25.0451 73.3969C24.6672 70.3449 23.1519 67.5478 20.802 65.564L27.9476 53.731C30.1792 54.7585 32.7179 54.8998 35.0498 54.1262C37.3816 53.3526 39.3325 51.722 40.5075 49.5643C41.6825 47.4067 41.9938 44.8832 41.3785 42.5047C40.7631 40.1262 39.2671 38.0703 37.1932 36.7531ZM72.1569 44.9246C72.1575 45.8638 71.8795 46.782 71.3582 47.5631C70.8369 48.3443 70.0956 48.9532 69.2281 49.313C68.3606 49.6728 67.406 49.7673 66.4848 49.5844C65.5637 49.4016 64.7174 48.9497 64.0531 48.2858C63.3889 47.622 62.9364 46.776 62.753 45.855C62.5695 44.9339 62.6634 43.9792 63.0226 43.1115C63.3819 42.2438 63.9904 41.5021 64.7712 40.9803C65.552 40.4585 66.4701 40.18 67.4092 40.18C68.6668 40.1832 69.8717 40.6852 70.7596 41.5758C71.6474 42.4665 72.1456 43.673 72.1448 44.9306L72.1569 44.9246ZM31.9912 50.7945C30.8303 50.7945 29.6954 50.4503 28.7301 49.8053C27.7648 49.1603 27.0124 48.2435 26.5681 47.1709C26.1239 46.0984 26.0076 44.9181 26.2341 43.7795C26.4606 42.6408 27.0197 41.5949 27.8406 40.774C28.6615 39.9531 29.7074 39.394 30.8461 39.1675C31.9847 38.941 33.165 39.0573 34.2375 39.5016C35.3101 39.9458 36.2269 40.6982 36.8719 41.6635C37.5169 42.6288 37.8611 43.7637 37.8611 44.9246C37.8619 45.697 37.7103 46.4619 37.4149 47.1756C37.1195 47.8892 36.6862 48.5376 36.1397 49.0834C35.5933 49.6293 34.9445 50.062 34.2306 50.3566C33.5166 50.6513 32.7516 50.8021 31.9792 50.8005L31.9912 50.7945Z" fill="white"/>
<path d="M84.9046 87.091C91.6392 87.091 97.0987 81.6315 97.0987 74.8969C97.0987 68.1623 91.6392 62.7028 84.9046 62.7028C78.1699 62.7028 72.7104 68.1623 72.7104 74.8969C72.7104 81.6315 78.1699 87.091 84.9046 87.091Z" fill="#F89822"/>
</svg>
