<svg width="64" height="67" viewBox="0 0 64 67" fill="none" xmlns="http://www.w3.org/2000/svg">
<path d="M37.5432 41.6453C37.2705 40.3567 36.522 39.2138 35.4428 38.4383C34.3636 37.6628 33.0307 37.31 31.7026 37.4482C30.3745 37.5865 29.1457 38.2059 28.2547 39.1865C27.3637 40.1671 26.8739 41.4389 26.8804 42.7552C26.8868 44.0716 27.3889 45.3387 28.2894 46.3108C29.1899 47.2829 30.4246 47.8907 31.7541 48.0164C33.0835 48.142 34.4129 47.7766 35.4844 46.9909C36.556 46.2053 37.2934 45.0554 37.5535 43.7642H45.843V41.6453H37.5432ZM32.2685 45.9476C31.6222 45.9476 30.9904 45.7587 30.4531 45.4048C29.9157 45.0509 29.4969 44.5478 29.2496 43.9593C29.0022 43.3708 28.9375 42.7232 29.0636 42.0984C29.1897 41.4737 29.5009 40.8998 29.9579 40.4494C30.4149 39.9989 30.9971 39.6922 31.631 39.5679C32.2649 39.4436 32.9219 39.5074 33.519 39.7512C34.1161 39.995 34.6264 40.4078 34.9854 40.9374C35.3445 41.4671 35.5361 42.0898 35.5361 42.7268C35.5361 43.581 35.1919 44.4002 34.5791 45.0042C33.9663 45.6082 33.1351 45.9476 32.2685 45.9476Z" fill="white"/>
<path d="M25.2619 21.234L29.5614 13.8194C31.1439 14.4115 32.8908 14.4163 34.4767 13.833L39.6104 22.502C38.784 23.2075 38.2485 24.1869 38.1051 25.2551C37.9616 26.3233 38.2201 27.4063 38.8318 28.2994C39.4434 29.1925 40.3659 29.8338 41.4246 30.102C42.4834 30.3703 43.6053 30.247 44.5781 29.7554C45.5509 29.2637 46.3073 28.4379 46.7042 27.4339C47.1012 26.4299 47.1113 25.3174 46.7326 24.3066C46.3538 23.2958 45.6125 22.4567 44.6488 21.9481C43.6851 21.4394 42.5657 21.2963 41.5022 21.5459L36.3874 12.7583C37.5142 11.8683 38.3327 10.6554 38.73 9.28717C39.1272 7.91892 39.0836 6.46284 38.6051 5.12008C38.1266 3.77733 37.2368 2.61418 36.0588 1.79131C34.8807 0.968449 33.4724 0.526489 32.0285 0.526489C30.5846 0.526489 29.1764 0.968449 27.9983 1.79131C26.8202 2.61418 25.9305 3.77733 25.452 5.12008C24.9735 6.46284 24.9298 7.91892 25.3271 9.28717C25.7243 10.6554 26.5429 11.8683 27.6696 12.7583L23.1052 20.439C22.8314 20.398 22.5549 20.3776 22.278 20.378C21.1988 20.3776 20.143 20.6881 19.2405 21.2713C18.3379 21.8545 17.628 22.685 17.1981 23.6606C16.7681 24.6363 16.6368 25.7145 16.8204 26.7627C17.0039 27.811 17.4943 28.7834 18.2312 29.5606L14.0417 36.3598C12.4157 35.7013 10.5975 35.6716 8.95026 36.2766C7.30298 36.8815 5.94783 38.0767 5.15539 39.6233C4.36295 41.17 4.19155 42.9543 4.67541 44.6201C5.15926 46.2858 6.26277 47.7104 7.76558 48.6094C9.2684 49.5083 11.0599 49.8154 12.7824 49.4695C14.5049 49.1235 16.0317 48.1498 17.0578 46.7429C18.0838 45.3361 18.5338 43.5995 18.3177 41.8799C18.1017 40.1604 17.2355 38.5844 15.8923 37.4667L19.9768 30.7997C21.2525 31.3787 22.7037 31.4583 24.0366 31.0224C25.3696 30.5865 26.4847 29.6678 27.1564 28.4521C27.828 27.2365 28.006 25.8147 27.6543 24.4746C27.3025 23.1345 26.4474 21.9761 25.2619 21.234ZM45.2479 25.838C45.2483 26.3672 45.0894 26.8845 44.7914 27.3246C44.4934 27.7647 44.0697 28.1078 43.5738 28.3106C43.0779 28.5133 42.5322 28.5665 42.0057 28.4635C41.4791 28.3605 40.9954 28.1058 40.6157 27.7318C40.2359 27.3578 39.9773 26.8811 39.8724 26.3622C39.7676 25.8433 39.8212 25.3053 40.0266 24.8165C40.232 24.3276 40.5798 23.9097 41.0261 23.6157C41.4725 23.3217 41.9972 23.1648 42.5341 23.1648C43.2529 23.1666 43.9417 23.4494 44.4492 23.9513C44.9567 24.4531 45.2415 25.1329 45.2411 25.8414L45.2479 25.838ZM22.2883 29.1453C21.6247 29.1453 20.9759 28.9513 20.4241 28.5879C19.8724 28.2245 19.4423 27.708 19.1883 27.1037C18.9344 26.4993 18.8679 25.8344 18.9974 25.1928C19.1269 24.5513 19.4464 23.962 19.9157 23.4995C20.3849 23.0369 20.9828 22.722 21.6337 22.5943C22.2846 22.4667 22.9592 22.5322 23.5723 22.7825C24.1855 23.0329 24.7095 23.4568 25.0782 24.0006C25.4469 24.5445 25.6437 25.1839 25.6437 25.838C25.6441 26.2732 25.5574 26.7042 25.3886 27.1063C25.2197 27.5084 24.972 27.8736 24.6597 28.1812C24.3473 28.4887 23.9765 28.7325 23.5684 28.8985C23.1603 29.0645 22.7229 29.1495 22.2814 29.1487L22.2883 29.1453Z" fill="white"/>
<path d="M52.5349 49.5955C56.3845 49.5955 59.5053 46.5195 59.5053 42.725C59.5053 38.9306 56.3845 35.8546 52.5349 35.8546C48.6852 35.8546 45.5644 38.9306 45.5644 42.725C45.5644 46.5195 48.6852 49.5955 52.5349 49.5955Z" fill="#F89822"/>
<path d="M5.19167 62.025H2.12737L1.62033 63.47H0L2.76669 55.8757H4.56338L7.33007 63.47H5.69872L5.19167 62.025ZM4.77281 60.8082L3.65952 57.6357L2.54624 60.8082H4.77281Z" fill="white"/>
<path d="M15.9478 57.3641C16.6974 57.3641 17.2999 57.5923 17.7555 58.0486C18.2185 58.4977 18.45 59.1278 18.45 59.939V63.47H16.9068V60.1454C16.9068 59.6747 16.7855 59.3161 16.543 59.0699C16.3005 58.8164 15.9699 58.6896 15.551 58.6896C15.1321 58.6896 14.7978 58.8164 14.5479 59.0699C14.3054 59.3161 14.1842 59.6747 14.1842 60.1454V63.47H12.641V60.1454C12.641 59.6747 12.5198 59.3161 12.2773 59.0699C12.0348 58.8164 11.7041 58.6896 11.2852 58.6896C10.859 58.6896 10.521 58.8164 10.2711 59.0699C10.0286 59.3161 9.90739 59.6747 9.90739 60.1454V63.47H8.36422V57.451H9.90739V58.179C10.1058 57.9255 10.3593 57.7263 10.668 57.5814C10.9839 57.4366 11.3293 57.3641 11.7041 57.3641C12.1817 57.3641 12.6079 57.4655 12.9827 57.6683C13.3575 57.8639 13.6478 58.1464 13.8535 58.5158C14.0519 58.1681 14.3385 57.8892 14.7133 57.6792C15.0954 57.4692 15.5069 57.3641 15.9478 57.3641Z" fill="white"/>
<path d="M20.6969 56.734C20.4251 56.734 20.1973 56.6507 20.0135 56.4841C19.8372 56.3103 19.749 56.0966 19.749 55.8431C19.749 55.5896 19.8372 55.3795 20.0135 55.213C20.1973 55.0391 20.4251 54.9522 20.6969 54.9522C20.9688 54.9522 21.193 55.0391 21.3693 55.213C21.553 55.3795 21.6449 55.5896 21.6449 55.8431C21.6449 56.0966 21.553 56.3103 21.3693 56.4841C21.193 56.6507 20.9688 56.734 20.6969 56.734ZM21.4575 57.451V63.47H19.9143V57.451H21.4575Z" fill="white"/>
<path d="M26.3661 57.3641C27.0936 57.3641 27.6815 57.5923 28.1298 58.0486C28.578 58.4977 28.8021 59.1278 28.8021 59.939V63.47H27.259V60.1454C27.259 59.6674 27.1377 59.3016 26.8952 59.0481C26.6527 58.7874 26.322 58.657 25.9032 58.657C25.477 58.657 25.1389 58.7874 24.8891 59.0481C24.6466 59.3016 24.5253 59.6674 24.5253 60.1454V63.47H22.9822V57.451H24.5253V58.2007C24.7311 57.94 24.992 57.7371 25.3079 57.5923C25.6313 57.4402 25.984 57.3641 26.3661 57.3641Z" fill="white"/>
<path d="M35.0865 55.8974V56.7014H32.9922V63.47H31.9891V56.7014H29.8838V55.8974H35.0865Z" fill="white"/>
<path d="M38.9556 63.5678C38.3898 63.5678 37.8754 63.441 37.4125 63.1875C36.9569 62.934 36.5968 62.5755 36.3322 62.1119C36.0751 61.6411 35.9465 61.0979 35.9465 60.4822C35.9465 59.8738 36.0787 59.3379 36.3433 58.8743C36.6152 58.4035 36.9826 58.045 37.4455 57.7987C37.9085 57.5452 38.4266 57.4185 38.9997 57.4185C39.5729 57.4185 40.091 57.5452 40.5539 57.7987C41.0169 58.045 41.3806 58.3999 41.6452 58.8634C41.9171 59.327 42.053 59.8666 42.053 60.4822C42.053 61.0979 41.9134 61.6411 41.6341 62.1119C41.3623 62.5755 40.9912 62.934 40.5209 63.1875C40.0506 63.441 39.5288 63.5678 38.9556 63.5678ZM38.9556 62.6986C39.3157 62.6986 39.6537 62.6153 39.9697 62.4487C40.2857 62.2821 40.5392 62.0323 40.7303 61.6991C40.9287 61.3659 41.0279 60.9603 41.0279 60.4822C41.0279 60.0042 40.9324 59.5986 40.7413 59.2654C40.5503 58.9322 40.3004 58.686 39.9918 58.5266C39.6831 58.36 39.3488 58.2768 38.9887 58.2768C38.6213 58.2768 38.2833 58.36 37.9746 58.5266C37.6733 58.686 37.4308 58.9322 37.2471 59.2654C37.0634 59.5986 36.9716 60.0042 36.9716 60.4822C36.9716 60.9675 37.0597 61.3768 37.2361 61.7099C37.4198 62.0431 37.6623 62.293 37.9636 62.4596C38.2649 62.6189 38.5956 62.6986 38.9556 62.6986Z" fill="white"/>
<path d="M44.3749 58.6135C44.5733 58.2731 44.8673 57.9907 45.2567 57.7661C45.6535 57.5343 46.1128 57.4185 46.6346 57.4185C47.171 57.4185 47.656 57.5452 48.0896 57.7987C48.5305 58.0522 48.8758 58.4107 49.1257 58.8743C49.3755 59.3306 49.5005 59.863 49.5005 60.4714C49.5005 61.0726 49.3755 61.6085 49.1257 62.0793C48.8758 62.5501 48.5305 62.9159 48.0896 63.1766C47.656 63.4374 47.171 63.5678 46.6346 63.5678C46.1202 63.5678 45.6646 63.4555 45.2678 63.231C44.8783 62.9992 44.5807 62.7131 44.3749 62.3727V66.2948H43.3719V57.5162H44.3749V58.6135ZM48.4753 60.4714C48.4753 60.0223 48.3835 59.6312 48.1998 59.298C48.0161 58.9648 47.7662 58.7113 47.4502 58.5375C47.1416 58.3637 46.7999 58.2768 46.4251 58.2768C46.0577 58.2768 45.716 58.3673 45.4 58.5484C45.0914 58.7222 44.8415 58.9793 44.6505 59.3197C44.4668 59.6529 44.3749 60.0404 44.3749 60.4822C44.3749 60.9313 44.4668 61.3261 44.6505 61.6665C44.8415 61.9997 45.0914 62.2568 45.4 62.4379C45.716 62.6117 46.0577 62.6986 46.4251 62.6986C46.7999 62.6986 47.1416 62.6117 47.4502 62.4379C47.7662 62.2568 48.0161 61.9997 48.1998 61.6665C48.3835 61.3261 48.4753 60.9277 48.4753 60.4714Z" fill="white"/>
<path d="M56.1778 57.5162V63.47H55.1747V62.59C54.9837 62.8942 54.7154 63.1332 54.3701 63.307C54.032 63.4736 53.6573 63.5569 53.2458 63.5569C52.7755 63.5569 52.3529 63.4627 51.9781 63.2744C51.6034 63.0789 51.3058 62.7891 51.0853 62.4053C50.8722 62.0214 50.7657 61.5542 50.7657 61.0037V57.5162H51.7577V60.8734C51.7577 61.4601 51.9083 61.9127 52.2096 62.2314C52.5109 62.5429 52.9224 62.6986 53.4442 62.6986C53.9806 62.6986 54.4031 62.5356 54.7118 62.2097C55.0204 61.8838 55.1747 61.4094 55.1747 60.7865V57.5162H56.1778Z" fill="white"/>
<path d="M58.8745 58.6135C59.0729 58.2731 59.3668 57.9907 59.7563 57.7661C60.1531 57.5343 60.6124 57.4185 61.1341 57.4185C61.6705 57.4185 62.1555 57.5452 62.5891 57.7987C63.03 58.0522 63.3754 58.4107 63.6252 58.8743C63.8751 59.3306 64 59.863 64 60.4714C64 61.0726 63.8751 61.6085 63.6252 62.0793C63.3754 62.5501 63.03 62.9159 62.5891 63.1766C62.1555 63.4374 61.6705 63.5678 61.1341 63.5678C60.6197 63.5678 60.1641 63.4555 59.7673 63.231C59.3778 62.9992 59.0802 62.7131 58.8745 62.3727V66.2948H57.8714V57.5162H58.8745V58.6135ZM62.9749 60.4714C62.9749 60.0223 62.883 59.6312 62.6993 59.298C62.5156 58.9648 62.2658 58.7113 61.9498 58.5375C61.6411 58.3637 61.2994 58.2768 60.9247 58.2768C60.5573 58.2768 60.2155 58.3673 59.8996 58.5484C59.5909 58.7222 59.3411 58.9793 59.15 59.3197C58.9663 59.6529 58.8745 60.0404 58.8745 60.4822C58.8745 60.9313 58.9663 61.3261 59.15 61.6665C59.3411 61.9997 59.5909 62.2568 59.8996 62.4379C60.2155 62.6117 60.5573 62.6986 60.9247 62.6986C61.2994 62.6986 61.6411 62.6117 61.9498 62.4379C62.2658 62.2568 62.5156 61.9997 62.6993 61.6665C62.883 61.3261 62.9749 60.9277 62.9749 60.4714Z" fill="white"/>
</svg>
