<svg width="19" height="20" viewBox="0 0 19 20" fill="none" xmlns="http://www.w3.org/2000/svg">
<path d="M6.56677 19.0026H6.08502C5.95641 18.9632 5.82705 18.9282 5.69918 18.8829L1.22072 17.3856C0.386587 17.1068 0 16.573 0 15.698V1.72659C0 1.65225 0 1.5779 0 1.50356C0.0364284 0.685778 0.743436 0.00256072 1.55081 0.00330416C2.99753 0.00330416 4.44401 0.00330416 5.89024 0.00330416C7.37712 0.00330416 8.85878 -0.0041302 10.3427 0.00330416C11.5322 0.0122254 12.5946 0.992817 12.6421 2.15109C12.6786 3.03355 12.6555 3.91898 12.6525 4.80367C12.6518 4.91262 12.6255 5.01988 12.5758 5.11684C12.5261 5.2138 12.4543 5.29776 12.3663 5.36199C12.2552 5.45757 12.1186 5.51857 11.9733 5.53746C11.828 5.55635 11.6804 5.53231 11.5485 5.4683C11.4088 5.41316 11.2895 5.31639 11.2066 5.19112C11.1238 5.06584 11.0814 4.91813 11.0854 4.76799C11.0794 4.00745 11.0854 3.24692 11.0854 2.48564C11.0854 1.9013 10.7746 1.58757 10.1933 1.58682C9.09297 1.58682 7.99243 1.58682 6.89165 1.58682C6.83812 1.58682 6.7846 1.59128 6.72512 1.59426C6.73776 1.61284 6.74148 1.62697 6.74966 1.62994C7.6165 2.00166 7.90942 2.44103 7.90942 3.38296V15.0415H10.165C10.7798 15.0415 11.0817 14.736 11.0817 14.1145C11.0817 13.1376 11.0817 12.1607 11.0817 11.1831C11.0778 11.0782 11.0876 10.9732 11.1107 10.8709C11.1596 10.6934 11.2694 10.5389 11.4208 10.4342C11.5722 10.3296 11.7556 10.2815 11.9388 10.2984C12.3522 10.346 12.6503 10.6515 12.6533 11.0641C12.6607 12.1223 12.6607 13.18 12.6533 14.2371C12.6436 15.5969 11.6065 16.6236 10.246 16.6273C9.53531 16.6273 8.82384 16.6273 8.11312 16.6273H7.90198C7.90198 16.9336 7.91016 17.2109 7.90198 17.4882C7.90153 17.7215 7.84431 17.9513 7.73525 18.1576C7.6262 18.364 7.46858 18.5406 7.27601 18.6725C7.06859 18.8204 6.80616 18.8955 6.56677 19.0026Z" fill="#1C1C1F"/>
<path d="M18.9963 8.09348C18.8521 8.289 18.7294 8.50608 18.5607 8.67782C17.5942 9.65544 16.6218 10.6219 15.6531 11.5936C15.4434 11.804 15.2011 11.9185 14.9022 11.8649C14.5089 11.7906 14.2502 11.4754 14.248 11.0598C14.248 10.3543 14.248 9.64726 14.248 8.94471V8.71499H14.025C13.0667 8.71499 12.1084 8.71499 11.1501 8.71499C10.7077 8.71499 10.3888 8.46743 10.3107 8.07861C10.2096 7.57307 10.5762 7.13221 11.1085 7.12998C12.0794 7.12627 13.0503 7.12998 14.0205 7.12998H14.2495V6.9248C14.2495 6.22597 14.2495 5.52788 14.2495 4.82905C14.2495 4.45733 14.393 4.17334 14.7379 4.02911C15.0829 3.88489 15.3877 3.9793 15.6501 4.24248C16.676 5.27139 17.7072 6.29511 18.7279 7.32922C18.8446 7.44743 18.9101 7.61545 19 7.76042L18.9963 8.09348Z" fill="#1C1C1F"/>
</svg>
