<svg width="24" height="24" viewBox="0 0 24 24" fill="none" xmlns="http://www.w3.org/2000/svg">
<path d="M20.2173 16.2013L19.7401 16.0522L19.7401 16.0522L20.2173 16.2013ZM3.6649 16.0659L4.14997 15.9446L3.6649 16.0659ZM7.0482 3.86624L6.93973 3.37815V3.37815L7.0482 3.86624ZM16.7431 3.86624L16.8515 3.37815V3.37815L16.7431 3.86624ZM21.4998 12.3499C21.5085 12.0739 21.2918 11.8431 21.0158 11.8344C20.7398 11.8256 20.509 12.0423 20.5002 12.3183L21.4998 12.3499ZM3.60759 12.3334C3.60719 12.0573 3.38301 11.8337 3.10687 11.8341C2.83073 11.8345 2.60719 12.0587 2.60759 12.3348L3.60759 12.3334ZM12 20.5L12.0056 21L12 20.5ZM3.52577 8.87973L3.23303 9.28507L3.52577 8.87973ZM10.8216 14.1489L10.5288 14.5543L10.8216 14.1489ZM20.3756 8.87399L20.0804 8.47042L20.3756 8.87399ZM20.7504 7.88077L20.2655 8.00265L20.7504 7.88077ZM7.15666 4.35434C10.2779 3.66073 13.5134 3.66073 16.6346 4.35434L16.8515 3.37815C13.5874 2.65279 10.2038 2.65279 6.93973 3.37815L7.15666 4.35434ZM20.0804 8.47042L12.8781 13.7383L13.4684 14.5454L20.6708 9.27757L20.0804 8.47042ZM11.1143 13.7436L3.81852 8.47439L3.23303 9.28507L10.5288 14.5543L11.1143 13.7436ZM16.6346 4.35434C17.7155 4.59454 18.481 5.00081 19.0411 5.57492C19.604 6.15189 19.9978 6.93759 20.2655 8.00265L21.2353 7.75889C20.9403 6.58503 20.4815 5.61927 19.7569 4.8766C19.0296 4.13107 18.0728 3.64954 16.8515 3.37815L16.6346 4.35434ZM3.63187 7.99621C3.90538 6.9627 4.28833 6.17201 4.83561 5.58477C5.37749 5.00334 6.11324 4.58621 7.15666 4.35434L6.93973 3.37815C5.73496 3.64588 4.80694 4.1488 4.10406 4.90299C3.40658 5.65139 2.96378 6.61193 2.66515 7.74037L3.63187 7.99621ZM20.5002 12.3183C20.4531 13.8106 20.2112 14.5448 19.7401 16.0522L20.6946 16.3504C21.1671 14.8382 21.4479 13.9903 21.4998 12.3499L20.5002 12.3183ZM4.14997 15.9446C3.78258 14.4751 3.60967 13.7813 3.60759 12.3334L2.60759 12.3348C2.60985 13.9101 2.80848 14.7017 3.17982 16.1871L4.14997 15.9446ZM11.9944 20C10.2886 20.0192 8.53924 19.9096 7.10652 19.3359C5.70596 18.775 4.60696 17.7726 4.14997 15.9446L3.17982 16.1871C3.72462 18.3663 5.07654 19.6002 6.73476 20.2642C8.36083 20.9154 10.2781 21.0194 12.0056 21L11.9944 20ZM19.7401 16.0522C19.2065 17.7596 18.1137 18.7212 16.7437 19.2758C15.3472 19.8412 13.6643 19.9813 11.9944 20L12.0056 21C13.6984 20.981 15.5397 20.8421 17.119 20.2028C18.7248 19.5527 20.0592 18.3838 20.6946 16.3504L19.7401 16.0522ZM3.81852 8.47439C3.65341 8.35514 3.58789 8.1624 3.63187 7.99621L2.66515 7.74037C2.50727 8.33696 2.75848 8.94233 3.23303 9.28507L3.81852 8.47439ZM12.8781 13.7383C12.3534 14.122 11.6413 14.1242 11.1143 13.7436L10.5288 14.5543C11.4071 15.1886 12.594 15.185 13.4684 14.5454L12.8781 13.7383ZM20.6708 9.27757C21.1338 8.93891 21.3832 8.34721 21.2353 7.75889L20.2655 8.00265C20.3062 8.16459 20.2418 8.35238 20.0804 8.47042L20.6708 9.27757Z" fill="#7F7F92"/>
</svg>
