<svg width="23" height="24" viewBox="0 0 23 24" fill="none" xmlns="http://www.w3.org/2000/svg">
<path d="M14.8952 4.47374C14.8952 6.39223 13.34 7.94748 11.4215 7.94748C9.503 7.94748 7.94775 6.39223 7.94775 4.47374C7.94775 2.55525 9.503 1 11.4215 1C13.34 1 14.8952 2.55525 14.8952 4.47374Z" stroke="#1D1D92" stroke-linecap="round"/>
<path d="M1 17.8273C1 16.3746 1.78757 15.0361 3.05743 14.3306L5.10786 13.1915C9.03415 11.0102 13.8083 11.0102 17.7346 13.1915L19.785 14.3306C21.0549 15.0361 21.8424 16.3746 21.8424 17.8273V20.0001C21.8424 21.6569 20.4993 23.0001 18.8424 23.0001H4C2.34315 23.0001 1 21.6569 1 20.0001L1 17.8273Z" stroke="#1D1D92" stroke-linecap="round"/>
</svg>
