<svg width="15" height="16" viewBox="0 0 15 16" fill="none" xmlns="http://www.w3.org/2000/svg">
<path opacity="1" d="M7.16223 15.41C6.88252 15.3961 6.59916 15.4056 6.32384 15.3625C5.95094 15.2993 5.61158 15.1086 5.3638 14.8228C5.11602 14.5371 4.97521 14.1741 4.96546 13.796C4.97058 13.5905 4.9591 13.3848 4.93113 13.1811C4.89823 13.0193 4.82877 12.8672 4.72807 12.7363C4.62736 12.6055 4.49807 12.4994 4.35009 12.4262C4.20211 12.353 4.03934 12.3146 3.87424 12.3139C3.70913 12.3132 3.54606 12.3503 3.39748 12.4223C3.25142 12.4953 3.10536 12.5844 2.9593 12.6597C2.59629 12.8523 2.17392 12.9007 1.77674 12.7952C1.37955 12.6897 1.03687 12.4381 0.817297 12.0907C0.590901 11.7336 0.379111 11.3663 0.183388 10.9909C-0.00473168 10.6289 -0.0500598 10.2094 0.0563818 9.81557C0.162823 9.42172 0.413274 9.0822 0.758142 8.86423C0.864037 8.79631 0.977235 8.73643 1.0824 8.67143C1.85872 8.20184 1.86164 7.20278 1.08751 6.73465C0.994763 6.67841 0.898359 6.62729 0.80634 6.5696C0.030751 6.08759 -0.222665 5.15645 0.210409 4.3553C0.394934 4.01449 0.589684 3.67781 0.794657 3.34528C1.0156 2.98143 1.36891 2.71732 1.78042 2.60839C2.19192 2.49945 2.62962 2.55416 3.00165 2.76103C3.22074 2.87715 3.44641 3.01299 3.68523 3.06338C4.32498 3.19922 4.92675 2.69823 4.96107 2.04095C4.95979 1.81824 4.971 1.59563 4.99467 1.37417C5.05472 0.997567 5.24554 0.654162 5.53363 0.404274C5.82171 0.154385 6.18864 0.013995 6.56995 0.00776261C7.04392 0.00118982 7.523 -0.0163367 7.99186 0.0406274C8.75723 0.133377 9.33344 0.819868 9.35973 1.59473C9.36703 1.79994 9.35316 2.01027 9.39259 2.20965C9.42412 2.373 9.49286 2.5269 9.59348 2.65939C9.69409 2.79189 9.82388 2.89942 9.97277 2.97366C10.1217 3.04789 10.2856 3.08682 10.452 3.08744C10.6184 3.08805 10.7827 3.05033 10.9321 2.9772C11.0818 2.90417 11.2242 2.81507 11.3703 2.73912C11.7344 2.54846 12.157 2.50212 12.5538 2.60933C12.9505 2.71655 13.2923 2.96943 13.5108 3.31753C13.7299 3.66516 13.9366 4.02228 14.1294 4.38597C14.3252 4.75061 14.3755 5.17594 14.27 5.57617C14.1646 5.9764 13.9113 6.32176 13.5612 6.54258C13.4414 6.61999 13.3144 6.68864 13.196 6.76167C12.4825 7.21519 12.4862 8.19454 13.2041 8.64368C13.3107 8.71014 13.4232 8.76856 13.5291 8.83502C13.8948 9.05348 14.1611 9.40564 14.2718 9.817C14.3825 10.2284 14.3288 10.6666 14.1221 11.0391C13.9468 11.3663 13.7569 11.6869 13.5663 12.0053C13.0704 12.8327 12.1167 13.0796 11.2731 12.6129C11.0752 12.5034 10.8685 12.3851 10.6516 12.339C10.0039 12.2032 9.39479 12.7042 9.36777 13.3673C9.36954 13.5844 9.35881 13.8014 9.33563 14.0173C9.27582 14.3967 9.08397 14.7429 8.79391 14.9947C8.50386 15.2466 8.13421 15.388 7.75013 15.3939C7.55587 15.3983 7.36087 15.3939 7.16588 15.3939L7.16223 15.41ZM4.4148 7.69135C4.41265 8.23475 4.57159 8.76658 4.87156 9.21968C5.17152 9.67279 5.59904 10.0268 6.10012 10.2371C6.6012 10.4473 7.15335 10.5043 7.68681 10.4009C8.22027 10.2975 8.71112 10.0383 9.09734 9.65604C9.48356 9.2738 9.74783 8.78566 9.85676 8.25329C9.96569 7.72093 9.91439 7.16822 9.70935 6.66499C9.5043 6.16177 9.15471 5.7306 8.70474 5.42597C8.25477 5.12133 7.7246 4.95689 7.18122 4.95342C6.45144 4.95012 5.75019 5.23661 5.23149 5.74997C4.71279 6.26333 4.41905 6.96158 4.4148 7.69135Z" fill="#F89822"/>
</svg>
