<svg width="119" height="123" viewBox="0 0 119 123" fill="none" xmlns="http://www.w3.org/2000/svg">
<path d="M118.135 0.20755L81.1355 0.20755L81.1355 103.721C81.1355 113.938 89.4181 122.221 99.6351 122.221C109.852 122.221 118.135 113.938 118.135 103.721L118.135 0.20755Z" fill="#001E3E"/>
<path d="M37.9696 0.20755H0.970345V67.1171C0.970345 77.3342 9.25292 85.6168 19.47 85.6168C29.6871 85.6168 37.9696 77.3342 37.9696 67.1171V0.20755Z" fill="#001E3E"/>
<rect width="117.164" height="57.9563" transform="matrix(-1 -3.24995e-10 3.23787e-10 1 118.135 0.20755)" fill="#001E3E"/>
<path d="M37.9697 101.682L81.1355 101.682L81.1355 37.8555C81.1355 25.9356 71.4725 16.2726 59.5526 16.2726C47.6326 16.2726 37.9696 25.9356 37.9696 37.8555L37.9697 101.682Z" fill="#001933"/>
</svg>
