<svg width="82" height="85" viewBox="0 0 82 85" fill="none" xmlns="http://www.w3.org/2000/svg">
<path d="M82 85.0773L56.2012 85.0773L56.2012 12.8994C56.2012 5.77528 61.9764 -1.7254e-06 69.1006 -1.11152e-06C76.2247 -4.97645e-07 82 5.77527 82 12.8994L82 85.0773Z" fill="#012245"/>
<path d="M26.1025 85.0773L0.30368 85.0773L0.303685 38.4226C0.303685 31.2985 6.07895 25.5232 13.2031 25.5232C20.3272 25.5232 26.1025 31.2985 26.1025 38.4226L26.1025 85.0773Z" fill="#012245"/>
<rect x="82" y="85.0773" width="81.6963" height="40.4117" transform="rotate(-180 82 85.0773)" fill="#012245"/>
<path d="M26.1025 14.3214L56.2012 14.3214L56.2012 58.8261C56.2012 67.1377 49.4634 73.8755 41.1518 73.8755C32.8403 73.8755 26.1025 67.1377 26.1025 58.8261L26.1025 14.3214Z" fill="#001933"/>
</svg>
