<svg width="13" height="16" viewBox="0 0 13 16" fill="none" xmlns="http://www.w3.org/2000/svg">
<path d="M3.78079 8.9633C3.83141 9.42559 4.12289 9.68956 4.47885 9.89875C4.89099 10.1408 5.34473 10.2577 5.81581 10.307C6.5601 10.3851 7.28497 10.3123 7.97148 9.99445C8.11046 9.92843 8.24275 9.84917 8.36651 9.75775C8.66076 9.5444 8.77934 9.34631 8.85885 8.96191C8.96541 8.97578 9.07451 8.98642 9.18246 9.00491C11.2928 9.36781 12.7944 11.3018 12.6224 13.4374C12.5558 14.2651 12.1744 14.8677 11.3626 15.1426C11.1399 15.2164 10.9115 15.2723 10.6798 15.3097C10.0391 15.4155 9.39188 15.4104 8.74467 15.4098C6.83794 15.4079 4.93074 15.4081 3.02471 15.3987C2.51618 15.3961 2.00997 15.348 1.51393 15.2204C0.581715 14.981 0.0822067 14.3867 0.0114757 13.4265C-0.150327 11.2306 1.41662 9.28644 3.59009 8.98341C3.64973 8.97486 3.71052 8.9707 3.78079 8.9633Z" fill="#73818F"/>
<path d="M10.5809 4.74857C10.5809 4.89489 10.5899 5.0419 10.5793 5.18775C10.5481 5.60636 10.2688 5.93759 9.85625 6.06796C9.80239 6.08483 9.75293 6.12667 9.71086 6.16666C9.55784 6.31213 9.40736 6.46021 9.25943 6.61092C9.21538 6.65128 9.18026 6.70041 9.15634 6.75516C8.90531 7.46085 8.55535 8.10737 7.9939 8.61543C7.28844 9.25362 6.4815 9.50303 5.55252 9.18197C5.03591 9.00329 4.62794 8.66489 4.28676 8.24605C3.81222 7.66264 3.51104 6.99254 3.33744 6.26489C3.30901 6.14608 3.2681 6.10725 3.14189 6.1091C2.61026 6.11719 2.19419 5.81462 2.07862 5.34447C2.05777 5.24275 2.04847 5.139 2.05088 5.03519C2.04857 4.78486 2.03886 4.5336 2.05805 4.28443C2.09064 3.85958 2.34051 3.59099 2.7249 3.43751C2.78246 3.41439 2.81205 3.39313 2.81135 3.3254C2.79772 1.8063 3.85567 0.580761 5.22915 0.160074C6.80372 -0.32256 8.54079 0.315174 9.35651 1.68264C9.64975 2.1661 9.80329 2.72136 9.80008 3.2868C9.80008 3.37486 9.82574 3.41 9.91011 3.43935C10.3301 3.58613 10.5804 3.9458 10.5834 4.39029C10.5834 4.5098 10.5834 4.62907 10.5834 4.74857H10.5809ZM8.64342 5.49032C8.65059 5.42629 8.6566 5.37082 8.66284 5.31511C8.70907 4.9009 8.73588 4.48599 8.6737 4.07108C8.64203 3.8605 8.59234 3.65501 8.44255 3.48998C8.36697 3.40699 8.293 3.37579 8.17165 3.42849C7.64232 3.65964 7.08873 3.80988 6.51109 3.84456C5.79245 3.88709 5.1145 3.70032 4.45874 3.4271C4.34131 3.3781 4.27035 3.40769 4.19685 3.48582C4.07342 3.61688 4.01725 3.7803 3.98304 3.95181C3.89173 4.40717 3.92132 4.86391 3.97217 5.32066C3.97818 5.37521 3.98211 5.42976 3.98743 5.49009L3.58061 5.30748L3.54363 5.33314C3.59748 5.61491 3.63609 5.90037 3.70797 6.17775C3.9197 7.00318 4.27844 7.75094 4.95085 8.3043C5.62326 8.85767 6.37078 9.00075 7.18095 8.62791C7.62984 8.42219 7.97541 8.08795 8.25024 7.6839C8.39794 7.46686 8.52161 7.23363 8.65636 7.00757L8.62909 6.98607C8.61198 6.99162 8.59442 6.99601 8.57801 7.00318C8.14276 7.18809 7.6874 7.2928 7.2184 7.34389C7.08641 7.35822 6.95351 7.35799 6.83747 7.44721C6.79124 7.48327 6.71404 7.49136 6.65024 7.49344C6.4503 7.49899 6.24966 7.49899 6.04926 7.4946C5.78182 7.48905 5.58234 7.28911 5.58327 7.03508C5.58419 6.78104 5.78552 6.58434 6.05319 6.57995C6.24597 6.57671 6.43859 6.57671 6.63106 6.57995C6.68792 6.57995 6.75726 6.57995 6.79864 6.61069C6.95189 6.7228 7.11415 6.67379 7.27549 6.65576C7.352 6.64721 7.42782 6.6338 7.5034 6.61901C7.99205 6.52355 8.45411 6.36244 8.857 6.05964C8.90323 6.02589 8.96471 5.98636 8.97512 5.93967C9.02019 5.73857 9.04862 5.53378 9.08329 5.33014L9.05209 5.30702L8.64342 5.49032ZM9.03406 2.91095C8.85446 1.64427 7.59055 0.527367 5.96697 0.70743C5.37646 0.769677 4.82157 1.01998 4.38408 1.42144C3.9449 1.81809 3.55195 2.56007 3.58431 2.93545C4.81517 0.823235 7.72461 0.765679 9.03406 2.91095Z" fill="#73818F"/>
</svg>
