<svg width="17" height="16" viewBox="0 0 17 16" fill="none" xmlns="http://www.w3.org/2000/svg">
<path opacity="0.45" d="M8.01221 15.4077H1.96558C0.78132 15.4077 0 14.6264 0 13.4421C0 9.61689 0 5.79138 0 1.96558C0 0.780501 0.780501 0 1.96558 0H14.0515C15.2382 0 16.0171 0.779682 16.0171 1.96558C16.0171 5.80448 16.0171 9.64283 16.0171 13.4806C16.0171 14.3995 15.4929 15.1186 14.6444 15.3422C14.4515 15.3894 14.2533 15.4116 14.0547 15.4085C12.0422 15.4107 10.028 15.4105 8.01221 15.4077ZM11.1301 10.1662C11.0621 10.2399 11.0228 10.2866 10.9802 10.33C10.7534 10.5576 10.5216 10.7796 10.3013 11.0122C10.1902 11.1266 10.1287 11.2802 10.1302 11.4397C10.1317 11.5992 10.1962 11.7517 10.3095 11.8639C10.4162 11.9787 10.564 12.0465 10.7206 12.0525C10.8772 12.0585 11.0297 12.0022 11.1449 11.8959C11.8001 11.2549 12.449 10.6057 13.0916 9.94832C13.1747 9.86535 13.2293 9.75816 13.2475 9.64218C13.2658 9.5262 13.2468 9.40742 13.1932 9.30295C13.1488 9.1951 13.0736 9.10272 12.977 9.03732C12.8805 8.97192 12.7668 8.93641 12.6502 8.93522C12.5863 8.93112 12.5216 8.93522 12.4577 8.93522H4.59947C4.49709 8.93522 4.3939 8.93522 4.29153 8.93522C4.14067 8.93732 3.99586 8.99487 3.88471 9.09689C3.77357 9.19892 3.70385 9.33828 3.68887 9.48841C3.67389 9.63853 3.71468 9.78893 3.80348 9.9109C3.89227 10.0329 4.02285 10.1179 4.17032 10.1498C4.25829 10.1664 4.34788 10.1727 4.43731 10.1686H11.1318L11.1301 10.1662ZM5.23501 5.54704L5.20798 5.50118C5.45368 5.25548 5.70593 5.02453 5.94508 4.77555C6.05779 4.66288 6.12166 4.51039 6.12288 4.35102C6.12411 4.19165 6.06259 4.03819 5.95163 3.9238C5.89823 3.86539 5.83376 3.81817 5.76197 3.78487C5.69018 3.75157 5.61249 3.73285 5.53341 3.7298C5.45434 3.72676 5.37544 3.73944 5.3013 3.76712C5.22716 3.7948 5.15925 3.83692 5.10151 3.89104C4.47334 4.50528 3.84763 5.12444 3.23912 5.75834C3.16473 5.83707 3.11293 5.9344 3.08916 6.04007C3.0654 6.14575 3.07054 6.25588 3.10407 6.35888C3.13759 6.46188 3.19825 6.55395 3.27966 6.62539C3.36108 6.69684 3.46024 6.74502 3.56672 6.76489C3.63619 6.77694 3.70675 6.7816 3.7772 6.77881H11.9417C11.9865 6.78209 12.0313 6.78209 12.0761 6.77881C12.1921 6.76742 12.3023 6.72269 12.3934 6.65002C12.4845 6.57735 12.5526 6.47986 12.5896 6.36931C12.7419 5.95081 12.4315 5.55032 11.954 5.55032C9.78424 5.55032 7.61473 5.55032 5.44549 5.55032L5.23501 5.54704Z" fill="white"/>
</svg>
