<svg width="13" height="16" viewBox="0 0 13 16" fill="none" xmlns="http://www.w3.org/2000/svg">
<g opacity="0.45">
<path d="M6.67846 0C6.87883 0.0401942 7.0804 0.0743892 7.27838 0.119983C8.64318 0.439736 9.80941 1.73975 9.99298 3.13574C10.113 4.05301 9.98098 4.91988 9.46266 5.69557C8.77456 6.72562 7.8225 7.32553 6.56328 7.41072C4.91292 7.52351 3.55052 6.55105 2.93321 5.23064C2.35369 3.99122 2.58826 2.33906 3.49713 1.31141C4.05505 0.680901 4.72695 0.245964 5.55963 0.0767888C5.70121 0.0479929 5.84398 0.0251963 5.98616 0H6.67846Z" fill="white"/>
<path d="M6.4193 15.4094H2.76344C2.13893 15.4094 1.54861 15.2864 1.03029 14.9156C0.441773 14.4957 0.0944239 13.9174 0.0338328 13.2035C-0.0747514 11.9293 0.072827 10.6791 0.552157 9.48403C0.837116 8.77373 1.26425 8.16422 1.96555 7.78627C2.39552 7.55403 2.87837 7.43725 3.36695 7.44732C3.52233 7.45032 3.6867 7.52651 3.82828 7.6033C4.06045 7.72988 4.27582 7.88826 4.50198 8.02744C5.7878 8.81612 7.07261 8.81392 8.35642 8.02084C8.5364 7.90985 8.71637 7.80247 8.88614 7.67709C9.1939 7.44732 9.53225 7.41433 9.8988 7.46772C10.8983 7.6147 11.6055 8.16002 12.0825 9.03349C12.5078 9.81338 12.6992 10.6599 12.785 11.5327C12.8296 11.9766 12.8496 12.4226 12.845 12.8687C12.8288 14.2419 11.9079 15.2372 10.5407 15.3788C10.3763 15.396 10.2111 15.4048 10.0458 15.4052C8.83715 15.4096 7.62833 15.411 6.4193 15.4094Z" fill="white"/>
</g>
</svg>
