<svg width="41" height="50" viewBox="0 0 41 50" fill="none" xmlns="http://www.w3.org/2000/svg">
<path d="M29.8604 0C29.9762 0 30.0921 0 30.2144 0C30.4985 3.50939 29.159 6.13161 27.531 8.03053C25.9337 9.91633 23.7463 11.7453 20.2085 11.4678C19.9725 8.00868 21.3142 5.58094 22.94 3.68639C24.4477 1.92077 27.212 0.349628 29.8604 0Z" fill="white"/>
<path d="M40.57 36.5274C40.57 36.5624 40.57 36.593 40.57 36.6258C39.5757 39.6369 38.1576 42.2176 36.4269 44.6126C34.847 46.7868 32.911 49.7128 29.454 49.7128C26.4669 49.7128 24.4827 47.792 21.4213 47.7396C18.1829 47.6871 16.4019 49.3457 13.441 49.763C13.1023 49.763 12.7636 49.763 12.4315 49.763C10.2572 49.4484 8.50252 47.7265 7.2242 46.175C3.45476 41.5905 0.541924 35.6686 0 28.0905C0 27.3475 0 26.6067 0 25.8638C0.229444 20.4401 2.86477 16.0305 6.36761 13.8934C8.21627 12.7571 10.7576 11.789 13.5874 12.2217C14.8002 12.4096 16.0392 12.8248 17.1252 13.2356C18.1545 13.6311 19.4415 14.3326 20.6608 14.2954C21.4868 14.2714 22.3085 13.8409 23.141 13.5372C25.5797 12.6565 27.9703 11.647 31.1213 12.1212C34.9082 12.6937 37.596 14.3763 39.2567 16.9723C36.0532 19.011 33.5206 22.0834 33.9533 27.33C34.3379 32.0959 37.1087 34.8842 40.57 36.5274Z" fill="white"/>
</svg>
