<svg width="36" height="32" viewBox="0 0 36 32" fill="none" xmlns="http://www.w3.org/2000/svg">
<path d="M8 16L11.2 16M27.2 16H24M16 16L19.2 16" stroke="#1D1D92" stroke-width="1.4" stroke-linecap="round"/>
<path d="M2.23093 8.19174C2.83738 6.06916 4.45221 4.3826 6.54644 3.68452L7.10685 3.49772C13.9181 1.22731 21.2819 1.22731 28.0931 3.49771L28.6536 3.68452C30.7478 4.38259 32.3626 6.06916 32.9691 8.19174V8.19174C34.4272 13.2951 34.4272 18.7049 32.9691 23.8083V23.8083C32.3626 25.9308 30.7478 27.6174 28.6536 28.3155L28.0931 28.5023C21.2819 30.7727 13.9181 30.7727 7.10686 28.5023L5.17178 27.8573C3.93783 27.4459 2.98634 26.4522 2.62901 25.2015L2.23093 23.8083C0.772819 18.7049 0.772818 13.2951 2.23093 8.19174V8.19174Z" stroke="#1D1D92" stroke-width="1.4" stroke-linecap="round" stroke-linejoin="round"/>
</svg>
