<svg width="48" height="48" viewBox="0 0 48 48" fill="none" xmlns="http://www.w3.org/2000/svg">
<g clip-path="url(#clip0_1350_6006)">
<path fill-rule="evenodd" clip-rule="evenodd" d="M47.9038 24.0672C47.8894 37.3036 37.2142 48.0575 24.115 48.043C11.0158 48.0236 0.369404 37.2454 0.383804 24.0139C0.398204 10.7775 11.0686 0.023601 24.1678 0.0429949C37.2718 0.0575404 47.9182 10.8357 47.9038 24.0672ZM43.5838 24.0624C43.5934 13.2357 34.8814 4.41633 24.163 4.40663C13.4446 4.39209 4.7134 13.1921 4.7038 24.0188C4.6894 34.8454 13.4014 43.6648 24.1198 43.6794C34.8382 43.6891 43.5694 34.8891 43.5838 24.0624Z" fill="#636261"/>
<path d="M36.3551 21.8713L26.3039 21.8616L26.3183 10.0749C26.3183 8.87248 25.3535 7.89308 24.1583 7.89308C22.9679 7.88824 21.9983 8.86763 21.9983 10.0701L21.9839 24.0385C21.9791 25.2458 22.9487 26.2204 24.1391 26.2252L36.3503 26.2349C37.5455 26.2398 38.5103 25.2604 38.5151 24.0579C38.5151 22.8555 37.5503 21.8761 36.3551 21.8713Z" fill="#636261"/>
</g>
<defs>
<clipPath id="clip0_1350_6006">
<rect width="48" height="48" fill="white"/>
</clipPath>
</defs>
</svg>
