<svg width="43" height="32" viewBox="0 0 43 32" fill="none" xmlns="http://www.w3.org/2000/svg">
<path d="M42.8377 8.70952C42.6142 9.71521 42.3806 10.7086 42.1672 11.712C40.9708 17.475 39.7752 23.2401 38.5803 29.0075C38.3144 30.2836 37.302 30.9507 36.0102 30.7194C35.5331 30.6334 35.0604 30.5317 34.6749 30.4546C34.3553 30.8569 34.1162 31.2368 33.8011 31.5351C33.4111 31.9028 32.8971 31.9821 32.3629 31.9821C29.0315 31.9754 25.7005 31.9754 22.3698 31.9821C15.7223 31.9821 9.07249 31.9586 2.42606 32C0.854959 32.0045 -0.0121627 30.9071 0.000128911 29.5662C0.0366314 22.8215 0.0366314 16.0763 0.000128911 9.33081C-0.00769305 8.02007 0.851606 6.87248 2.41153 6.925C4.08208 6.9831 5.75598 6.93058 7.42876 6.94511C7.72376 6.94511 7.83327 6.86019 7.89025 6.56742C8.20649 4.97062 8.54395 3.37718 8.87694 1.78373C9.15071 0.47858 10.2111 -0.213105 11.5152 0.0584286L37.7992 5.51146C38.8217 5.72265 39.8407 5.94614 40.8677 6.12939C41.8946 6.31265 42.5438 6.88477 42.841 7.87369L42.8377 8.70952ZM17.3537 7.95973H2.46964C1.39803 7.95973 1.03486 8.31954 1.03486 9.38109C1.03486 16.099 1.03486 22.8163 1.03486 29.5327C1.03486 30.5931 1.40361 30.9585 2.46964 30.9585H32.1931C33.2368 30.9585 33.6078 30.5931 33.6078 29.5573V9.36322C33.6078 8.32737 33.2357 7.95973 32.1942 7.95973H17.3537ZM9.35967 4.49572C9.53846 4.54265 9.6569 4.57953 9.7787 4.60746C12.7633 5.22316 15.7457 5.84892 18.7349 6.44339C19.8769 6.66687 21.0021 6.9697 22.1933 6.95629C25.607 6.91941 29.0219 6.93841 32.4356 6.94734C33.7564 6.94734 34.6246 7.84128 34.6369 9.15873C34.6369 9.33751 34.6369 9.5163 34.6369 9.70515L41.2521 11.0606C41.4286 10.1935 41.613 9.35428 41.7672 8.5095C41.8901 7.83905 41.5627 7.35968 40.9034 7.20882C40.2654 7.06244 39.6251 6.9317 38.9848 6.79985C33.7918 5.72712 28.5987 4.65439 23.4057 3.58167C19.345 2.74211 15.285 1.90106 11.2258 1.05852C10.6145 0.932255 10.0771 1.22726 9.93291 1.82172C9.72171 2.6922 9.55298 3.58055 9.35967 4.49348V4.49572ZM34.6525 29.383C35.1587 29.4891 35.6582 29.6065 36.1622 29.697C36.9645 29.8445 37.4126 29.5428 37.5813 28.7393C38.2786 25.4042 38.9744 22.0668 39.6687 18.7272C39.8407 17.9003 40.0117 17.0723 40.1916 16.2052L34.6525 15.1515V29.383ZM34.6403 10.7488C34.6403 11.8383 34.6336 12.8652 34.6537 13.8921C34.6537 13.9804 34.8213 14.1156 34.9308 14.1424C35.5957 14.2899 36.265 14.414 36.9332 14.5414C38.0763 14.7648 39.2195 14.9772 40.3972 15.2006C40.6207 14.1413 40.8274 13.1178 41.0442 12.0663L34.6403 10.7488ZM15.6441 6.92276L15.6698 6.86354L9.15518 5.52263C9.05796 5.99195 8.9641 6.44227 8.86465 6.92053L15.6441 6.92276Z" fill="#1D1D92"/>
<path d="M2.97754 28.9884V28.0286H14.5418V28.9884H2.97754Z" fill="#1D1D92"/>
<path d="M6.64581 15.2365C6.24242 15.2365 5.83903 15.2466 5.43564 15.2365C4.79871 15.2164 4.36738 14.7895 4.34838 14.1548C4.32939 13.5201 4.33162 12.9022 4.34838 12.2764C4.36403 11.6161 4.79535 11.1724 5.44793 11.159C6.25471 11.1374 7.06149 11.1374 7.86827 11.159C8.5309 11.1747 8.95999 11.6127 8.97675 12.2764C8.99351 12.9011 8.99351 13.528 8.97675 14.1537C8.95999 14.8152 8.52978 15.2298 7.85933 15.2454C7.4537 15.2443 7.0492 15.2365 6.64581 15.2365ZM7.94537 12.2061H5.38982V14.185H7.94537V12.2061Z" fill="#1D1D92"/>
<path d="M9.50571 24.6494V25.6227H8.01172V24.6494H9.50571Z" fill="#1D1D92"/>
<path d="M4.46356 25.6238H2.98633V24.6494H4.46356V25.6238Z" fill="#1D1D92"/>
<path d="M10.5039 24.6279H11.9867V25.6124H10.5039V24.6279Z" fill="#1D1D92"/>
<path d="M13.0576 24.6318H14.527V25.6185H13.0576V24.6318Z" fill="#1D1D92"/>
<path d="M6.96399 24.6494V25.6305H5.47559V24.6494H6.96399Z" fill="#1D1D92"/>
<path d="M23.3416 9.91113V11.3638H22.375V9.91113H23.3416Z" fill="#1D1D92"/>
<path d="M25.4426 11.3859H24.4727V9.90527H25.4426V11.3859Z" fill="#1D1D92"/>
<path d="M27.9208 9.89966V11.378H26.9375V9.89966H27.9208Z" fill="#1D1D92"/>
<path d="M30.0281 9.90845V11.3678H29.0537V9.90845H30.0281Z" fill="#1D1D92"/>
</svg>
