<svg width="40" height="34" viewBox="0 0 40 34" fill="none" xmlns="http://www.w3.org/2000/svg">
<path d="M1.70474 19.9366L2.15027 19.7097L1.70474 19.9366ZM1.70475 14.0634L2.15028 14.2903H2.15028L1.70475 14.0634ZM38.5641 19.9366L39.0097 20.1635V20.1635L38.5641 19.9366ZM38.5641 14.0634L39.0097 13.8365V13.8365L38.5641 14.0634ZM2.15027 19.7097C1.28324 18.0075 1.28324 15.9924 2.15028 14.2903L1.25922 13.8364C0.246928 15.8237 0.246927 18.1763 1.25921 20.1635L2.15027 19.7097ZM20.135 32.5C11.5028 32.5 5.62997 26.5409 2.15027 19.7097L1.25921 20.1635C4.81923 27.1525 10.9622 33.5 20.135 33.5V32.5ZM38.1186 19.7096C34.6392 26.5409 28.7672 32.5 20.135 32.5V33.5C29.3079 33.5 35.4499 27.1524 39.0097 20.1635L38.1186 19.7096ZM38.1186 14.2903C38.9856 15.9925 38.9856 18.0075 38.1186 19.7096L39.0097 20.1635C40.0219 18.1762 40.0219 15.8238 39.0097 13.8365L38.1186 14.2903ZM20.135 1.5C28.7672 1.5 34.6392 7.45911 38.1186 14.2903L39.0097 13.8365C35.4499 6.84758 29.3079 0.5 20.135 0.5V1.5ZM2.15028 14.2903C5.62997 7.45912 11.5028 1.5 20.135 1.5V0.5C10.9622 0.5 4.81924 6.84753 1.25922 13.8364L2.15028 14.2903ZM24.3403 17C24.3403 19.3228 22.4572 21.2059 20.1344 21.2059V22.2059C23.0095 22.2059 25.3403 19.8751 25.3403 17H24.3403ZM20.1344 12.7941C22.4572 12.7941 24.3403 14.6772 24.3403 17H25.3403C25.3403 14.1249 23.0095 11.7941 20.1344 11.7941V12.7941ZM15.9285 17C15.9285 14.6772 17.8116 12.7941 20.1344 12.7941V11.7941C17.2593 11.7941 14.9285 14.1249 14.9285 17H15.9285ZM20.1344 21.2059C17.8116 21.2059 15.9285 19.3228 15.9285 17H14.9285C14.9285 19.8751 17.2593 22.2059 20.1344 22.2059V21.2059Z" fill="#1D1D92"/>
</svg>
