<svg width="1440" height="413" viewBox="0 0 1440 413" fill="none" xmlns="http://www.w3.org/2000/svg">
<rect width="1440" height="413" transform="matrix(-1 0 0 1 1440 0)" fill="#012245"/>
<path d="M1168 0H1215.37V134.21C1215.37 147.291 1204.76 157.895 1191.68 157.895C1178.6 157.895 1168 147.291 1168 134.21V0Z" fill="#02274F"/>
<path d="M1270.63 0H1318V86.842C1318 99.9224 1307.4 110.526 1294.32 110.526C1281.24 110.526 1270.63 99.9225 1270.63 86.842V0Z" fill="#02274F"/>
<rect x="1168" width="150" height="75" fill="#02274F"/>
<path d="M1270.63 131.316L1215.37 131.316L1215.37 48.4213C1215.37 33.1608 1227.74 20.7897 1243 20.7897C1258.26 20.7897 1270.63 33.1608 1270.63 48.4213L1270.63 131.316Z" fill="#012245"/>
<path d="M338 0H364.211V74.2631C364.211 81.501 358.343 87.3684 351.105 87.3684C343.867 87.3684 338 81.501 338 74.2631V0Z" fill="#02274F"/>
<path d="M394.79 0H421V48.0526C421 55.2904 415.133 61.1579 407.895 61.1579C400.657 61.1579 394.79 55.2904 394.79 48.0526V0Z" fill="#02274F"/>
<rect x="338" width="82.9999" height="41.5" fill="#02274F"/>
<path d="M394.79 72.6614L364.211 72.6614L364.211 26.793C364.211 18.3489 371.056 11.5035 379.5 11.5035C387.944 11.5035 394.79 18.3488 394.79 26.793L394.79 72.6614Z" fill="#012245"/>
<path d="M915 413L888.789 413L888.789 338.737C888.789 331.499 894.657 325.632 901.895 325.632C909.133 325.632 915 331.499 915 338.737L915 413Z" fill="#02274F"/>
<path d="M858.21 413L832 413L832 364.947C832 357.71 837.867 351.842 845.105 351.842C852.343 351.842 858.21 357.71 858.21 364.947L858.21 413Z" fill="#02274F"/>
<rect x="915" y="413" width="82.9999" height="41.5" transform="rotate(-180 915 413)" fill="#02274F"/>
<path d="M858.21 340.339L888.789 340.339L888.789 386.207C888.789 394.651 881.944 401.496 873.5 401.496C865.056 401.496 858.21 394.651 858.21 386.207L858.21 340.339Z" fill="#012245"/>
<path d="M120 413L164.526 413L164.526 286.842C164.526 274.547 154.559 264.579 142.263 264.579C129.968 264.579 120 274.547 120 286.842L120 413Z" fill="#02274F"/>
<path d="M216.474 413L261 413L261 331.368C261 319.073 251.032 309.105 238.737 309.105C226.441 309.105 216.474 319.073 216.474 331.368L216.474 413Z" fill="#02274F"/>
<rect width="141" height="70.5" transform="matrix(1 -8.74228e-08 -8.74228e-08 -1 120 413)" fill="#02274F"/>
<path d="M216.474 289.563L164.526 289.563L164.526 367.484C164.526 381.829 176.155 393.458 190.5 393.458C204.845 393.458 216.474 381.829 216.474 367.484L216.474 289.563Z" fill="#012245"/>
</svg>
