<svg width="76" height="68" viewBox="0 0 76 68" fill="none" xmlns="http://www.w3.org/2000/svg">
<path d="M45.2236 56.9188C44.8516 55.135 43.8303 53.553 42.3579 52.4795C40.8855 51.406 39.0669 50.9176 37.2548 51.109C35.4427 51.3003 33.7663 52.1579 32.5506 53.5152C31.3349 54.8726 30.6666 56.6331 30.6754 58.4552C30.6841 60.2774 31.3693 62.0314 32.5979 63.377C33.8266 64.7226 35.5112 65.564 37.325 65.738C39.1389 65.912 40.9527 65.4061 42.4147 64.3185C43.8768 63.231 44.8828 61.6392 45.2377 59.8519H56.5479V56.9188H45.2236ZM38.0269 62.8742C37.1451 62.8742 36.2831 62.6128 35.55 62.1229C34.8168 61.633 34.2453 60.9367 33.9079 60.122C33.5704 59.3074 33.4822 58.4109 33.6542 57.5461C33.8262 56.6812 34.2508 55.8868 34.8743 55.2633C35.4979 54.6398 36.2923 54.2152 37.1571 54.0432C38.022 53.8711 38.9184 53.9594 39.733 54.2969C40.5477 54.6343 41.244 55.2058 41.7339 55.9389C42.2238 56.6721 42.4853 57.5341 42.4853 58.4159C42.4853 59.5983 42.0156 60.7323 41.1794 61.5684C40.3433 62.4045 39.2093 62.8742 38.0269 62.8742Z" fill="white"/>
<path d="M28.4672 28.6645L34.3335 18.4008C36.4927 19.2203 38.8761 19.227 41.0398 18.4196L48.0442 30.4197C46.9167 31.3962 46.1861 32.752 45.9904 34.2306C45.7946 35.7093 46.1474 37.2085 46.9819 38.4447C47.8165 39.681 49.075 40.5687 50.5196 40.9401C51.9642 41.3114 53.4948 41.1407 54.8221 40.4602C56.1494 39.7796 57.1814 38.6364 57.723 37.2467C58.2646 35.8569 58.2784 34.3169 57.7617 32.9177C57.2449 31.5185 56.2335 30.357 54.9186 29.6529C53.6037 28.9488 52.0764 28.7507 50.6253 29.0962L43.6468 16.9319C45.1841 15.7 46.301 14.021 46.843 12.127C47.385 10.233 47.3254 8.21741 46.6726 6.3587C46.0197 4.49999 44.8058 2.88989 43.1984 1.75084C41.591 0.611785 39.6696 0 37.6996 0C35.7295 0 33.8081 0.611785 32.2008 1.75084C30.5934 2.88989 29.3794 4.49999 28.7266 6.3587C28.0737 8.21741 28.0142 10.233 28.5562 12.127C29.0982 14.021 30.215 15.7 31.7523 16.9319L25.5247 27.564C25.1512 27.5072 24.7738 27.479 24.396 27.4795C22.9236 27.4789 21.4831 27.9087 20.2517 28.716C19.0203 29.5234 18.0517 30.673 17.465 32.0235C16.8784 33.3741 16.6993 34.8666 16.9497 36.3176C17.2002 37.7686 17.8693 39.1148 18.8747 40.1905L13.1586 49.6024C10.94 48.6909 8.45934 48.6498 6.2118 49.4872C3.96427 50.3246 2.11531 51.979 1.03411 54.1199C-0.0470819 56.2609 -0.280943 58.7309 0.379227 61.0367C1.0394 63.3426 2.54501 65.3145 4.59544 66.5589C6.64587 67.8032 9.09021 68.2284 11.4404 67.7495C13.7906 67.2706 15.8736 65.9228 17.2736 63.9753C18.6736 62.0278 19.2875 59.6239 18.9927 57.2436C18.6979 54.8633 17.5162 52.6818 15.6834 51.1347L21.2564 41.9058C22.9969 42.7072 24.9768 42.8174 26.7955 42.2141C28.6142 41.6108 30.1357 40.339 31.0521 38.6562C31.9685 36.9734 32.2113 35.0053 31.7314 33.1502C31.2515 31.2952 30.0847 29.6917 28.4672 28.6645ZM55.7361 35.0376C55.7365 35.77 55.5198 36.4862 55.1132 37.0954C54.7066 37.7046 54.1284 38.1796 53.4519 38.4602C52.7753 38.7408 52.0307 38.8145 51.3123 38.6719C50.5939 38.5293 49.9339 38.1768 49.4158 37.6591C48.8977 37.1413 48.5448 36.4815 48.4018 35.7632C48.2587 35.0449 48.3319 34.3002 48.6121 33.6235C48.8923 32.9468 49.3669 32.3683 49.9758 31.9613C50.5848 31.5544 51.3008 31.3372 52.0333 31.3372C53.0141 31.3396 53.9539 31.7312 54.6463 32.4258C55.3387 33.1205 55.7273 34.0615 55.7267 35.0423L55.7361 35.0376ZM24.4101 39.6157C23.5046 39.6157 22.6195 39.3471 21.8667 38.8441C21.1138 38.3411 20.527 37.6261 20.1805 36.7895C19.834 35.953 19.7434 35.0325 19.92 34.1445C20.0967 33.2564 20.5327 32.4407 21.1729 31.8004C21.8132 31.1602 22.6289 30.7242 23.517 30.5475C24.405 30.3709 25.3255 30.4615 26.162 30.808C26.9986 31.1545 27.7136 31.7413 28.2166 32.4942C28.7197 33.247 28.9881 34.1322 28.9881 35.0376C28.9888 35.64 28.8705 36.2366 28.6401 36.7932C28.4097 37.3497 28.0718 37.8554 27.6456 38.2811C27.2194 38.7069 26.7135 39.0443 26.1566 39.2741C25.5998 39.5039 25.0031 39.6216 24.4007 39.6203L24.4101 39.6157Z" fill="white"/>
<path d="M65.6784 67.924C70.9309 67.924 75.1888 63.666 75.1888 58.4136C75.1888 53.1611 70.9309 48.9032 65.6784 48.9032C60.4259 48.9032 56.168 53.1611 56.168 58.4136C56.168 63.666 60.4259 67.924 65.6784 67.924Z" fill="#F89822"/>
</svg>
