<svg width="88" height="92" viewBox="0 0 88 92" fill="none" xmlns="http://www.w3.org/2000/svg">
<path d="M51.2232 56.9188C50.8511 55.135 49.8298 53.553 48.3574 52.4795C46.885 51.406 45.0664 50.9176 43.2543 51.109C41.4422 51.3003 39.7658 52.1579 38.5501 53.5152C37.3344 54.8726 36.6661 56.6331 36.6749 58.4552C36.6836 60.2774 37.3688 62.0314 38.5974 63.377C39.8261 64.7226 41.5107 65.564 43.3245 65.738C45.1384 65.912 46.9522 65.4061 48.4142 64.3185C49.8763 63.231 50.8823 61.6392 51.2372 59.8519H62.5474V56.9188H51.2232ZM44.0264 62.8742C43.1446 62.8742 42.2826 62.6128 41.5495 62.1229C40.8163 61.633 40.2448 60.9367 39.9074 60.122C39.57 59.3074 39.4817 58.4109 39.6537 57.5461C39.8257 56.6812 40.2503 55.8868 40.8739 55.2633C41.4974 54.6398 42.2918 54.2152 43.1566 54.0432C44.0215 53.8711 44.9179 53.9594 45.7326 54.2969C46.5472 54.6343 47.2435 55.2058 47.7334 55.9389C48.2233 56.6721 48.4848 57.5341 48.4848 58.4159C48.4848 59.5983 48.0151 60.7323 47.179 61.5684C46.3429 62.4045 45.2088 62.8742 44.0264 62.8742Z" fill="white"/>
<path d="M34.4667 28.6645L40.333 18.4008C42.4922 19.2203 44.8756 19.227 47.0394 18.4196L54.0437 30.4197C52.9162 31.3962 52.1856 32.752 51.9899 34.2306C51.7941 35.7093 52.1469 37.2085 52.9814 38.4447C53.816 39.681 55.0745 40.5687 56.5191 40.9401C57.9637 41.3114 59.4943 41.1407 60.8216 40.4602C62.1489 39.7796 63.1809 38.6364 63.7225 37.2467C64.2642 35.8569 64.2779 34.3169 63.7612 32.9177C63.2444 31.5185 62.233 30.357 60.9181 29.6529C59.6032 28.9488 58.0759 28.7507 56.6249 29.0962L49.6463 16.9319C51.1837 15.7 52.3005 14.021 52.8425 12.127C53.3845 10.233 53.325 8.21741 52.6721 6.3587C52.0192 4.49999 50.8053 2.88989 49.1979 1.75084C47.5905 0.611785 45.6691 0 43.6991 0C41.7291 0 39.8076 0.611785 38.2003 1.75084C36.5929 2.88989 35.379 4.49999 34.7261 6.3587C34.0732 8.21741 34.0137 10.233 34.5557 12.127C35.0977 14.021 36.2145 15.7 37.7519 16.9319L31.5242 27.564C31.1507 27.5072 30.7734 27.479 30.3955 27.4795C28.9231 27.4789 27.4826 27.9087 26.2512 28.716C25.0198 29.5234 24.0512 30.673 23.4646 32.0235C22.8779 33.3741 22.6988 34.8666 22.9492 36.3176C23.1997 37.7686 23.8688 39.1148 24.8742 40.1905L19.1581 49.6024C16.9396 48.6909 14.4588 48.6498 12.2113 49.4872C9.96378 50.3246 8.11482 51.979 7.03363 54.1199C5.95243 56.2609 5.71857 58.7309 6.37874 61.0367C7.03891 63.3426 8.54452 65.3145 10.595 66.5589C12.6454 67.8032 15.0897 68.2284 17.4399 67.7495C19.7901 67.2706 21.8731 65.9228 23.2731 63.9753C24.6731 62.0278 25.287 59.6239 24.9922 57.2436C24.6974 54.8633 23.5157 52.6818 21.6829 51.1347L27.2559 41.9058C28.9964 42.7072 30.9764 42.8174 32.795 42.2141C34.6137 41.6108 36.1352 40.339 37.0516 38.6562C37.968 36.9734 38.2108 35.0053 37.7309 33.1502C37.251 31.2952 36.0842 29.6917 34.4667 28.6645ZM61.7356 35.0376C61.736 35.77 61.5193 36.4862 61.1127 37.0954C60.7061 37.7046 60.1279 38.1796 59.4514 38.4602C58.7748 38.7408 58.0303 38.8145 57.3118 38.6719C56.5934 38.5293 55.9334 38.1768 55.4153 37.6591C54.8972 37.1413 54.5443 36.4815 54.4013 35.7632C54.2582 35.0449 54.3314 34.3002 54.6116 33.6235C54.8918 32.9468 55.3664 32.3683 55.9754 31.9613C56.5843 31.5544 57.3003 31.3372 58.0328 31.3372C59.0136 31.3396 59.9534 31.7312 60.6458 32.4258C61.3383 33.1205 61.7268 34.0615 61.7262 35.0423L61.7356 35.0376ZM30.4096 39.6157C29.5042 39.6157 28.619 39.3471 27.8662 38.8441C27.1133 38.3411 26.5265 37.6261 26.18 36.7895C25.8335 35.953 25.7429 35.0325 25.9195 34.1445C26.0962 33.2564 26.5322 32.4407 27.1724 31.8004C27.8127 31.1602 28.6284 30.7242 29.5165 30.5475C30.4045 30.3709 31.325 30.4615 32.1616 30.808C32.9981 31.1545 33.7131 31.7413 34.2161 32.4942C34.7192 33.247 34.9877 34.1322 34.9877 35.0376C34.9883 35.64 34.87 36.2366 34.6396 36.7932C34.4092 37.3497 34.0713 37.8554 33.6451 38.2811C33.219 38.7069 32.713 39.0443 32.1561 39.2741C31.5993 39.5039 31.0026 39.6216 30.4002 39.6203L30.4096 39.6157Z" fill="white"/>
<path d="M71.6774 67.924C76.9299 67.924 81.1878 63.6661 81.1878 58.4136C81.1878 53.1612 76.9299 48.9032 71.6774 48.9032C66.425 48.9032 62.167 53.1612 62.167 58.4136C62.167 63.6661 66.425 67.924 71.6774 67.924Z" fill="#F89822"/>
<path d="M7.08348 85.1297H2.90257L2.21077 87.1299H0L3.77485 76.6174H6.22624L10.0011 87.1299H7.77528L7.08348 85.1297ZM6.51199 83.4453L4.99302 79.0538L3.47406 83.4453H6.51199Z" fill="white"/>
<path d="M21.7591 78.6778C22.7817 78.6778 23.6039 78.9936 24.2255 79.6253C24.8571 80.2469 25.173 81.1192 25.173 82.2421V87.1299H23.0675V82.5279C23.0675 81.8762 22.902 81.3799 22.5712 81.039C22.2403 80.6881 21.7891 80.5126 21.2177 80.5126C20.6462 80.5126 20.19 80.6881 19.8491 81.039C19.5182 81.3799 19.3528 81.8762 19.3528 82.5279V87.1299H17.2473V82.5279C17.2473 81.8762 17.0819 81.3799 16.751 81.039C16.4201 80.6881 15.969 80.5126 15.3975 80.5126C14.816 80.5126 14.3548 80.6881 14.0139 81.039C13.683 81.3799 13.5176 81.8762 13.5176 82.5279V87.1299H11.4121V78.7981H13.5176V79.8058C13.7883 79.4549 14.1342 79.1791 14.5553 78.9786C14.9864 78.7781 15.4576 78.6778 15.969 78.6778C16.6207 78.6778 17.2022 78.8182 17.7135 79.0989C18.2248 79.3696 18.6209 79.7606 18.9016 80.272C19.1723 79.7907 19.5633 79.4047 20.0747 79.114C20.596 78.8232 21.1575 78.6778 21.7591 78.6778Z" fill="white"/>
<path d="M28.2387 77.8055C27.8678 77.8055 27.557 77.6902 27.3063 77.4596C27.0657 77.219 26.9454 76.9232 26.9454 76.5723C26.9454 76.2214 27.0657 75.9307 27.3063 75.7001C27.557 75.4594 27.8678 75.3391 28.2387 75.3391C28.6097 75.3391 28.9155 75.4594 29.1561 75.7001C29.4068 75.9307 29.5321 76.2214 29.5321 76.5723C29.5321 76.9232 29.4068 77.219 29.1561 77.4596C28.9155 77.6902 28.6097 77.8055 28.2387 77.8055ZM29.2764 78.7981V87.1299H27.171V78.7981H29.2764Z" fill="white"/>
<path d="M35.9737 78.6778C36.9663 78.6778 37.7684 78.9936 38.38 79.6253C38.9916 80.2469 39.2974 81.1192 39.2974 82.2421V87.1299H37.1919V82.5279C37.1919 81.8661 37.0265 81.3598 36.6956 81.0089C36.3647 80.648 35.9136 80.4675 35.3421 80.4675C34.7606 80.4675 34.2994 80.648 33.9585 81.0089C33.6276 81.3598 33.4622 81.8661 33.4622 82.5279V87.1299H31.3567V78.7981H33.4622V79.8358C33.7429 79.4749 34.0988 79.1942 34.53 78.9936C34.9711 78.7831 35.4524 78.6778 35.9737 78.6778Z" fill="white"/>
<path d="M47.8717 76.6475V77.7604H45.0143V87.1299H43.6457V77.7604H40.7732V76.6475H47.8717Z" fill="white"/>
<path d="M53.1508 87.2652C52.3787 87.2652 51.6769 87.0898 51.0453 86.7389C50.4236 86.3879 49.9324 85.8916 49.5714 85.25C49.2205 84.5983 49.045 83.8463 49.045 82.9941C49.045 82.1519 49.2255 81.41 49.5865 80.7683C49.9574 80.1166 50.4587 79.6203 51.0904 79.2794C51.722 78.9285 52.4289 78.753 53.2109 78.753C53.993 78.753 54.6998 78.9285 55.3314 79.2794C55.9631 79.6203 56.4594 80.1116 56.8203 80.7532C57.1913 81.3949 57.3768 82.1419 57.3768 82.9941C57.3768 83.8463 57.1863 84.5983 56.8053 85.25C56.4343 85.8916 55.928 86.3879 55.2863 86.7389C54.6447 87.0898 53.9328 87.2652 53.1508 87.2652ZM53.1508 86.0621C53.642 86.0621 54.1032 85.9468 54.5344 85.7162C54.9655 85.4856 55.3114 85.1397 55.5721 84.6785C55.8428 84.2173 55.9781 83.6558 55.9781 82.9941C55.9781 82.3324 55.8478 81.7709 55.5871 81.3097C55.3264 80.8485 54.9855 80.5076 54.5644 80.287C54.1433 80.0564 53.6872 79.9411 53.1959 79.9411C52.6946 79.9411 52.2334 80.0564 51.8123 80.287C51.4012 80.5076 51.0703 80.8485 50.8197 81.3097C50.569 81.7709 50.4437 82.3324 50.4437 82.9941C50.4437 83.6658 50.564 84.2323 50.8046 84.6935C51.0553 85.1547 51.3862 85.5006 51.7972 85.7312C52.2083 85.9518 52.6595 86.0621 53.1508 86.0621Z" fill="white"/>
<path d="M60.5448 80.4073C60.8155 79.9361 61.2165 79.5451 61.7479 79.2343C62.2893 78.9134 62.916 78.753 63.6278 78.753C64.3597 78.753 65.0215 78.9285 65.613 79.2794C66.2146 79.6303 66.6858 80.1266 67.0267 80.7683C67.3676 81.3999 67.538 82.1368 67.538 82.979C67.538 83.8112 67.3676 84.5532 67.0267 85.2049C66.6858 85.8566 66.2146 86.3629 65.613 86.7238C65.0215 87.0848 64.3597 87.2652 63.6278 87.2652C62.926 87.2652 62.3044 87.1098 61.763 86.799C61.2316 86.4782 60.8255 86.0821 60.5448 85.6109V91.0401H59.1762V78.8884H60.5448V80.4073ZM66.1394 82.979C66.1394 82.3574 66.014 81.816 65.7634 81.3548C65.5127 80.8936 65.1718 80.5427 64.7407 80.3021C64.3196 80.0614 63.8534 79.9411 63.3421 79.9411C62.8408 79.9411 62.3745 80.0664 61.9434 80.3171C61.5223 80.5577 61.1814 80.9137 60.9208 81.3849C60.6701 81.8461 60.5448 82.3825 60.5448 82.9941C60.5448 83.6157 60.6701 84.1621 60.9208 84.6334C61.1814 85.0946 61.5223 85.4505 61.9434 85.7012C62.3745 85.9418 62.8408 86.0621 63.3421 86.0621C63.8534 86.0621 64.3196 85.9418 64.7407 85.7012C65.1718 85.4505 65.5127 85.0946 65.7634 84.6334C66.014 84.1621 66.1394 83.6107 66.1394 82.979Z" fill="white"/>
<path d="M76.6485 78.8884V87.1299H75.2799V85.9117C75.0193 86.3328 74.6533 86.6637 74.1821 86.9043C73.7209 87.1349 73.2095 87.2502 72.6481 87.2502C72.0064 87.2502 71.4299 87.1199 70.9186 86.8592C70.4072 86.5885 70.0012 86.1874 69.7004 85.656C69.4096 85.1246 69.2642 84.478 69.2642 83.716V78.8884H70.6178V83.5355C70.6178 84.3476 70.8233 84.9743 71.2344 85.4154C71.6455 85.8465 72.2069 86.0621 72.9188 86.0621C73.6507 86.0621 74.2272 85.8365 74.6483 85.3853C75.0694 84.9341 75.2799 84.2774 75.2799 83.4152V78.8884H76.6485Z" fill="white"/>
<path d="M80.3278 80.4073C80.5985 79.9361 80.9996 79.5451 81.531 79.2343C82.0724 78.9134 82.699 78.753 83.4109 78.753C84.1428 78.753 84.8045 78.9285 85.396 79.2794C85.9976 79.6303 86.4688 80.1266 86.8097 80.7683C87.1506 81.3999 87.3211 82.1368 87.3211 82.979C87.3211 83.8112 87.1506 84.5532 86.8097 85.2049C86.4688 85.8566 85.9976 86.3629 85.396 86.7238C84.8045 87.0848 84.1428 87.2652 83.4109 87.2652C82.709 87.2652 82.0874 87.1098 81.546 86.799C81.0146 86.4782 80.6086 86.0821 80.3278 85.6109V91.0401H78.9593V78.8884H80.3278V80.4073ZM85.9224 82.979C85.9224 82.3574 85.7971 81.816 85.5464 81.3548C85.2958 80.8936 84.9549 80.5427 84.5238 80.3021C84.1027 80.0614 83.6365 79.9411 83.1251 79.9411C82.6238 79.9411 82.1576 80.0664 81.7265 80.3171C81.3054 80.5577 80.9645 80.9137 80.7038 81.3849C80.4531 81.8461 80.3278 82.3825 80.3278 82.9941C80.3278 83.6157 80.4531 84.1621 80.7038 84.6334C80.9645 85.0946 81.3054 85.4505 81.7265 85.7012C82.1576 85.9418 82.6238 86.0621 83.1251 86.0621C83.6365 86.0621 84.1027 85.9418 84.5238 85.7012C84.9549 85.4505 85.2958 85.0946 85.5464 84.6334C85.7971 84.1621 85.9224 83.6107 85.9224 82.979Z" fill="white"/>
</svg>
