<svg width="1440" height="858" viewBox="0 0 1440 858" fill="none" xmlns="http://www.w3.org/2000/svg">
<mask id="path-1-inside-1_70_131" fill="white">
<path fill-rule="evenodd" clip-rule="evenodd" d="M-402.375 0.00340716C-666.227 -0.538043 -785 63.6234 -785 71.4744V111H-721.229H-402.375H-283V747H-589.229H-653V822.803L-589.229 817.93C-261.139 767.093 -96.644 796.128 20.1843 816.75C53.9166 822.704 83.675 827.957 112.25 830.383C239.792 840.67 367.333 844.46 494.875 839.587C622.417 834.173 749.958 819.554 877.5 798.979C1005.04 778.404 1101.5 775.426 1260.12 777.592C1418.75 779.758 1629.2 812.515 1629.2 812.515C1629.2 812.515 1874.72 857.997 2025.38 857.997C2289.23 858.538 2408 794.377 2408 786.526V747H2344.23H2025.38H1844V111H1893.38H2212.23H2276V35.1974L2212.23 40.0705C1884.14 90.9071 1719.64 61.8718 1602.82 41.2502C1569.08 35.2961 1539.32 30.0434 1510.75 27.6172C1383.21 17.3297 1255.67 13.5396 1128.12 18.4126C1000.58 23.8271 873.042 38.4461 745.5 59.0211C617.958 79.5961 521.505 82.574 362.875 80.4083C204.245 78.2425 -6.19867 45.4849 -6.19867 45.4849C-6.19867 45.4849 -251.716 0.00340716 -402.375 0.00340716Z"/>
</mask>
<path fill-rule="evenodd" clip-rule="evenodd" d="M-402.375 0.00340716C-666.227 -0.538043 -785 63.6234 -785 71.4744V111H-721.229H-402.375H-283V747H-589.229H-653V822.803L-589.229 817.93C-261.139 767.093 -96.644 796.128 20.1843 816.75C53.9166 822.704 83.675 827.957 112.25 830.383C239.792 840.67 367.333 844.46 494.875 839.587C622.417 834.173 749.958 819.554 877.5 798.979C1005.04 778.404 1101.5 775.426 1260.12 777.592C1418.75 779.758 1629.2 812.515 1629.2 812.515C1629.2 812.515 1874.72 857.997 2025.38 857.997C2289.23 858.538 2408 794.377 2408 786.526V747H2344.23H2025.38H1844V111H1893.38H2212.23H2276V35.1974L2212.23 40.0705C1884.14 90.9071 1719.64 61.8718 1602.82 41.2502C1569.08 35.2961 1539.32 30.0434 1510.75 27.6172C1383.21 17.3297 1255.67 13.5396 1128.12 18.4126C1000.58 23.8271 873.042 38.4461 745.5 59.0211C617.958 79.5961 521.505 82.574 362.875 80.4083C204.245 78.2425 -6.19867 45.4849 -6.19867 45.4849C-6.19867 45.4849 -251.716 0.00340716 -402.375 0.00340716Z" fill="#FFF8F9"/>
<path d="M-783.5 71.4744C-783.5 70.6459 -784.172 69.9744 -785 69.9744C-785.828 69.9744 -786.5 70.6459 -786.5 71.4744H-783.5ZM-402.378 1.5034C-401.55 1.5051 -400.877 0.834907 -400.875 0.00648207C-400.873 -0.821943 -401.543 -1.49489 -402.372 -1.49659L-402.378 1.5034ZM-785 109.5C-785.828 109.5 -786.5 110.172 -786.5 111C-786.5 111.828 -785.828 112.5 -785 112.5V109.5ZM-721.229 109.5C-722.058 109.5 -722.729 110.172 -722.729 111C-722.729 111.828 -722.058 112.5 -721.229 112.5V109.5ZM-402.375 109.5C-403.203 109.5 -403.875 110.172 -403.875 111C-403.875 111.828 -403.203 112.5 -402.375 112.5V109.5ZM-281.5 111C-281.5 110.172 -282.172 109.5 -283 109.5C-283.828 109.5 -284.5 110.172 -284.5 111H-281.5ZM-283 748.5C-282.172 748.5 -281.5 747.828 -281.5 747C-281.5 746.172 -282.172 745.5 -283 745.5V748.5ZM-589.229 748.5C-588.401 748.5 -587.729 747.828 -587.729 747C-587.729 746.172 -588.401 745.5 -589.229 745.5V748.5ZM-651.5 747C-651.5 746.172 -652.172 745.5 -653 745.5C-653.828 745.5 -654.5 746.172 -654.5 747H-651.5ZM-653.114 821.307C-653.94 821.37 -654.559 822.091 -654.496 822.917C-654.433 823.743 -653.712 824.361 -652.886 824.298L-653.114 821.307ZM-589.459 816.447C-590.278 816.574 -590.838 817.341 -590.712 818.159C-590.585 818.978 -589.818 819.539 -589 819.412L-589.459 816.447ZM20.4451 815.273C19.6293 815.129 18.8512 815.673 18.7072 816.489C18.5632 817.305 19.1078 818.083 19.9236 818.227L20.4451 815.273ZM112.371 828.888C111.545 828.821 110.821 829.436 110.755 830.262C110.688 831.088 111.304 831.811 112.129 831.878L112.371 828.888ZM494.811 838.089C493.984 838.124 493.341 838.823 493.376 839.651C493.411 840.479 494.111 841.121 494.939 841.086L494.811 838.089ZM877.261 797.498C876.443 797.63 875.887 798.4 876.019 799.218C876.151 800.036 876.921 800.592 877.739 800.46L877.261 797.498ZM1260.15 776.092C1259.32 776.081 1258.64 776.743 1258.63 777.571C1258.61 778.4 1259.28 779.08 1260.1 779.092L1260.15 776.092ZM1629.47 811.04C1628.66 810.889 1627.87 811.427 1627.72 812.242C1627.57 813.056 1628.11 813.839 1628.93 813.99L1629.47 811.04ZM2025.38 856.497C2024.55 856.495 2023.88 857.165 2023.88 857.994C2023.87 858.822 2024.54 859.495 2025.37 859.497L2025.38 856.497ZM2406.5 786.526C2406.5 787.354 2407.17 788.026 2408 788.026C2408.83 788.026 2409.5 787.354 2409.5 786.526H2406.5ZM2408 748.5C2408.83 748.5 2409.5 747.828 2409.5 747C2409.5 746.172 2408.83 745.5 2408 745.5V748.5ZM2344.23 748.5C2345.06 748.5 2345.73 747.828 2345.73 747C2345.73 746.172 2345.06 745.5 2344.23 745.5V748.5ZM2025.38 748.5C2026.2 748.5 2026.88 747.828 2026.88 747C2026.88 746.172 2026.2 745.5 2025.38 745.5V748.5ZM1844 747H1842.5V748.5H1844V747ZM1844 109.5C1843.17 109.5 1842.5 110.172 1842.5 111C1842.5 111.828 1843.17 112.5 1844 112.5V109.5ZM1893.38 109.5C1892.55 109.5 1891.88 110.172 1891.88 111C1891.88 111.828 1892.55 112.5 1893.38 112.5V109.5ZM2212.23 109.5C2211.4 109.5 2210.73 110.172 2210.73 111C2210.73 111.828 2211.4 112.5 2212.23 112.5V109.5ZM2274.5 111C2274.5 111.828 2275.17 112.5 2276 112.5C2276.83 112.5 2277.5 111.828 2277.5 111H2274.5ZM2276.11 36.6931C2276.94 36.63 2277.56 35.9092 2277.5 35.0832C2277.43 34.2571 2276.71 33.6387 2275.89 33.7018L2276.11 36.6931ZM2212.46 41.5528C2213.28 41.4259 2213.84 40.6594 2213.71 39.8408C2213.58 39.0221 2212.82 38.4613 2212 38.5882L2212.46 41.5528ZM1602.55 42.7274C1603.37 42.8714 1604.15 42.3267 1604.29 41.5109C1604.44 40.6951 1603.89 39.917 1603.08 39.773L1602.55 42.7274ZM1510.63 29.1123C1511.46 29.1789 1512.18 28.5635 1512.25 27.7378C1512.31 26.912 1511.7 26.1886 1510.87 26.122L1510.63 29.1123ZM1128.19 19.9112C1129.02 19.8761 1129.66 19.1767 1129.62 18.349C1129.59 17.5213 1128.89 16.8788 1128.06 16.9139L1128.19 19.9112ZM745.739 60.502C746.557 60.37 747.113 59.6001 746.981 58.7822C746.849 57.9644 746.079 57.4083 745.261 57.5402L745.739 60.502ZM362.854 81.9081C363.683 81.9194 364.364 81.2571 364.375 80.4287C364.386 79.6004 363.724 78.9197 362.896 78.9084L362.854 81.9081ZM-6.47186 46.9598C-5.65735 47.1107 -4.87463 46.5727 -4.72375 45.7582C-4.57288 44.9436 -5.1109 44.1609 -5.92548 44.01L-6.47186 46.9598ZM-786.5 91.2372C-786.5 92.0656 -785.828 92.7372 -785 92.7372C-784.172 92.7372 -783.5 92.0656 -783.5 91.2372H-786.5ZM-753.115 112.5C-752.286 112.5 -751.615 111.828 -751.615 111C-751.615 110.172 -752.286 109.5 -753.115 109.5V112.5ZM-668.087 112.5C-667.258 112.5 -666.587 111.828 -666.587 111C-666.587 110.172 -667.258 109.5 -668.087 109.5V112.5ZM-561.802 109.5C-562.631 109.5 -563.302 110.172 -563.302 111C-563.302 111.828 -562.631 112.5 -561.802 112.5V109.5ZM-455.517 112.5C-454.689 112.5 -454.017 111.828 -454.017 111C-454.017 110.172 -454.689 109.5 -455.517 109.5V112.5ZM-342.688 112.5C-341.859 112.5 -341.188 111.828 -341.188 111C-341.188 110.172 -341.859 109.5 -342.688 109.5V112.5ZM-284.5 174.6C-284.5 175.428 -283.828 176.1 -283 176.1C-282.172 176.1 -281.5 175.428 -281.5 174.6H-284.5ZM-281.5 301.8C-281.5 300.972 -282.172 300.3 -283 300.3C-283.828 300.3 -284.5 300.972 -284.5 301.8H-281.5ZM-284.5 429C-284.5 429.828 -283.828 430.5 -283 430.5C-282.172 430.5 -281.5 429.828 -281.5 429H-284.5ZM-281.5 556.2C-281.5 555.372 -282.172 554.7 -283 554.7C-283.828 554.7 -284.5 555.372 -284.5 556.2H-281.5ZM-284.5 683.4C-284.5 684.228 -283.828 684.9 -283 684.9C-282.172 684.9 -281.5 684.228 -281.5 683.4H-284.5ZM-334.038 745.5C-334.867 745.5 -335.538 746.172 -335.538 747C-335.538 747.828 -334.867 748.5 -334.038 748.5V745.5ZM-436.115 748.5C-435.286 748.5 -434.615 747.828 -434.615 747C-434.615 746.172 -435.286 745.5 -436.115 745.5V748.5ZM-538.191 745.5C-539.019 745.5 -539.691 746.172 -539.691 747C-539.691 747.828 -539.019 748.5 -538.191 748.5V745.5ZM-621.115 745.5C-621.943 745.5 -622.615 746.172 -622.615 747C-622.615 747.828 -621.943 748.5 -621.115 748.5V745.5ZM-654.5 784.901C-654.5 785.73 -653.828 786.401 -653 786.401C-652.172 786.401 -651.5 785.73 -651.5 784.901H-654.5ZM-621 821.862C-620.174 821.799 -619.556 821.078 -619.619 820.252C-619.682 819.426 -620.403 818.807 -621.229 818.87L-621 821.862ZM-528.375 810.662C-527.554 810.552 -526.977 809.798 -527.086 808.977C-527.196 808.155 -527.95 807.578 -528.771 807.688L-528.375 810.662ZM-406.799 794.446C-407.625 794.514 -408.239 795.238 -408.172 796.063C-408.104 796.889 -407.38 797.504 -406.554 797.436L-406.799 794.446ZM-284.371 791.3C-283.543 791.286 -282.882 790.604 -282.895 789.776C-282.909 788.948 -283.591 788.287 -284.419 788.3L-284.371 791.3ZM-161.78 791.287C-162.606 791.231 -163.322 791.856 -163.378 792.683C-163.433 793.509 -162.809 794.225 -161.982 794.28L-161.78 791.287ZM-40.4352 808.022C-39.6166 808.149 -38.8497 807.589 -38.7221 806.77C-38.5946 805.952 -39.1548 805.185 -39.9733 805.057L-40.4352 808.022ZM65.8429 826.047C66.6613 826.176 67.4289 825.617 67.5574 824.798C67.6859 823.98 67.1266 823.212 66.3082 823.084L65.8429 826.047ZM175.817 836.465C176.643 836.517 177.356 835.89 177.408 835.063C177.461 834.236 176.833 833.523 176.006 833.471L175.817 836.465ZM303.468 839.167C302.64 839.146 301.952 839.8 301.93 840.629C301.909 841.457 302.563 842.145 303.392 842.166L303.468 839.167ZM431.097 842.812C431.925 842.799 432.586 842.117 432.573 841.289C432.559 840.46 431.877 839.799 431.049 839.813L431.097 842.812ZM559.043 837.605C559.87 837.551 560.496 836.836 560.442 836.01C560.387 835.183 559.673 834.557 558.846 834.612L559.043 837.605ZM686.616 823.413C685.792 823.502 685.197 824.242 685.286 825.066C685.376 825.89 686.116 826.485 686.939 826.396L686.616 823.413ZM814.291 810.189C815.111 810.07 815.679 809.309 815.56 808.489C815.441 807.669 814.68 807.101 813.86 807.22L814.291 810.189ZM941.01 791.374C941.832 791.272 942.416 790.522 942.313 789.7C942.211 788.878 941.461 788.295 940.639 788.397L941.01 791.374ZM1068.2 777.728C1067.37 777.765 1066.73 778.466 1066.76 779.294C1066.8 780.122 1067.5 780.762 1068.33 780.725L1068.2 777.728ZM1196.12 778.516C1196.95 778.519 1197.62 777.849 1197.63 777.021C1197.63 776.193 1196.96 775.519 1196.13 775.516L1196.12 778.516ZM1321.83 781.232C1322.66 781.276 1323.36 780.641 1323.41 779.814C1323.45 778.986 1322.82 778.28 1321.99 778.236L1321.83 781.232ZM1445.33 787.957C1444.51 787.874 1443.77 788.476 1443.69 789.3C1443.61 790.124 1444.21 790.859 1445.03 790.942L1445.33 787.957ZM1567.86 805.335C1568.68 805.444 1569.43 804.867 1569.54 804.045C1569.65 803.224 1569.07 802.47 1568.25 802.361L1567.86 805.335ZM1694.45 825.185C1695.27 825.317 1696.04 824.761 1696.17 823.943C1696.31 823.126 1695.75 822.356 1694.93 822.223L1694.45 825.185ZM1826.64 841.206C1825.82 841.103 1825.07 841.686 1824.97 842.508C1824.86 843.331 1825.45 844.08 1826.27 844.183L1826.64 841.206ZM1958.83 857.163C1959.66 857.215 1960.37 856.587 1960.42 855.76C1960.48 854.934 1959.85 854.221 1959.02 854.169L1958.83 857.163ZM2091.17 858.241C2092 858.207 2092.64 857.508 2092.61 856.681C2092.57 855.853 2091.87 855.21 2091.05 855.244L2091.17 858.241ZM2221.66 843.177C2220.84 843.301 2220.27 844.064 2220.4 844.884C2220.52 845.703 2221.28 846.267 2222.1 846.144L2221.66 843.177ZM2350.16 816.526C2350.94 816.26 2351.36 815.409 2351.1 814.624C2350.83 813.84 2349.98 813.419 2349.19 813.685L2350.16 816.526ZM2409.5 766.763C2409.5 765.934 2408.83 765.263 2408 765.263C2407.17 765.263 2406.5 765.934 2406.5 766.763H2409.5ZM2376.11 745.5C2375.29 745.5 2374.61 746.172 2374.61 747C2374.61 747.828 2375.29 748.5 2376.11 748.5V745.5ZM2291.09 745.5C2290.26 745.5 2289.59 746.172 2289.59 747C2289.59 747.828 2290.26 748.5 2291.09 748.5V745.5ZM2184.8 748.5C2185.63 748.5 2186.3 747.828 2186.3 747C2186.3 746.172 2185.63 745.5 2184.8 745.5V748.5ZM2078.52 745.5C2077.69 745.5 2077.02 746.172 2077.02 747C2077.02 747.828 2077.69 748.5 2078.52 748.5V745.5ZM1980.03 745.5C1979.2 745.5 1978.53 746.172 1978.53 747C1978.53 747.828 1979.2 748.5 1980.03 748.5V745.5ZM1889.34 748.5C1890.17 748.5 1890.84 747.828 1890.84 747C1890.84 746.172 1890.17 745.5 1889.34 745.5V748.5ZM1845.5 683.4C1845.5 682.572 1844.83 681.9 1844 681.9C1843.17 681.9 1842.5 682.572 1842.5 683.4H1845.5ZM1842.5 556.2C1842.5 557.028 1843.17 557.7 1844 557.7C1844.83 557.7 1845.5 557.028 1845.5 556.2H1842.5ZM1845.5 429C1845.5 428.172 1844.83 427.5 1844 427.5C1843.17 427.5 1842.5 428.172 1842.5 429H1845.5ZM1842.5 301.8C1842.5 302.628 1843.17 303.3 1844 303.3C1844.83 303.3 1845.5 302.628 1845.5 301.8H1842.5ZM1845.5 174.6C1845.5 173.772 1844.83 173.1 1844 173.1C1843.17 173.1 1842.5 173.772 1842.5 174.6H1845.5ZM1868.69 112.5C1869.52 112.5 1870.19 111.828 1870.19 111C1870.19 110.172 1869.52 109.5 1868.69 109.5V112.5ZM1946.52 112.5C1947.35 112.5 1948.02 111.828 1948.02 111C1948.02 110.172 1947.35 109.5 1946.52 109.5V112.5ZM2052.8 109.5C2051.97 109.5 2051.3 110.172 2051.3 111C2051.3 111.828 2051.97 112.5 2052.8 112.5V109.5ZM2159.09 112.5C2159.92 112.5 2160.59 111.828 2160.59 111C2160.59 110.172 2159.92 109.5 2159.09 109.5V112.5ZM2244.11 112.5C2244.94 112.5 2245.61 111.828 2245.61 111C2245.61 110.172 2244.94 109.5 2244.11 109.5V112.5ZM2277.5 73.0987C2277.5 72.2703 2276.83 71.5987 2276 71.5987C2275.17 71.5987 2274.5 72.2703 2274.5 73.0987H2277.5ZM2244 36.1383C2243.17 36.2014 2242.56 36.9222 2242.62 37.7482C2242.68 38.5743 2243.4 39.1927 2244.23 39.1296L2244 36.1383ZM2151.37 47.3383C2150.55 47.4478 2149.98 48.2022 2150.09 49.0234C2150.2 49.8446 2150.95 50.4215 2151.77 50.312L2151.37 47.3383ZM2029.8 63.5538C2030.62 63.4863 2031.24 62.7622 2031.17 61.9365C2031.1 61.1108 2030.38 60.4963 2029.55 60.5638L2029.8 63.5538ZM1907.37 66.7004C1906.54 66.7136 1905.88 67.3958 1905.9 68.2241C1905.91 69.0524 1906.59 69.7132 1907.42 69.7L1907.37 66.7004ZM1784.78 66.7128C1785.61 66.7686 1786.32 66.1438 1786.38 65.3173C1786.43 64.4907 1785.81 63.7754 1784.98 63.7196L1784.78 66.7128ZM1663.44 49.9783C1662.62 49.8508 1661.85 50.411 1661.72 51.2295C1661.59 52.0481 1662.15 52.815 1662.97 52.9426L1663.44 49.9783ZM1557.16 31.9527C1556.34 31.8242 1555.57 32.3835 1555.44 33.2019C1555.31 34.0203 1555.87 34.7879 1556.69 34.9164L1557.16 31.9527ZM1447.18 21.5348C1446.36 21.4825 1445.64 22.1104 1445.59 22.9372C1445.54 23.7639 1446.17 24.4766 1446.99 24.5288L1447.18 21.5348ZM1319.53 18.8326C1320.36 18.8537 1321.05 18.1995 1321.07 17.3713C1321.09 16.5432 1320.44 15.8547 1319.61 15.8336L1319.53 18.8326ZM1191.9 15.1877C1191.07 15.2009 1190.41 15.8832 1190.43 16.7115C1190.44 17.5398 1191.12 18.2006 1191.95 18.1873L1191.9 15.1877ZM1063.96 20.3948C1063.13 20.4493 1062.5 21.1635 1062.56 21.9902C1062.61 22.8168 1063.33 23.4428 1064.15 23.3883L1063.96 20.3948ZM936.384 34.5868C937.208 34.4975 937.803 33.7575 937.714 32.9339C937.624 32.1103 936.884 31.515 936.061 31.6043L936.384 34.5868ZM808.709 47.8108C807.889 47.9298 807.321 48.6908 807.44 49.5107C807.559 50.3305 808.32 50.8987 809.14 50.7797L808.709 47.8108ZM681.99 66.6257C681.168 66.7282 680.584 67.4776 680.687 68.2997C680.789 69.1218 681.539 69.7051 682.361 69.6027L681.99 66.6257ZM554.804 80.2716C555.632 80.2346 556.273 79.5337 556.236 78.7061C556.199 77.8785 555.498 77.2376 554.67 77.2746L554.804 80.2716ZM426.878 79.4838C426.049 79.4812 425.376 80.1506 425.373 80.979C425.37 81.8074 426.04 82.4811 426.868 82.4838L426.878 79.4838ZM301.169 76.7677C300.341 76.724 299.635 77.3591 299.591 78.1864C299.548 79.0137 300.183 79.7198 301.01 79.7635L301.169 76.7677ZM177.666 70.0428C178.49 70.1256 179.225 69.5245 179.308 68.7002C179.391 67.8759 178.79 67.1406 177.965 67.0578L177.666 70.0428ZM55.1436 52.6654C54.3223 52.5562 53.5681 53.1334 53.4589 53.9546C53.3497 54.7758 53.9269 55.53 54.7481 55.6392L55.1436 52.6654ZM-71.453 32.8149C-72.2708 32.6828 -73.0409 33.2387 -73.173 34.0565C-73.3052 34.8743 -72.7493 35.6444 -71.9315 35.7765L-71.453 32.8149ZM-203.64 16.7938C-202.818 16.8966 -202.068 16.3136 -201.965 15.4915C-201.862 14.6695 -202.445 13.9198 -203.267 13.817L-203.64 16.7938ZM-335.833 0.83728C-336.659 0.785021 -337.372 1.41289 -337.424 2.23967C-337.477 3.06645 -336.849 3.77905 -336.022 3.8313L-335.833 0.83728ZM-468.17 -0.241176C-468.997 -0.207121 -469.641 0.491491 -469.607 1.31922C-469.573 2.14694 -468.874 2.79034 -468.046 2.75629L-468.17 -0.241176ZM-598.656 14.8226C-597.836 14.6994 -597.272 13.9355 -597.395 13.1163C-597.518 12.2971 -598.282 11.7328 -599.102 11.8559L-598.656 14.8226ZM-727.157 41.4736C-727.941 41.7395 -728.362 42.5911 -728.096 43.3757C-727.83 44.1603 -726.979 44.5808 -726.194 44.3149L-727.157 41.4736ZM-786.5 71.4744V91.2372H-783.5V71.4744H-786.5ZM-785 112.5H-753.115V109.5H-785V112.5ZM-721.229 112.5H-668.087V109.5H-721.229V112.5ZM-561.802 112.5H-455.517V109.5H-561.802V112.5ZM-402.375 112.5H-342.688V109.5H-402.375V112.5ZM-284.5 111V174.6H-281.5V111H-284.5ZM-284.5 301.8V429H-281.5V301.8H-284.5ZM-284.5 556.2V683.4H-281.5V556.2H-284.5ZM-283 745.5H-334.038V748.5H-283V745.5ZM-436.115 745.5H-538.191V748.5H-436.115V745.5ZM-589.229 745.5H-621.115V748.5H-589.229V745.5ZM-654.5 747V784.901H-651.5V747H-654.5ZM-652.886 824.298L-621 821.862L-621.229 818.87L-653.114 821.307L-652.886 824.298ZM-589 819.412C-568.139 816.18 -547.941 813.27 -528.375 810.662L-528.771 807.688C-548.359 810.3 -568.578 813.212 -589.459 816.447L-589 819.412ZM-406.554 797.436C-362.088 793.799 -321.542 791.892 -284.371 791.3L-284.419 788.3C-321.658 788.893 -362.27 790.804 -406.799 794.446L-406.554 797.436ZM-161.982 794.28C-115.561 797.416 -75.7382 802.522 -40.4352 808.022L-39.9733 805.057C-75.3404 799.547 -115.253 794.43 -161.78 791.287L-161.982 794.28ZM19.9236 818.227C36.022 821.069 51.2323 823.753 65.8429 826.047L66.3082 823.084C51.7308 820.795 36.5494 818.115 20.4451 815.273L19.9236 818.227ZM112.129 831.878C133.358 833.59 154.587 835.123 175.817 836.465L176.006 833.471C154.794 832.13 133.583 830.599 112.371 828.888L112.129 831.878ZM303.392 842.166C345.959 843.252 388.527 843.495 431.097 842.812L431.049 839.813C388.523 840.494 345.996 840.252 303.468 839.167L303.392 842.166ZM494.939 841.086C516.307 840.179 537.676 839.014 559.043 837.605L558.846 834.612C537.501 836.019 516.156 837.183 494.811 838.089L494.939 841.086ZM686.939 826.396C729.391 821.792 771.842 816.35 814.291 810.189L813.86 807.22C771.444 813.377 729.029 818.814 686.616 823.413L686.939 826.396ZM877.739 800.46C899.588 796.935 920.521 793.928 941.01 791.374L940.639 788.397C920.112 790.955 899.143 793.968 877.261 797.498L877.739 800.46ZM1068.33 780.725C1107.85 778.958 1149.36 778.367 1196.12 778.516L1196.13 775.516C1149.34 775.367 1107.78 775.958 1068.2 777.728L1068.33 780.725ZM1260.1 779.092C1280.03 779.364 1300.78 780.119 1321.83 781.232L1321.99 778.236C1300.91 777.122 1280.12 776.365 1260.15 776.092L1260.1 779.092ZM1445.03 790.942C1492.07 795.667 1535.2 800.993 1567.86 805.335L1568.25 802.361C1535.57 798.016 1492.41 792.686 1445.33 787.957L1445.03 790.942ZM1629.2 812.515C1628.93 813.99 1628.93 813.99 1628.93 813.99C1628.93 813.99 1628.93 813.99 1628.93 813.99C1628.93 813.99 1628.93 813.991 1628.93 813.991C1628.93 813.991 1628.94 813.992 1628.94 813.994C1628.96 813.996 1628.98 813.999 1629 814.004C1629.05 814.013 1629.13 814.027 1629.23 814.045C1629.42 814.082 1629.72 814.136 1630.11 814.207C1630.89 814.35 1632.05 814.561 1633.57 814.835C1636.6 815.381 1641.05 816.177 1646.75 817.174C1658.15 819.168 1674.53 821.967 1694.45 825.185L1694.93 822.223C1675.02 819.007 1658.66 816.211 1647.27 814.219C1641.57 813.223 1637.12 812.428 1634.1 811.882C1632.58 811.609 1631.43 811.399 1630.65 811.256C1630.26 811.185 1629.97 811.131 1629.77 811.095C1629.67 811.077 1629.6 811.063 1629.55 811.054C1629.52 811.049 1629.5 811.046 1629.49 811.044C1629.48 811.042 1629.48 811.042 1629.48 811.041C1629.47 811.041 1629.47 811.041 1629.47 811.04C1629.47 811.04 1629.47 811.04 1629.47 811.04C1629.47 811.04 1629.47 811.04 1629.2 812.515ZM1826.27 844.183C1869.87 849.635 1915.88 854.448 1958.83 857.163L1959.02 854.169C1916.15 851.459 1870.21 846.653 1826.64 841.206L1826.27 844.183ZM2025.37 859.497C2048.4 859.544 2070.33 859.099 2091.17 858.241L2091.05 855.244C2070.25 856.099 2048.37 856.544 2025.38 856.497L2025.37 859.497ZM2222.1 846.144C2277.38 837.836 2319.81 826.81 2350.16 816.526L2349.19 813.685C2319.03 823.906 2276.77 834.893 2221.66 843.177L2222.1 846.144ZM2409.5 786.526V766.763H2406.5V786.526H2409.5ZM2408 745.5H2376.11V748.5H2408V745.5ZM2344.23 745.5H2291.09V748.5H2344.23V745.5ZM2184.8 745.5H2078.52V748.5H2184.8V745.5ZM2025.38 745.5H1980.03V748.5H2025.38V745.5ZM1889.34 745.5H1844V748.5H1889.34V745.5ZM1845.5 747V683.4H1842.5V747H1845.5ZM1845.5 556.2V429H1842.5V556.2H1845.5ZM1845.5 301.8V174.6H1842.5V301.8H1845.5ZM1844 112.5H1868.69V109.5H1844V112.5ZM1893.38 112.5H1946.52V109.5H1893.38V112.5ZM2052.8 112.5H2159.09V109.5H2052.8V112.5ZM2212.23 112.5H2244.11V109.5H2212.23V112.5ZM2277.5 111V73.0987H2274.5V111H2277.5ZM2275.89 33.7018L2244 36.1383L2244.23 39.1296L2276.11 36.6931L2275.89 33.7018ZM2212 38.5882C2191.14 41.8204 2170.94 44.7296 2151.37 47.3383L2151.77 50.312C2171.36 47.7004 2191.58 44.7882 2212.46 41.5528L2212 38.5882ZM2029.55 60.5638C1985.09 64.2009 1944.54 66.1082 1907.37 66.7004L1907.42 69.7C1944.66 69.1068 1985.27 67.1961 2029.8 63.5538L2029.55 60.5638ZM1784.98 63.7196C1738.56 60.5842 1698.74 55.4783 1663.44 49.9783L1662.97 52.9426C1698.34 58.4525 1738.25 63.5701 1784.78 66.7128L1784.98 63.7196ZM1603.08 39.773C1586.98 36.9315 1571.77 34.2466 1557.16 31.9527L1556.69 34.9164C1571.27 37.2051 1586.45 39.8848 1602.55 42.7274L1603.08 39.773ZM1510.87 26.122C1489.64 24.4097 1468.41 22.8773 1447.18 21.5348L1446.99 24.5288C1468.21 25.8702 1489.42 27.4014 1510.63 29.1123L1510.87 26.122ZM1319.61 15.8336C1277.04 14.7476 1234.47 14.5054 1191.9 15.1877L1191.95 18.1873C1234.48 17.5057 1277 17.7476 1319.53 18.8326L1319.61 15.8336ZM1128.06 16.9139C1106.69 17.8211 1085.32 18.9865 1063.96 20.3948L1064.15 23.3883C1085.5 21.9815 1106.84 20.8174 1128.19 19.9112L1128.06 16.9139ZM936.061 31.6043C893.609 36.2077 851.158 41.6498 808.709 47.8108L809.14 50.7797C851.556 44.6234 893.971 39.186 936.384 34.5868L936.061 31.6043ZM745.261 57.5402C723.412 61.0649 702.479 64.0724 681.99 66.6257L682.361 69.6027C702.888 67.0446 723.857 64.0319 745.739 60.502L745.261 57.5402ZM554.67 77.2746C515.146 79.0421 473.641 79.6332 426.878 79.4838L426.868 82.4838C473.661 82.6333 515.216 82.042 554.804 80.2716L554.67 77.2746ZM362.896 78.9084C342.969 78.6363 322.22 77.8809 301.169 76.7677L301.01 79.7635C322.093 80.8784 342.882 81.6354 362.854 81.9081L362.896 78.9084ZM177.965 67.0578C130.926 62.3329 87.7983 57.0072 55.1436 52.6654L54.7481 55.6392C87.4257 59.984 130.587 65.3139 177.666 70.0428L177.965 67.0578ZM-6.19867 45.4849C-5.92548 44.01 -5.9256 44.01 -5.92578 44.01C-5.92603 44.0099 -5.92633 44.0099 -5.9267 44.0098C-5.92755 44.0096 -5.92877 44.0094 -5.93036 44.0091C-5.93353 44.0085 -5.93829 44.0076 -5.94464 44.0065C-5.95721 44.0041 -5.97607 44.0007 -6.0011 43.996C-6.05115 43.9868 -6.12592 43.973 -6.2251 43.9548C-6.42334 43.9183 -6.71906 43.8639 -7.10944 43.7925C-7.8902 43.6498 -9.04956 43.4387 -10.565 43.1653C-13.5959 42.6186 -18.0515 41.8227 -23.7517 40.8257C-35.1522 38.8318 -51.532 36.0334 -71.453 32.8149L-71.9315 35.7765C-52.025 38.9927 -35.658 41.7889 -24.2686 43.7809C-18.5739 44.7769 -14.1236 45.5718 -11.0976 46.1177C-9.58453 46.3906 -8.42761 46.6012 -7.64917 46.7436C-7.25995 46.8148 -6.96533 46.8689 -6.76819 46.9052C-6.66962 46.9233 -6.5954 46.937 -6.5459 46.9462C-6.52118 46.9507 -6.50256 46.9542 -6.49023 46.9564C-6.48407 46.9576 -6.47943 46.9584 -6.47638 46.959C-6.47485 46.9593 -6.47369 46.9595 -6.47296 46.9596C-6.4726 46.9597 -6.47235 46.9598 -6.47211 46.9598C-6.47198 46.9598 -6.47186 46.9598 -6.19867 45.4849ZM-203.267 13.817C-246.872 8.36514 -292.879 3.55231 -335.833 0.83728L-336.022 3.8313C-293.149 6.54119 -247.207 11.3466 -203.64 16.7938L-203.267 13.817ZM-402.372 -1.49659C-425.402 -1.54385 -447.328 -1.09864 -468.17 -0.241176L-468.046 2.75629C-447.249 1.90062 -425.365 1.45623 -402.378 1.5034L-402.372 -1.49659ZM-599.102 11.8559C-654.377 20.1644 -696.812 31.1902 -727.157 41.4736L-726.194 44.3149C-696.032 34.0935 -653.771 23.1071 -598.656 14.8226L-599.102 11.8559ZM-782 71.4744C-782 69.8175 -783.343 68.4744 -785 68.4744C-786.657 68.4744 -788 69.8175 -788 71.4744H-782ZM-402.381 3.0034C-400.724 3.0068 -399.378 1.66641 -399.375 0.00956019C-399.372 -1.64729 -400.712 -2.99319 -402.369 -2.99659L-402.381 3.0034ZM-785 108C-786.657 108 -788 109.343 -788 111C-788 112.657 -786.657 114 -785 114V108ZM-721.229 108C-722.886 108 -724.229 109.343 -724.229 111C-724.229 112.657 -722.886 114 -721.229 114V108ZM-402.375 108C-404.032 108 -405.375 109.343 -405.375 111C-405.375 112.657 -404.032 114 -402.375 114V108ZM-280 111C-280 109.343 -281.343 108 -283 108C-284.657 108 -286 109.343 -286 111H-280ZM-283 750C-281.343 750 -280 748.657 -280 747C-280 745.343 -281.343 744 -283 744V750ZM-589.229 750C-587.572 750 -586.229 748.657 -586.229 747C-586.229 745.343 -587.572 744 -589.229 744V750ZM-650 747C-650 745.343 -651.343 744 -653 744C-654.657 744 -656 745.343 -656 747H-650ZM-653.229 819.811C-654.881 819.937 -656.118 821.379 -655.991 823.031C-655.865 824.683 -654.423 825.92 -652.771 825.794L-653.229 819.811ZM-589.689 814.965C-591.326 815.219 -592.448 816.752 -592.194 818.389C-591.94 820.026 -590.407 821.148 -588.77 820.894L-589.689 814.965ZM20.7059 813.795C19.0742 813.508 17.5181 814.597 17.23 816.228C16.9421 817.86 18.0312 819.416 19.6629 819.704L20.7059 813.795ZM112.491 827.393C110.84 827.259 109.393 828.49 109.26 830.142C109.127 831.793 110.357 833.24 112.009 833.373L112.491 827.393ZM494.748 836.59C493.092 836.66 491.807 838.059 491.878 839.715C491.948 841.37 493.347 842.655 495.002 842.585L494.748 836.59ZM877.022 796.017C875.386 796.281 874.274 797.821 874.538 799.457C874.802 801.092 876.342 802.204 877.978 801.941L877.022 796.017ZM1260.17 774.592C1258.51 774.569 1257.15 775.894 1257.13 777.551C1257.1 779.207 1258.43 780.569 1260.08 780.591L1260.17 774.592ZM1629.75 809.565C1628.12 809.263 1626.55 810.339 1626.25 811.969C1625.95 813.598 1627.02 815.163 1628.65 815.465L1629.75 809.565ZM2025.38 854.997C2023.72 854.993 2022.38 856.334 2022.38 857.99C2022.37 859.647 2023.71 860.993 2025.37 860.997L2025.38 854.997ZM2405 786.526C2405 788.182 2406.34 789.526 2408 789.526C2409.66 789.526 2411 788.182 2411 786.526H2405ZM2408 750C2409.66 750 2411 748.657 2411 747C2411 745.343 2409.66 744 2408 744V750ZM2344.23 750C2345.89 750 2347.23 748.657 2347.23 747C2347.23 745.343 2345.89 744 2344.23 744V750ZM2025.38 750C2027.03 750 2028.38 748.657 2028.38 747C2028.38 745.343 2027.03 744 2025.38 744V750ZM1844 747H1841V750H1844V747ZM1844 108C1842.34 108 1841 109.343 1841 111C1841 112.657 1842.34 114 1844 114V108ZM1893.38 108C1891.72 108 1890.38 109.343 1890.38 111C1890.38 112.657 1891.72 114 1893.38 114V108ZM2212.23 108C2210.57 108 2209.23 109.343 2209.23 111C2209.23 112.657 2210.57 114 2212.23 114V108ZM2273 111C2273 112.657 2274.34 114 2276 114C2277.66 114 2279 112.657 2279 111H2273ZM2276.23 38.1887C2277.88 38.0625 2279.12 36.6209 2278.99 34.9689C2278.86 33.3168 2277.42 32.0799 2275.77 32.2062L2276.23 38.1887ZM2212.69 43.0351C2214.33 42.7814 2215.45 41.2484 2215.19 39.6111C2214.94 37.9738 2213.41 36.8521 2211.77 37.1058L2212.69 43.0351ZM1602.29 44.2045C1603.93 44.4925 1605.48 43.4033 1605.77 41.7717C1606.06 40.14 1604.97 38.5839 1603.34 38.2959L1602.29 44.2045ZM1510.51 30.6075C1512.16 30.7407 1513.61 29.5099 1513.74 27.8584C1513.87 26.2069 1512.64 24.7601 1510.99 24.6269L1510.51 30.6075ZM1128.25 21.4099C1129.91 21.3396 1131.19 19.9407 1131.12 18.2853C1131.05 16.63 1129.65 15.345 1128 15.4153L1128.25 21.4099ZM745.978 61.9828C747.614 61.7189 748.726 60.179 748.462 58.5433C748.198 56.9076 746.658 55.7955 745.022 56.0594L745.978 61.9828ZM362.834 83.408C364.491 83.4306 365.852 82.1059 365.875 80.4492C365.897 78.7925 364.573 77.4311 362.916 77.4085L362.834 83.408ZM-6.74512 48.4347C-5.11597 48.7365 -3.55066 47.6605 -3.24884 46.0314C-2.94708 44.4022 -4.02307 42.8369 -5.65222 42.5351L-6.74512 48.4347ZM-788 91.2372C-788 92.894 -786.657 94.2372 -785 94.2372C-783.343 94.2372 -782 92.894 -782 91.2372H-788ZM-753.115 114C-751.458 114 -750.115 112.657 -750.115 111C-750.115 109.343 -751.458 108 -753.115 108V114ZM-668.087 114C-666.43 114 -665.087 112.657 -665.087 111C-665.087 109.343 -666.43 108 -668.087 108V114ZM-561.802 108C-563.459 108 -564.802 109.343 -564.802 111C-564.802 112.657 -563.459 114 -561.802 114V108ZM-455.517 114C-453.861 114 -452.517 112.657 -452.517 111C-452.517 109.343 -453.861 108 -455.517 108V114ZM-342.688 114C-341.031 114 -339.688 112.657 -339.688 111C-339.688 109.343 -341.031 108 -342.688 108V114ZM-286 174.6C-286 176.257 -284.657 177.6 -283 177.6C-281.343 177.6 -280 176.257 -280 174.6H-286ZM-280 301.8C-280 300.143 -281.343 298.8 -283 298.8C-284.657 298.8 -286 300.143 -286 301.8H-280ZM-286 429C-286 430.657 -284.657 432 -283 432C-281.343 432 -280 430.657 -280 429H-286ZM-280 556.2C-280 554.543 -281.343 553.2 -283 553.2C-284.657 553.2 -286 554.543 -286 556.2H-280ZM-286 683.4C-286 685.057 -284.657 686.4 -283 686.4C-281.343 686.4 -280 685.057 -280 683.4H-286ZM-334.038 744C-335.695 744 -337.038 745.343 -337.038 747C-337.038 748.657 -335.695 750 -334.038 750V744ZM-436.115 750C-434.458 750 -433.115 748.657 -433.115 747C-433.115 745.343 -434.458 744 -436.115 744V750ZM-538.191 744C-539.848 744 -541.191 745.343 -541.191 747C-541.191 748.657 -539.848 750 -538.191 750V744ZM-621.115 744C-622.771 744 -624.115 745.343 -624.115 747C-624.115 748.657 -622.771 750 -621.115 750V744ZM-656 784.901C-656 786.558 -654.657 787.901 -653 787.901C-651.343 787.901 -650 786.558 -650 784.901H-656ZM-620.886 823.357C-619.234 823.231 -617.997 821.789 -618.123 820.137C-618.25 818.485 -619.691 817.249 -621.343 817.375L-620.886 823.357ZM-528.177 812.148C-526.534 811.93 -525.38 810.421 -525.599 808.778C-525.818 807.136 -527.327 805.982 -528.97 806.201L-528.177 812.148ZM-406.921 792.951C-408.573 793.086 -409.802 794.534 -409.667 796.186C-409.532 797.837 -408.083 799.066 -406.432 798.931L-406.921 792.951ZM-284.348 792.799C-282.691 792.773 -281.369 791.409 -281.396 789.752C-281.422 788.095 -282.786 786.774 -284.443 786.8L-284.348 792.799ZM-161.679 789.791C-163.332 789.679 -164.763 790.929 -164.874 792.582C-164.986 794.235 -163.736 795.665 -162.083 795.777L-161.679 789.791ZM-40.6661 809.504C-39.029 809.759 -37.4951 808.638 -37.24 807.001C-36.985 805.364 -38.1053 803.83 -39.7424 803.575L-40.6661 809.504ZM65.6102 827.529C67.247 827.786 68.7822 826.668 69.0392 825.031C69.2962 823.394 68.1777 821.859 66.5408 821.602L65.6102 827.529ZM175.722 837.962C177.376 838.067 178.801 836.811 178.905 835.157C179.01 833.504 177.754 832.079 176.101 831.974L175.722 837.962ZM303.506 837.668C301.85 837.626 300.473 838.934 300.431 840.59C300.389 842.247 301.697 843.624 303.353 843.666L303.506 837.668ZM431.121 844.312C432.777 844.286 434.099 842.921 434.072 841.264C434.046 839.608 432.681 838.286 431.025 838.313L431.121 844.312ZM559.142 839.102C560.795 838.993 562.047 837.564 561.938 835.911C561.829 834.258 560.401 833.006 558.747 833.115L559.142 839.102ZM686.454 821.922C684.807 822.101 683.616 823.581 683.795 825.228C683.974 826.875 685.454 828.066 687.101 827.887L686.454 821.922ZM814.506 811.674C816.146 811.436 817.282 809.914 817.044 808.274C816.806 806.634 815.284 805.498 813.645 805.736L814.506 811.674ZM941.196 792.863C942.84 792.658 944.007 791.159 943.802 789.515C943.597 787.871 942.098 786.704 940.454 786.909L941.196 792.863ZM1068.13 776.23C1066.47 776.304 1065.19 777.706 1065.27 779.361C1065.34 781.016 1066.74 782.298 1068.4 782.224L1068.13 776.23ZM1196.12 780.016C1197.77 780.021 1199.12 778.683 1199.13 777.026C1199.13 775.369 1197.79 774.021 1196.14 774.016L1196.12 780.016ZM1321.75 782.73C1323.41 782.818 1324.82 781.547 1324.91 779.893C1324.99 778.238 1323.72 776.826 1322.07 776.739L1321.75 782.73ZM1445.48 786.465C1443.84 786.299 1442.36 787.501 1442.2 789.15C1442.03 790.798 1443.24 792.269 1444.88 792.435L1445.48 786.465ZM1567.66 806.822C1569.3 807.04 1570.81 805.885 1571.03 804.243C1571.25 802.601 1570.09 801.092 1568.45 800.874L1567.66 806.822ZM1694.21 826.666C1695.85 826.93 1697.39 825.818 1697.65 824.183C1697.92 822.547 1696.81 821.007 1695.17 820.743L1694.21 826.666ZM1826.83 839.718C1825.18 839.512 1823.68 840.678 1823.48 842.322C1823.27 843.966 1824.44 845.466 1826.08 845.671L1826.83 839.718ZM1958.74 858.66C1960.39 858.764 1961.82 857.508 1961.92 855.855C1962.03 854.201 1960.77 852.776 1959.12 852.672L1958.74 858.66ZM2091.23 859.74C2092.89 859.672 2094.17 858.275 2094.11 856.619C2094.04 854.964 2092.64 853.677 2090.98 853.745L2091.23 859.74ZM2221.43 841.694C2219.79 841.94 2218.67 843.468 2218.91 845.107C2219.16 846.745 2220.69 847.874 2222.32 847.627L2221.43 841.694ZM2350.64 817.947C2352.21 817.415 2353.05 815.712 2352.52 814.143C2351.98 812.574 2350.28 811.733 2348.71 812.264L2350.64 817.947ZM2411 766.763C2411 765.106 2409.66 763.763 2408 763.763C2406.34 763.763 2405 765.106 2405 766.763H2411ZM2376.11 744C2374.46 744 2373.11 745.343 2373.11 747C2373.11 748.657 2374.46 750 2376.11 750V744ZM2291.09 744C2289.43 744 2288.09 745.343 2288.09 747C2288.09 748.657 2289.43 750 2291.09 750V744ZM2184.8 750C2186.46 750 2187.8 748.657 2187.8 747C2187.8 745.343 2186.46 744 2184.8 744V750ZM2078.52 744C2076.86 744 2075.52 745.343 2075.52 747C2075.52 748.657 2076.86 750 2078.52 750V744ZM1980.03 744C1978.37 744 1977.03 745.343 1977.03 747C1977.03 748.657 1978.37 750 1980.03 750V744ZM1889.34 750C1891 750 1892.34 748.657 1892.34 747C1892.34 745.343 1891 744 1889.34 744V750ZM1847 683.4C1847 681.743 1845.66 680.4 1844 680.4C1842.34 680.4 1841 681.743 1841 683.4H1847ZM1841 556.2C1841 557.857 1842.34 559.2 1844 559.2C1845.66 559.2 1847 557.857 1847 556.2H1841ZM1847 429C1847 427.343 1845.66 426 1844 426C1842.34 426 1841 427.343 1841 429H1847ZM1841 301.8C1841 303.457 1842.34 304.8 1844 304.8C1845.66 304.8 1847 303.457 1847 301.8H1841ZM1847 174.6C1847 172.943 1845.66 171.6 1844 171.6C1842.34 171.6 1841 172.943 1841 174.6H1847ZM1868.69 114C1870.34 114 1871.69 112.657 1871.69 111C1871.69 109.343 1870.34 108 1868.69 108V114ZM1946.52 114C1948.17 114 1949.52 112.657 1949.52 111C1949.52 109.343 1948.17 108 1946.52 108V114ZM2052.8 108C2051.15 108 2049.8 109.343 2049.8 111C2049.8 112.657 2051.15 114 2052.8 114V108ZM2159.09 114C2160.74 114 2162.09 112.657 2162.09 111C2162.09 109.343 2160.74 108 2159.09 108V114ZM2244.11 114C2245.77 114 2247.11 112.657 2247.11 111C2247.11 109.343 2245.77 108 2244.11 108V114ZM2279 73.0987C2279 71.4419 2277.66 70.0987 2276 70.0987C2274.34 70.0987 2273 71.4419 2273 73.0987H2279ZM2243.89 34.6427C2242.23 34.7689 2241 36.2105 2241.12 37.8625C2241.25 39.5146 2242.69 40.7515 2244.34 40.6252L2243.89 34.6427ZM2151.18 45.8515C2149.53 46.0705 2148.38 47.5793 2148.6 49.2216C2148.82 50.864 2150.33 52.0178 2151.97 51.7989L2151.18 45.8515ZM2029.92 65.0488C2031.57 64.9137 2032.8 63.4656 2032.67 61.8142C2032.53 60.1629 2031.08 58.9337 2029.43 59.0688L2029.92 65.0488ZM1907.35 65.2006C1905.69 65.227 1904.37 66.5914 1904.4 68.248C1904.42 69.9047 1905.79 71.2262 1907.44 71.1998L1907.35 65.2006ZM1784.68 68.2094C1786.33 68.321 1787.76 67.0714 1787.87 65.4184C1787.99 63.7653 1786.74 62.3347 1785.08 62.223L1784.68 68.2094ZM1663.67 48.4962C1662.03 48.2411 1660.49 49.3615 1660.24 50.9986C1659.98 52.6357 1661.11 54.1696 1662.74 54.4247L1663.67 48.4962ZM1557.39 30.4709C1555.75 30.2139 1554.22 31.3324 1553.96 32.9692C1553.7 34.606 1554.82 36.1413 1556.46 36.3982L1557.39 30.4709ZM1447.28 20.0378C1445.62 19.9333 1444.2 21.189 1444.09 22.8425C1443.99 24.4961 1445.25 25.9213 1446.9 26.0259L1447.28 20.0378ZM1319.49 20.3321C1321.15 20.3744 1322.53 19.0659 1322.57 17.4096C1322.61 15.7533 1321.3 14.3763 1319.65 14.3341L1319.49 20.3321ZM1191.88 13.6879C1190.22 13.7144 1188.9 15.0789 1188.93 16.7356C1188.95 18.3922 1190.32 19.7136 1191.98 19.6871L1191.88 13.6879ZM1063.86 18.898C1062.2 19.007 1060.95 20.4355 1061.06 22.0888C1061.17 23.7421 1062.6 24.994 1064.25 24.885L1063.86 18.898ZM936.546 36.0781C938.193 35.8995 939.384 34.4194 939.205 32.7722C939.026 31.125 937.546 29.9344 935.899 30.1131L936.546 36.0781ZM808.494 46.3263C806.854 46.5643 805.718 48.0864 805.956 49.7261C806.194 51.3658 807.716 52.5021 809.355 52.2641L808.494 46.3263ZM681.804 65.1372C680.16 65.3421 678.993 66.841 679.198 68.4852C679.403 70.1293 680.902 71.2961 682.546 71.0912L681.804 65.1372ZM554.871 81.7701C556.526 81.696 557.808 80.2942 557.734 78.639C557.66 76.9838 556.258 75.702 554.603 75.7761L554.871 81.7701ZM426.883 77.9838C425.226 77.9785 423.878 79.3174 423.873 80.9742C423.868 82.6311 425.207 83.9785 426.863 83.9838L426.883 77.9838ZM301.248 75.2698C299.593 75.1823 298.181 76.4526 298.094 78.1072C298.006 79.7617 299.276 81.1739 300.931 81.2614L301.248 75.2698ZM177.516 71.5353C179.164 71.7009 180.635 70.4987 180.801 68.8501C180.966 67.2016 179.764 65.7309 178.115 65.5653L177.516 71.5353ZM55.3412 51.1785C53.6989 50.9601 52.1904 52.1145 51.972 53.7569C51.7536 55.3993 52.908 56.9077 54.5504 57.1261L55.3412 51.1785ZM-71.2137 31.3341C-72.8494 31.0699 -74.3896 32.1816 -74.6538 33.8173C-74.9181 35.4529 -73.8063 36.9931 -72.1707 37.2573L-71.2137 31.3341ZM-203.826 18.2823C-202.182 18.4878 -200.682 17.3217 -200.477 15.6776C-200.271 14.0336 -201.437 12.5342 -203.081 12.3286L-203.826 18.2823ZM-335.738 -0.659733C-337.392 -0.76425 -338.817 0.491493 -338.921 2.14505C-339.026 3.7986 -337.77 5.2238 -336.117 5.32832L-335.738 -0.659733ZM-468.231 -1.73991C-469.887 -1.6718 -471.174 -0.274574 -471.106 1.38088C-471.037 3.03633 -469.64 4.32313 -467.985 4.25502L-468.231 -1.73991ZM-598.433 16.3059C-596.794 16.0596 -595.666 14.5318 -595.912 12.8933C-596.158 11.2549 -597.686 10.1263 -599.325 10.3726L-598.433 16.3059ZM-727.638 40.053C-729.207 40.5847 -730.048 42.2879 -729.517 43.8571C-728.985 45.4263 -727.282 46.2673 -725.712 45.7355L-727.638 40.053ZM-788 71.4744V91.2372H-782V71.4744H-788ZM-785 114H-753.115V108H-785V114ZM-721.229 114H-668.087V108H-721.229V114ZM-561.802 114H-455.517V108H-561.802V114ZM-402.375 114H-342.688V108H-402.375V114ZM-286 111V174.6H-280V111H-286ZM-286 301.8V429H-280V301.8H-286ZM-286 556.2V683.4H-280V556.2H-286ZM-283 744H-334.038V750H-283V744ZM-436.115 744H-538.191V750H-436.115V744ZM-589.229 744H-621.115V750H-589.229V744ZM-656 747V784.901H-650V747H-656ZM-652.771 825.794L-620.886 823.357L-621.343 817.375L-653.229 819.811L-652.771 825.794ZM-588.77 820.894C-567.92 817.663 -547.732 814.756 -528.177 812.148L-528.97 806.201C-548.568 808.814 -568.797 811.728 -589.689 814.965L-588.77 820.894ZM-406.432 798.931C-361.997 795.297 -321.484 793.391 -284.348 792.799L-284.443 786.8C-321.716 787.394 -362.36 789.306 -406.921 792.951L-406.432 798.931ZM-162.083 795.777C-115.716 798.909 -75.9371 804.009 -40.6661 809.504L-39.7424 803.575C-75.1415 798.06 -115.098 792.937 -161.679 789.791L-162.083 795.777ZM19.6629 819.704C35.7582 822.545 50.983 825.233 65.6102 827.529L66.5408 821.602C51.9801 819.316 36.8132 816.639 20.7059 813.795L19.6629 819.704ZM112.009 833.373C133.246 835.086 154.484 836.619 175.722 837.962L176.101 831.974C154.898 830.633 133.695 829.103 112.491 827.393L112.009 833.373ZM303.353 843.666C345.941 844.752 388.53 844.995 431.121 844.312L431.025 838.313C388.521 838.994 346.014 838.752 303.506 837.668L303.353 843.666ZM495.002 842.585C516.383 841.677 537.763 840.511 559.142 839.102L558.747 833.115C537.413 834.521 516.08 835.684 494.748 836.59L495.002 842.585ZM687.101 827.887C729.572 823.281 772.041 817.837 814.506 811.674L813.645 805.736C771.245 811.89 728.848 817.325 686.454 821.922L687.101 827.887ZM877.978 801.941C899.81 798.419 920.726 795.414 941.196 792.863L940.454 786.909C919.908 789.469 898.92 792.485 877.022 796.017L877.978 801.941ZM1068.4 782.224C1107.89 780.458 1149.37 779.867 1196.12 780.016L1196.14 774.016C1149.33 773.867 1107.75 774.458 1068.13 776.23L1068.4 782.224ZM1260.08 780.591C1279.99 780.863 1300.72 781.618 1321.75 782.73L1322.07 776.739C1300.97 775.623 1280.16 774.865 1260.17 774.592L1260.08 780.591ZM1444.88 792.435C1491.9 797.158 1535.02 802.481 1567.66 806.822L1568.45 800.874C1535.76 796.528 1492.58 791.196 1445.48 786.465L1444.88 792.435ZM1629.2 812.515C1628.65 815.465 1628.65 815.465 1628.65 815.465C1628.65 815.465 1628.65 815.465 1628.65 815.465C1628.65 815.465 1628.66 815.466 1628.66 815.466C1628.66 815.466 1628.67 815.467 1628.67 815.469C1628.68 815.471 1628.7 815.474 1628.73 815.479C1628.78 815.488 1628.85 815.502 1628.95 815.52C1629.15 815.557 1629.45 815.612 1629.84 815.683C1630.62 815.826 1631.78 816.037 1633.3 816.311C1636.33 816.858 1640.79 817.654 1646.49 818.652C1657.9 820.647 1674.29 823.446 1694.21 826.666L1695.17 820.743C1675.27 817.528 1658.91 814.733 1647.53 812.742C1641.84 811.746 1637.39 810.952 1634.36 810.406C1632.85 810.133 1631.7 809.923 1630.92 809.781C1630.53 809.71 1630.24 809.656 1630.04 809.62C1629.94 809.601 1629.87 809.588 1629.82 809.579C1629.79 809.574 1629.78 809.571 1629.76 809.569C1629.76 809.567 1629.75 809.567 1629.75 809.566C1629.75 809.566 1629.75 809.566 1629.75 809.565C1629.75 809.565 1629.75 809.565 1629.75 809.565C1629.75 809.565 1629.75 809.565 1629.2 812.515ZM1826.08 845.671C1869.7 851.126 1915.74 855.942 1958.74 858.66L1959.12 852.672C1916.28 849.964 1870.38 845.163 1826.83 839.718L1826.08 845.671ZM2025.37 860.997C2048.42 861.044 2070.37 860.598 2091.23 859.74L2090.98 853.745C2070.21 854.6 2048.35 855.044 2025.38 854.997L2025.37 860.997ZM2222.32 847.627C2277.68 839.307 2320.2 828.261 2350.64 817.947L2348.71 812.264C2318.64 822.455 2276.47 833.422 2221.43 841.694L2222.32 847.627ZM2411 786.526V766.763H2405V786.526H2411ZM2408 744H2376.11V750H2408V744ZM2344.23 744H2291.09V750H2344.23V744ZM2184.8 744H2078.52V750H2184.8V744ZM2025.38 744H1980.03V750H2025.38V744ZM1889.34 744H1844V750H1889.34V744ZM1847 747V683.4H1841V747H1847ZM1847 556.2V429H1841V556.2H1847ZM1847 301.8V174.6H1841V301.8H1847ZM1844 114H1868.69V108H1844V114ZM1893.38 114H1946.52V108H1893.38V114ZM2052.8 114H2159.09V108H2052.8V114ZM2212.23 114H2244.11V108H2212.23V114ZM2279 111V73.0987H2273V111H2279ZM2275.77 32.2062L2243.89 34.6427L2244.34 40.6252L2276.23 38.1887L2275.77 32.2062ZM2211.77 37.1058C2190.92 40.3366 2170.73 43.2442 2151.18 45.8515L2151.97 51.7989C2171.57 49.1858 2191.8 46.2721 2212.69 43.0351L2211.77 37.1058ZM2029.43 59.0688C1985 62.7034 1944.48 64.609 1907.35 65.2006L1907.44 71.1998C1944.72 70.606 1985.36 68.6937 2029.92 65.0488L2029.43 59.0688ZM1785.08 62.223C1738.72 59.0912 1698.94 53.9912 1663.67 48.4962L1662.74 54.4247C1698.14 59.9397 1738.1 65.0631 1784.68 68.2094L1785.08 62.223ZM1603.34 38.2959C1587.24 35.4548 1572.02 32.7674 1557.39 30.4709L1556.46 36.3982C1571.02 38.6843 1586.19 41.3614 1602.29 44.2045L1603.34 38.2959ZM1510.99 24.6269C1489.75 22.9139 1468.52 21.3809 1447.28 20.0378L1446.9 26.0259C1468.1 27.3667 1489.31 28.8972 1510.51 30.6075L1510.99 24.6269ZM1319.65 14.3341C1277.06 13.2475 1234.47 13.0053 1191.88 13.6879L1191.98 19.6871C1234.48 19.0059 1276.99 19.2476 1319.49 20.3321L1319.65 14.3341ZM1128 15.4153C1106.62 16.323 1085.24 17.489 1063.86 18.898L1064.25 24.885C1085.59 23.479 1106.92 22.3155 1128.25 21.4099L1128 15.4153ZM935.899 30.1131C893.428 34.7185 850.959 40.163 808.494 46.3263L809.355 52.2641C851.755 46.1103 894.152 40.6752 936.546 36.0781L935.899 30.1131ZM745.022 56.0594C723.19 59.5814 702.274 62.5863 681.804 65.1372L682.546 71.0912C703.092 68.5307 724.08 65.5154 745.978 61.9828L745.022 56.0594ZM554.603 75.7761C515.11 77.5422 473.631 78.1332 426.883 77.9838L426.863 83.9838C473.671 84.1334 515.252 83.5419 554.871 81.7701L554.603 75.7761ZM362.916 77.4085C343.013 77.1368 322.283 76.3822 301.248 75.2698L300.931 81.2614C322.029 82.3771 342.838 83.135 362.834 83.408L362.916 77.4085ZM178.115 65.5653C131.096 60.8424 87.9846 55.5187 55.3412 51.1785L54.5504 57.1261C87.2394 61.4725 130.417 66.8044 177.516 71.5353L178.115 65.5653ZM-6.19867 45.4849C-5.65222 42.5351 -5.65234 42.5351 -5.65265 42.535C-5.65283 42.535 -5.6532 42.5349 -5.65363 42.5349C-5.65448 42.5347 -5.6557 42.5345 -5.65735 42.5342C-5.66058 42.5336 -5.66541 42.5327 -5.67181 42.5315C-5.68457 42.5291 -5.70355 42.5256 -5.7287 42.521C-5.77905 42.5117 -5.85413 42.4978 -5.95349 42.4795C-6.15234 42.4429 -6.44867 42.3885 -6.8396 42.317C-7.62152 42.174 -8.78204 41.9627 -10.2988 41.6891C-13.3322 41.142 -17.7903 40.3456 -23.4933 39.3482C-34.8992 37.3533 -51.2855 34.5538 -71.2137 31.3341L-72.1707 37.2573C-52.2715 40.4723 -35.911 43.2674 -24.527 45.2585C-18.8351 46.254 -14.3875 47.0484 -11.3638 47.5938C-9.85205 47.8665 -8.69629 48.077 -7.91901 48.2191C-7.53033 48.2902 -7.23633 48.3442 -7.03973 48.3804C-6.94147 48.3985 -6.86755 48.4121 -6.8183 48.4212C-6.7937 48.4258 -6.77527 48.4292 -6.76306 48.4314C-6.75696 48.4326 -6.75238 48.4334 -6.74939 48.434C-6.74792 48.4342 -6.74683 48.4344 -6.74609 48.4346C-6.74573 48.4346 -6.74548 48.4347 -6.7453 48.4347C-6.74518 48.4347 -6.74512 48.4347 -6.19867 45.4849ZM-203.081 12.3286C-246.704 6.87443 -292.743 2.05786 -335.738 -0.659733L-336.117 5.32832C-293.284 8.03563 -247.375 12.8373 -203.826 18.2823L-203.081 12.3286ZM-402.369 -2.99659C-425.42 -3.04389 -447.368 -2.59828 -468.231 -1.73991L-467.985 4.25502C-447.209 3.40025 -425.347 2.95627 -402.381 3.0034L-402.369 -2.99659ZM-599.325 10.3726C-654.679 18.6931 -697.202 29.7386 -727.638 40.053L-725.712 45.7355C-695.642 35.5451 -653.468 24.5784 -598.433 16.3059L-599.325 10.3726Z" fill="#63AEFF" mask="url(#path-1-inside-1_70_131)"/>
</svg>
