<svg width="1440" height="1086" viewBox="0 0 1440 1086" fill="none" xmlns="http://www.w3.org/2000/svg">
<path d="M-164.293 595.771C-156.396 583.434 -142.517 576.248 -127.885 576.919L52.5831 585.195C67.2156 585.866 80.3786 594.293 87.1137 607.3L170.18 767.728C176.915 780.736 176.199 796.348 168.302 808.685L70.9008 960.836C63.0034 973.173 49.1244 980.359 34.4919 979.688L-145.976 971.412C-160.608 970.741 -173.771 962.315 -180.506 949.307L-263.573 788.879C-270.308 775.872 -269.592 760.259 -261.695 747.922L-164.293 595.771Z" fill="url(#paint0_linear_1_142)"/>
<path d="M1159.53 578.141C1164.51 572.536 1172.11 570.017 1179.46 571.534L1286.13 593.546C1293.48 595.063 1299.46 600.384 1301.82 607.505L1336.09 710.893C1338.45 718.014 1336.84 725.854 1331.85 731.459L1259.45 812.834C1254.46 818.439 1246.86 820.958 1239.52 819.442L1132.84 797.429C1125.5 795.912 1119.52 790.591 1117.15 783.47L1082.88 680.083C1080.52 672.961 1082.14 665.121 1087.13 659.516L1159.53 578.141Z" fill="url(#paint1_linear_1_142)"/>
<path d="M1440 0H0V183L111.503 641.685C124.06 693.337 164.785 733.422 216.629 745.159L859.517 890.704C904.567 900.903 951.749 888.224 985.619 856.819L1440 435.5V0Z" fill="#E6F2FF"/>
<path opacity="0.03" d="M317.403 299.467C325.3 287.131 339.179 279.944 353.812 280.615L534.279 288.892C548.912 289.563 562.075 297.989 568.81 310.997L651.876 471.424C658.612 484.432 657.896 500.045 649.998 512.381L552.597 664.533C544.7 676.869 530.821 684.056 516.188 683.384L335.721 675.108C321.088 674.437 307.925 666.011 301.19 653.003L218.123 492.576C211.388 479.568 212.104 463.955 220.002 451.619L317.403 299.467Z" fill="url(#paint2_linear_1_142)"/>
<g clip-path="url(#clip0_1_142)">
<path fill-rule="evenodd" clip-rule="evenodd" d="M1114.32 270.001C1114.32 332.991 1063.56 384.247 1001.18 384.247C938.803 384.247 888.046 332.991 888.046 270.001C888.046 207.01 938.803 155.755 1001.18 155.755C1063.56 155.755 1114.32 207.01 1114.32 270.001ZM1094.4 270.001C1094.4 218.097 1052.58 175.873 1001.18 175.873C949.783 175.873 907.968 218.097 907.968 270.001C907.968 321.904 949.783 364.129 1001.18 364.129C1052.58 364.129 1094.4 321.904 1094.4 270.001Z" fill="#001933" fill-opacity="0.03"/>
<path fill-rule="evenodd" clip-rule="evenodd" d="M1065.77 253.929C1067.52 259.383 1066.08 265.285 1062.01 269.286L1042.38 288.621L1047 315.936C1047.98 321.592 1045.7 327.225 1041.09 330.6C1036.49 333.975 1030.51 334.4 1025.46 331.74L1001.18 318.842L976.898 331.74C974.706 332.902 972.338 333.461 969.969 333.461C966.892 333.461 963.86 332.5 961.248 330.578C956.643 327.202 954.386 321.592 955.36 315.914L959.986 288.621L940.351 269.286C936.256 265.262 934.84 259.383 936.588 253.907C938.337 248.453 942.941 244.541 948.564 243.714L975.725 239.735L987.877 214.879C990.401 209.715 995.492 206.519 1001.18 206.519C1006.87 206.519 1011.98 209.738 1014.48 214.879L1026.64 239.735L1053.78 243.714C1059.42 244.541 1064.02 248.453 1065.77 253.929ZM1040.74 262.133L1021.13 259.249C1016.3 258.534 1012.12 255.472 1009.97 251.068L1001.18 233.096L992.415 251.046C990.246 255.472 986.062 258.534 981.236 259.249L961.624 262.133L975.813 276.103C979.311 279.546 980.904 284.508 980.085 289.381L976.721 309.096L994.275 299.775C998.591 297.473 1003.77 297.473 1008.09 299.775L1025.64 309.096L1022.28 289.359C1021.46 284.508 1023.05 279.546 1026.55 276.103L1040.74 262.133Z" fill="#001933" fill-opacity="0.03"/>
</g>
<defs>
<linearGradient id="paint0_linear_1_142" x1="-11" y1="883.5" x2="57.5" y2="666.5" gradientUnits="userSpaceOnUse">
<stop offset="0.0001" stop-color="#063A70"/>
<stop offset="1" stop-color="#2864A4"/>
</linearGradient>
<linearGradient id="paint1_linear_1_142" x1="1149.53" y1="773.187" x2="1267.34" y2="592.81" gradientUnits="userSpaceOnUse">
<stop stop-color="#F89822"/>
<stop offset="1" stop-color="#C7791A"/>
</linearGradient>
<linearGradient id="paint2_linear_1_142" x1="354.5" y1="629.5" x2="540.626" y2="170.558" gradientUnits="userSpaceOnUse">
<stop offset="0.0001" stop-color="#063A70"/>
<stop offset="1" stop-color="#2864A4"/>
</linearGradient>
<clipPath id="clip0_1_142">
<rect width="228" height="228" fill="white" transform="translate(888 156)"/>
</clipPath>
</defs>
</svg>
