<svg width="1440" height="907" viewBox="0 0 1440 907" fill="none" xmlns="http://www.w3.org/2000/svg">
<path d="M1440 0H0V183L111.503 641.685C124.06 693.337 164.785 733.422 216.629 745.159L859.517 890.704C904.567 900.903 951.749 888.224 985.619 856.819L1440 435.5V0Z" fill="url(#paint0_linear_4_6016)"/>
<path d="M317.403 299.467C325.3 287.131 339.179 279.944 353.812 280.615L534.279 288.892C548.912 289.563 562.075 297.989 568.81 310.997L651.876 471.424C658.612 484.432 657.896 500.045 649.998 512.381L552.597 664.533C544.7 676.869 530.821 684.056 516.188 683.385L335.721 675.108C321.088 674.437 307.925 666.011 301.19 653.003L218.123 492.576C211.388 479.568 212.104 463.955 220.002 451.619L317.403 299.467Z" fill="url(#paint1_linear_4_6016)"/>
<path fill-rule="evenodd" clip-rule="evenodd" d="M1114.32 270.001C1114.32 332.991 1063.56 384.247 1001.18 384.247C938.804 384.247 888.046 332.991 888.046 270.001C888.046 207.01 938.804 155.755 1001.18 155.755C1063.56 155.755 1114.32 207.01 1114.32 270.001ZM1094.4 270.001C1094.4 218.097 1052.58 175.873 1001.18 175.873C949.783 175.873 907.968 218.097 907.968 270.001C907.968 321.904 949.783 364.129 1001.18 364.129C1052.58 364.129 1094.4 321.904 1094.4 270.001Z" fill="#001933" fill-opacity="0.03"/>
<path fill-rule="evenodd" clip-rule="evenodd" d="M1065.77 253.929C1067.52 259.383 1066.08 265.284 1062.01 269.286L1042.38 288.621L1047 315.936C1047.98 321.591 1045.7 327.224 1041.09 330.6C1036.49 333.975 1030.51 334.4 1025.46 331.74L1001.18 318.842L976.898 331.74C974.706 332.902 972.338 333.461 969.969 333.461C966.892 333.461 963.86 332.5 961.248 330.577C956.643 327.202 954.385 321.591 955.359 315.914L959.986 288.621L940.351 269.286C936.256 265.262 934.839 259.383 936.588 253.907C938.337 248.453 942.941 244.541 948.564 243.714L975.724 239.735L987.877 214.879C990.401 209.715 995.492 206.519 1001.18 206.519C1006.87 206.519 1011.98 209.737 1014.48 214.879L1026.64 239.735L1053.78 243.714C1059.42 244.541 1064.02 248.453 1065.77 253.929ZM1040.74 262.133L1021.13 259.249C1016.3 258.534 1012.12 255.471 1009.97 251.068L1001.18 233.096L992.415 251.046C990.246 255.471 986.062 258.534 981.236 259.249L961.624 262.133L975.813 276.103C979.311 279.546 980.904 284.508 980.085 289.381L976.721 309.096L994.274 299.775C998.591 297.473 1003.77 297.473 1008.09 299.775L1025.64 309.096L1022.28 289.359C1021.46 284.508 1023.05 279.546 1026.55 276.103L1040.74 262.133Z" fill="#001933" fill-opacity="0.03"/>
<defs>
<linearGradient id="paint0_linear_4_6016" x1="1427" y1="-10" x2="165" y2="720" gradientUnits="userSpaceOnUse">
<stop stop-color="#2B67A8"/>
<stop offset="1" stop-color="#03376C"/>
</linearGradient>
<linearGradient id="paint1_linear_4_6016" x1="354.5" y1="629.5" x2="540.626" y2="170.558" gradientUnits="userSpaceOnUse">
<stop offset="0.0001" stop-color="#063A70" stop-opacity="0.19"/>
<stop offset="1" stop-color="#2864A4"/>
</linearGradient>
</defs>
</svg>
