<svg width="1440" height="560" viewBox="0 0 1440 560" fill="none" xmlns="http://www.w3.org/2000/svg">
<path d="M-172.341 302.586C-167.496 298.404 -159.707 296.175 -150.732 296.402L25.9252 300.88C39.3647 301.221 53.2977 306.984 61.2791 315.503L132.915 391.968C140.897 400.488 141.37 410.103 134.117 416.365L38.7725 498.681C33.9281 502.864 26.1393 505.093 17.1634 504.865L-159.493 500.388C-172.933 500.047 -186.866 494.284 -194.847 485.765L-266.484 409.299C-274.465 400.78 -274.938 391.165 -267.685 384.903L-172.341 302.586Z" fill="url(#paint0_linear_16_145)"/>
<path d="M1157.27 318.929C1160.97 316.627 1166 315.705 1171.47 316.328L1272.55 327.857C1282.26 328.964 1291.72 334.726 1296.26 342.285L1321.54 384.446C1326.08 392.005 1324.71 399.752 1318.13 403.841L1249.52 446.462C1245.81 448.765 1240.78 449.686 1235.32 449.063L1134.23 437.534C1124.53 436.427 1115.07 430.665 1110.53 423.106L1085.24 380.945C1080.71 373.386 1082.07 365.64 1088.66 361.55L1157.27 318.929Z" fill="url(#paint1_linear_16_145)"/>
<path d="M1440 0H0V101.142L100.027 328.559C119.858 373.646 161.923 404.994 210.797 411.109L888.676 495.928C916.578 499.419 944.884 494.428 969.908 481.603L1440 240.695V0Z" fill="#E6F2FF"/>
<path opacity="0.03" d="M237.925 129.624C245.822 117.287 259.701 110.101 274.334 110.772L365.395 114.948C380.028 115.619 393.191 124.045 399.926 137.053L441.84 218.003C448.575 231.01 447.859 246.623 439.962 258.96L390.815 335.733C382.917 348.07 369.038 355.256 354.406 354.585L263.344 350.409C248.712 349.738 235.549 341.312 228.814 328.304L186.899 247.354C180.164 234.347 180.88 218.734 188.778 206.398L237.925 129.624Z" fill="url(#paint2_linear_16_145)"/>
<g clip-path="url(#clip0_16_145)">
<path fill-rule="evenodd" clip-rule="evenodd" d="M1076.6 204.001C1076.6 256.493 1034.3 299.206 982.319 299.206C930.336 299.206 888.038 256.493 888.038 204.001C888.038 151.508 930.336 108.796 982.319 108.796C1034.3 108.796 1076.6 151.508 1076.6 204.001ZM1060 204.001C1060 160.748 1025.15 125.56 982.319 125.56C939.486 125.56 904.64 160.748 904.64 204.001C904.64 247.254 939.486 282.441 982.319 282.441C1025.15 282.441 1060 247.254 1060 204.001Z" fill="#001933" fill-opacity="0.03"/>
<path fill-rule="evenodd" clip-rule="evenodd" d="M1036.14 190.608C1037.6 195.153 1036.4 200.07 1033.01 203.405L1016.65 219.517L1020.5 242.28C1021.31 246.993 1019.41 251.687 1015.58 254.5C1011.74 257.313 1006.76 257.667 1002.55 255.45L982.317 244.702L962.081 255.45C960.255 256.418 958.281 256.884 956.308 256.884C953.744 256.884 951.216 256.083 949.04 254.481C945.203 251.668 943.321 246.993 944.133 242.262L947.988 219.517L931.626 203.405C928.214 200.052 927.033 195.153 928.49 190.589C929.947 186.044 933.784 182.784 938.47 182.095L961.104 178.779L971.231 158.066C973.334 153.763 977.577 151.099 982.317 151.099C987.058 151.099 991.319 153.781 993.404 158.066L1003.53 178.779L1026.15 182.095C1030.85 182.784 1034.69 186.044 1036.14 190.608ZM1015.28 197.444L998.938 195.041C994.916 194.445 991.43 191.893 989.641 188.223L982.317 173.247L975.012 188.205C973.205 191.893 969.718 194.445 965.697 195.041L949.353 197.444L961.178 209.086C964.092 211.955 965.42 216.09 964.738 220.151L961.934 236.58L976.562 228.813C980.159 226.894 984.476 226.894 988.073 228.813L1002.7 236.58L999.897 220.132C999.214 216.09 1000.54 211.955 1003.46 209.086L1015.28 197.444Z" fill="#001933" fill-opacity="0.03"/>
</g>
<defs>
<linearGradient id="paint0_linear_16_145" x1="-33.4211" y1="454.974" x2="-12.5512" y2="335.352" gradientUnits="userSpaceOnUse">
<stop offset="0.0001" stop-color="#063A70"/>
<stop offset="1" stop-color="#2864A4"/>
</linearGradient>
<linearGradient id="paint1_linear_16_145" x1="1145.6" y1="424.084" x2="1189.38" y2="302.815" gradientUnits="userSpaceOnUse">
<stop stop-color="#F89822"/>
<stop offset="1" stop-color="#C7791A"/>
</linearGradient>
<linearGradient id="paint2_linear_16_145" x1="265.47" y1="322.278" x2="378.533" y2="43.4913" gradientUnits="userSpaceOnUse">
<stop offset="0.0001" stop-color="#063A70"/>
<stop offset="1" stop-color="#2864A4"/>
</linearGradient>
<clipPath id="clip0_16_145">
<rect width="190" height="190" fill="white" transform="translate(888 109)"/>
</clipPath>
</defs>
</svg>
