<svg width="1440" height="650" viewBox="0 0 1440 650" fill="none" xmlns="http://www.w3.org/2000/svg">
<path d="M1440 0H0V131.147L104.953 440.55C121.595 489.613 163.972 525.474 215.112 533.771L877.315 641.209C912.148 646.86 947.829 639.149 977.219 619.619L1440 312.1V0Z" fill="#E6F2FF"/>
<path opacity="0.03" d="M203.736 282.326C211.633 269.99 225.512 262.803 240.145 263.474L292.747 265.887C307.379 266.558 320.542 274.984 327.278 287.992L351.489 334.753C358.225 347.76 357.509 363.373 349.611 375.71L321.221 420.058C313.324 432.395 299.445 439.581 284.812 438.91L232.21 436.498C217.578 435.827 204.415 427.4 197.68 414.393L173.468 367.632C166.733 354.624 167.449 339.011 175.346 326.675L203.736 282.326Z" fill="url(#paint0_linear_16_146)"/>
<g clip-path="url(#clip0_16_146)">
<path fill-rule="evenodd" clip-rule="evenodd" d="M1118.06 243C1118.06 278.364 1089.56 307.138 1054.54 307.138C1019.52 307.138 991.026 278.364 991.026 243C991.026 207.637 1019.52 178.862 1054.54 178.862C1089.56 178.862 1118.06 207.637 1118.06 243ZM1106.87 243C1106.87 213.862 1083.4 190.156 1054.54 190.156C1025.69 190.156 1002.21 213.862 1002.21 243C1002.21 272.139 1025.69 295.844 1054.54 295.844C1083.4 295.844 1106.87 272.139 1106.87 243Z" fill="#001933" fill-opacity="0.03"/>
<path fill-rule="evenodd" clip-rule="evenodd" d="M1090.8 233.978C1091.78 237.04 1090.98 240.353 1088.69 242.599L1077.67 253.454L1080.26 268.789C1080.81 271.964 1079.53 275.126 1076.95 277.021C1074.36 278.916 1071.01 279.154 1068.17 277.661L1054.54 270.42L1040.91 277.661C1039.68 278.313 1038.35 278.627 1037.02 278.627C1035.29 278.627 1033.59 278.088 1032.12 277.008C1029.54 275.113 1028.27 271.964 1028.82 268.776L1031.41 253.454L1020.39 242.599C1018.09 240.34 1017.3 237.04 1018.28 233.965C1019.26 230.903 1021.84 228.707 1025 228.243L1040.25 226.009L1047.07 212.055C1048.49 209.156 1051.35 207.361 1054.54 207.361C1057.73 207.361 1060.6 209.168 1062.01 212.055L1068.83 226.009L1084.07 228.243C1087.24 228.707 1089.82 230.903 1090.8 233.978ZM1076.75 238.583L1065.74 236.964C1063.03 236.563 1060.68 234.844 1059.47 232.372L1054.54 222.282L1049.62 232.359C1048.4 234.844 1046.05 236.563 1043.34 236.964L1032.33 238.583L1040.3 246.426C1042.26 248.359 1043.16 251.145 1042.7 253.881L1040.81 264.949L1050.66 259.716C1053.09 258.423 1055.99 258.423 1058.42 259.716L1068.27 264.949L1066.38 253.868C1065.92 251.145 1066.82 248.359 1068.78 246.426L1076.75 238.583Z" fill="#001933" fill-opacity="0.03"/>
</g>
<defs>
<linearGradient id="paint0_linear_16_146" x1="227.172" y1="415.885" x2="308.806" y2="214.595" gradientUnits="userSpaceOnUse">
<stop offset="0.0001" stop-color="#063A70"/>
<stop offset="1" stop-color="#2864A4"/>
</linearGradient>
<clipPath id="clip0_16_146">
<rect width="128" height="128" fill="white" transform="translate(991 179)"/>
</clipPath>
</defs>
</svg>
