<svg width="1440" height="600" viewBox="0 0 1440 600" fill="none" xmlns="http://www.w3.org/2000/svg">
<path d="M1440 0H0V121.058L103.382 402.387C121.028 450.406 163.46 484.976 214.054 492.553L881.049 592.444C913.635 597.324 946.898 590.555 974.985 573.327L1440 288.093V0Z" fill="#E6F2FF"/>
<path opacity="0.03" d="M248.137 208.336C256.035 196 269.914 188.813 284.546 189.484L387.096 194.187C401.728 194.858 414.891 203.285 421.626 216.292L468.828 307.454C475.563 320.462 474.847 336.074 466.95 348.411L411.602 434.87C403.705 447.207 389.826 454.393 375.193 453.722L272.644 449.019C258.011 448.348 244.848 439.922 238.113 426.914L190.911 335.752C184.176 322.745 184.892 307.132 192.79 294.795L248.137 208.336Z" fill="url(#paint0_linear_99_131)"/>
<g clip-path="url(#clip0_99_131)">
<path fill-rule="evenodd" clip-rule="evenodd" d="M1114.32 270.001C1114.32 332.991 1063.56 384.247 1001.18 384.247C938.803 384.247 888.046 332.991 888.046 270.001C888.046 207.01 938.803 155.755 1001.18 155.755C1063.56 155.755 1114.32 207.01 1114.32 270.001ZM1094.4 270.001C1094.4 218.097 1052.58 175.873 1001.18 175.873C949.783 175.873 907.968 218.097 907.968 270.001C907.968 321.904 949.783 364.129 1001.18 364.129C1052.58 364.129 1094.4 321.904 1094.4 270.001Z" fill="#001933" fill-opacity="0.03"/>
<path fill-rule="evenodd" clip-rule="evenodd" d="M1065.77 253.929C1067.52 259.383 1066.08 265.285 1062.01 269.286L1042.38 288.621L1047 315.936C1047.98 321.592 1045.7 327.225 1041.09 330.6C1036.49 333.975 1030.51 334.4 1025.46 331.74L1001.18 318.842L976.898 331.74C974.706 332.902 972.338 333.461 969.969 333.461C966.892 333.461 963.86 332.5 961.248 330.578C956.643 327.202 954.386 321.592 955.36 315.914L959.986 288.621L940.351 269.286C936.256 265.262 934.84 259.383 936.588 253.907C938.337 248.453 942.941 244.541 948.564 243.714L975.725 239.735L987.877 214.879C990.401 209.715 995.492 206.519 1001.18 206.519C1006.87 206.519 1011.98 209.738 1014.48 214.879L1026.64 239.735L1053.78 243.714C1059.42 244.541 1064.02 248.453 1065.77 253.929ZM1040.74 262.133L1021.13 259.249C1016.3 258.534 1012.12 255.472 1009.97 251.068L1001.18 233.096L992.415 251.046C990.246 255.472 986.062 258.534 981.236 259.249L961.624 262.133L975.813 276.103C979.311 279.546 980.904 284.508 980.085 289.381L976.721 309.096L994.275 299.775C998.591 297.473 1003.77 297.473 1008.09 299.775L1025.64 309.096L1022.28 289.359C1021.46 284.508 1023.05 279.546 1026.55 276.103L1040.74 262.133Z" fill="#001933" fill-opacity="0.03"/>
</g>
<defs>
<linearGradient id="paint0_linear_99_131" x1="276.909" y1="418.643" x2="399.361" y2="116.707" gradientUnits="userSpaceOnUse">
<stop offset="0.0001" stop-color="#063A70"/>
<stop offset="1" stop-color="#2864A4"/>
</linearGradient>
<clipPath id="clip0_99_131">
<rect width="228" height="228" fill="white" transform="translate(888 156)"/>
</clipPath>
</defs>
</svg>
