<svg width="1440" height="901" viewBox="0 0 1440 901" fill="none" xmlns="http://www.w3.org/2000/svg">
<g filter="url(#filter0_d_54_148)">
<rect width="1440" height="893" fill="url(#paint0_linear_54_148)"/>
<rect x="0.5" y="0.5" width="1439" height="892" stroke="black"/>
</g>
<path d="M891.2 0H1025.6V380.8C1025.6 417.914 995.514 448 958.4 448V448C921.287 448 891.2 417.914 891.2 380.8V0Z" fill="#3172B9"/>
<path d="M1182.4 0H1316.8V246.4C1316.8 283.513 1286.71 313.6 1249.6 313.6V313.6C1212.49 313.6 1182.4 283.514 1182.4 246.4V0Z" fill="#3172B9"/>
<rect x="891.2" width="425.6" height="212.8" fill="#3172B9"/>
<path d="M1182.4 372.587L1025.6 372.587L1025.6 137.387C1025.6 94.0882 1060.7 58.9872 1104 58.9872V58.9872C1147.3 58.9872 1182.4 94.0881 1182.4 137.387L1182.4 372.587Z" fill="#2863A3"/>
<path d="M262.345 455.961C267.332 450.355 274.931 447.836 282.278 449.353L388.951 471.366C396.298 472.882 402.279 478.203 404.64 485.324L438.912 588.712C441.273 595.833 439.655 603.673 434.668 609.278L362.268 690.653C357.281 696.258 349.683 698.777 342.335 697.261L235.663 675.248C228.315 673.731 222.334 668.41 219.974 661.289L185.701 557.902C183.34 550.78 184.958 542.94 189.945 537.335L262.345 455.961Z" fill="#073C71" fill-opacity="0.82"/>
<path d="M71.4913 247.604C76.4783 241.999 84.0768 239.48 91.4246 240.996L215.661 266.633C223.009 268.15 228.99 273.471 231.35 280.592L271.266 401.003C273.627 408.125 272.009 415.965 267.022 421.57L182.701 516.343C177.714 521.948 170.115 524.467 162.768 522.951L38.531 497.314C31.1833 495.797 25.2026 490.476 22.8419 483.355L-17.0739 362.944C-19.4346 355.823 -17.8168 347.983 -12.8297 342.377L71.4913 247.604Z" fill="#073C71" fill-opacity="0.82"/>
<path d="M9.34512 528.961C14.3321 523.355 21.9307 520.837 29.2784 522.353L135.951 544.366C143.298 545.882 149.279 551.203 151.64 558.324L185.912 661.712C188.273 668.833 186.655 676.673 181.668 682.278L109.268 763.653C104.281 769.258 96.6829 771.777 89.3351 770.261L-17.3371 748.248C-24.6849 746.732 -30.6656 741.411 -33.0263 734.289L-67.2988 630.902C-69.6595 623.78 -68.0417 615.94 -63.0546 610.335L9.34512 528.961Z" fill="#073C71" fill-opacity="0.82"/>
<defs>
<filter id="filter0_d_54_148" x="-4" y="0" width="1448" height="901" filterUnits="userSpaceOnUse" color-interpolation-filters="sRGB">
<feFlood flood-opacity="0" result="BackgroundImageFix"/>
<feColorMatrix in="SourceAlpha" type="matrix" values="0 0 0 0 0 0 0 0 0 0 0 0 0 0 0 0 0 0 127 0" result="hardAlpha"/>
<feOffset dy="4"/>
<feGaussianBlur stdDeviation="2"/>
<feComposite in2="hardAlpha" operator="out"/>
<feColorMatrix type="matrix" values="0 0 0 0 0 0 0 0 0 0 0 0 0 0 0 0 0 0 0.25 0"/>
<feBlend mode="normal" in2="BackgroundImageFix" result="effect1_dropShadow_54_148"/>
<feBlend mode="normal" in="SourceGraphic" in2="effect1_dropShadow_54_148" result="shape"/>
</filter>
<linearGradient id="paint0_linear_54_148" x1="944" y1="219" x2="75" y2="740" gradientUnits="userSpaceOnUse">
<stop stop-color="#2863A3"/>
<stop offset="0.83005" stop-color="#05396E"/>
</linearGradient>
</defs>
</svg>
