<svg width="450" height="433" viewBox="0 0 450 433" fill="none" xmlns="http://www.w3.org/2000/svg">
<path d="M12.6797 96.4108C4.35243 135.967 0.764303 226.375 53.0299 271.564C118.362 328.05 188.882 284.103 229.455 409.868" stroke="white" stroke-dasharray="4 4"/>
<g filter="url(#filter0_b_59_1245)">
<rect x="15" y="165.196" width="483" height="272" rx="20" transform="rotate(-20 15 165.196)" fill="white" fill-opacity="0.2"/>
<rect x="13.1053" y="164.312" width="485.957" height="274.957" rx="21.4783" transform="rotate(-20 13.1053 164.312)" stroke="url(#paint0_linear_59_1245)" stroke-width="2.95652"/>
</g>
<path d="M124.71 358.983L126.304 363.362L131.078 361.625L131.591 363.034L126.817 364.772L128.459 369.282L133.796 367.339L134.309 368.749L127.261 371.314L122.487 358.196L129.535 355.631L130.048 357.04L124.71 358.983ZM139.873 359.317L146.275 364.394L144.339 365.098L139.34 361.129L138.213 367.328L136.314 368.019L137.937 360.022L131.528 354.927L133.445 354.229L138.47 358.21L139.609 351.985L141.526 351.288L139.873 359.317ZM153.955 351.106C154.352 352.196 154.307 353.241 153.82 354.241C153.34 355.224 152.336 355.994 150.808 356.55L148.289 357.467L150.28 362.936L148.57 363.559L143.802 350.459L148.031 348.92C149.509 348.382 150.76 348.331 151.785 348.767C152.821 349.198 153.545 349.978 153.955 351.106ZM150.295 355.141C151.247 354.794 151.873 354.332 152.174 353.755C152.475 353.177 152.486 352.506 152.208 351.742C151.619 350.125 150.398 349.655 148.544 350.33L146.025 351.246L147.776 356.058L150.295 355.141ZM156.396 345.875L161.164 358.975L159.453 359.597L154.686 346.498L156.396 345.875ZM170.976 355.403L165.906 351.183L163.839 351.935L165.789 357.291L164.078 357.914L159.311 344.815L163.539 343.276C164.529 342.915 165.424 342.781 166.223 342.873C167.036 342.961 167.716 343.231 168.264 343.684C168.812 344.137 169.221 344.734 169.49 345.473C169.818 346.375 169.844 347.266 169.569 348.147C169.306 349.023 168.696 349.763 167.738 350.367L173.024 354.658L170.976 355.403ZM163.34 350.563L165.858 349.647C166.785 349.309 167.399 348.831 167.698 348.211C167.993 347.578 168.001 346.88 167.723 346.116C167.44 345.339 166.99 344.822 166.371 344.565C165.765 344.303 164.992 344.343 164.052 344.685L161.534 345.602L163.34 350.563ZM172.961 341.421L174.555 345.8L179.329 344.063L179.842 345.472L175.068 347.21L176.71 351.72L182.047 349.778L182.56 351.187L175.512 353.752L170.738 340.634L177.786 338.069L178.299 339.478L172.961 341.421ZM184.459 335.661C185.887 335.142 187.219 334.962 188.455 335.122C189.699 335.265 190.777 335.731 191.688 336.521C192.612 337.305 193.318 338.368 193.806 339.708C194.294 341.049 194.437 342.317 194.233 343.512C194.037 344.69 193.509 345.733 192.648 346.643C191.795 347.535 190.655 348.241 189.226 348.761L185.148 350.245L180.38 337.146L184.459 335.661ZM188.713 347.351C190.405 346.736 191.533 345.821 192.099 344.608C192.66 343.382 192.647 341.961 192.059 340.345C191.466 338.716 190.552 337.608 189.317 337.022C188.094 336.431 186.644 336.441 184.965 337.052L182.597 337.914L186.345 348.213L188.713 347.351Z" fill="#D6DCFF"/>
<path d="M222.388 329.402C221.599 327.234 221.347 325.41 221.631 323.931C221.923 322.434 222.965 321.359 224.757 320.707C226.549 320.055 228.031 320.211 229.205 321.174C230.386 322.12 231.372 323.677 232.161 325.845C232.959 328.037 233.214 329.888 232.926 331.398C232.646 332.89 231.611 333.962 229.819 334.615C228.027 335.267 226.538 335.113 225.352 334.154C224.174 333.179 223.186 331.594 222.388 329.402ZM230.056 326.611C229.686 325.596 229.305 324.763 228.912 324.111C228.531 323.455 228.061 322.981 227.5 322.688C226.935 322.383 226.258 322.374 225.468 322.662C224.679 322.949 224.166 323.391 223.929 323.988C223.688 324.573 223.626 325.241 223.744 325.992C223.874 326.74 224.123 327.621 224.493 328.636C224.876 329.688 225.26 330.549 225.645 331.217C226.03 331.886 226.503 332.366 227.064 332.659C227.637 332.947 228.318 332.947 229.107 332.66C229.897 332.373 230.412 331.937 230.653 331.352C230.907 330.763 230.967 330.089 230.832 329.329C230.698 328.569 230.439 327.663 230.056 326.611ZM235.817 324.514C235.028 322.346 234.776 320.523 235.06 319.043C235.352 317.546 236.394 316.471 238.186 315.819C239.978 315.167 241.46 315.323 242.634 316.286C243.815 317.233 244.801 318.789 245.59 320.957C246.388 323.15 246.643 325.001 246.355 326.51C246.075 328.002 245.039 329.075 243.248 329.727C241.456 330.379 239.967 330.226 238.781 329.267C237.603 328.291 236.615 326.707 235.817 324.514ZM243.485 321.723C243.115 320.708 242.734 319.875 242.341 319.224C241.96 318.568 241.489 318.093 240.929 317.801C240.364 317.496 239.687 317.487 238.897 317.774C238.108 318.061 237.595 318.503 237.358 319.1C237.117 319.685 237.055 320.353 237.172 321.105C237.303 321.852 237.552 322.733 237.922 323.748C238.305 324.8 238.689 325.661 239.074 326.329C239.459 326.998 239.932 327.479 240.493 327.771C241.066 328.059 241.747 328.06 242.536 327.772C243.326 327.485 243.841 327.049 244.082 326.465C244.336 325.876 244.396 325.201 244.261 324.441C244.127 323.682 243.868 322.776 243.485 321.723ZM252.582 306.28L255.125 329.171L253.02 329.937L250.459 307.053L252.582 306.28ZM260.289 315.607C259.5 313.439 259.247 311.616 259.532 310.136C259.824 308.639 260.866 307.564 262.658 306.912C264.449 306.26 265.932 306.416 267.106 307.379C268.287 308.325 269.273 309.882 270.061 312.05C270.859 314.243 271.115 316.094 270.827 317.603C270.547 319.095 269.511 320.168 267.72 320.82C265.928 321.472 264.439 321.319 263.253 320.36C262.075 319.384 261.087 317.8 260.289 315.607ZM267.957 312.816C267.587 311.801 267.206 310.968 266.813 310.317C266.432 309.661 265.961 309.186 265.401 308.894C264.836 308.588 264.159 308.58 263.369 308.867C262.58 309.154 262.067 309.596 261.83 310.193C261.589 310.778 261.527 311.446 261.644 312.198C261.774 312.945 262.024 313.826 262.394 314.841C262.777 315.893 263.161 316.754 263.546 317.422C263.931 318.091 264.404 318.571 264.965 318.864C265.538 319.152 266.219 319.152 267.008 318.865C267.798 318.578 268.313 318.142 268.554 317.558C268.808 316.969 268.868 316.294 268.733 315.534C268.598 314.775 268.34 313.869 267.957 312.816ZM273.718 310.719C272.929 308.552 272.676 306.728 272.961 305.248C273.253 303.751 274.295 302.677 276.087 302.025C277.878 301.372 279.361 301.528 280.535 302.491C281.716 303.438 282.701 304.995 283.49 307.162C284.288 309.355 284.544 311.206 284.256 312.715C283.976 314.208 282.94 315.28 281.149 315.932C279.357 316.584 277.868 316.431 276.682 315.472C275.504 314.496 274.516 312.912 273.718 310.719ZM281.385 307.928C281.016 306.913 280.635 306.08 280.242 305.429C279.861 304.773 279.39 304.298 278.83 304.006C278.265 303.701 277.587 303.692 276.798 303.979C276.009 304.266 275.496 304.709 275.259 305.306C275.018 305.89 274.956 306.558 275.073 307.31C275.203 308.057 275.453 308.938 275.822 309.953C276.206 311.006 276.59 311.866 276.975 312.535C277.36 313.203 277.833 313.684 278.394 313.976C278.967 314.264 279.648 314.265 280.437 313.977C281.227 313.69 281.742 313.254 281.983 312.67C282.237 312.081 282.297 311.406 282.162 310.647C282.027 309.887 281.769 308.981 281.385 307.928Z" fill="#D6DCFF"/>
<path d="M97.0381 282.519L95.971 279.587L101.835 277.453L109.315 298.004L106.073 299.184L99.6599 281.564L97.0381 282.519ZM113.915 291.381C115.152 289.164 116.106 287.37 116.777 285.998C117.46 284.6 117.951 283.229 118.249 281.886C118.548 280.543 118.499 279.326 118.102 278.236C117.692 277.108 117.098 276.324 116.32 275.884C115.561 275.436 114.609 275.421 113.462 275.838C112.353 276.242 111.619 276.914 111.258 277.854C110.91 278.768 110.933 279.824 111.326 281.022L108.225 282.15C107.502 279.987 107.546 278.12 108.357 276.547C109.18 274.949 110.54 273.805 112.439 273.114C114.487 272.369 116.29 272.351 117.847 273.061C119.422 273.765 120.552 275.056 121.236 276.936C121.729 278.289 121.856 279.722 121.619 281.234C121.394 282.721 120.984 284.136 120.388 285.481C119.804 286.801 119.015 288.375 118.021 290.206L117.163 291.795L126.099 288.542L127.074 291.221L113.373 296.207L112.522 293.867L113.915 291.381ZM124.31 275.019C123.787 273.23 123.958 271.624 124.824 270.203C125.709 268.774 127.11 267.711 129.027 267.013C130.342 266.534 131.565 266.355 132.694 266.476C133.824 266.597 134.78 266.973 135.563 267.603C136.345 268.233 136.922 269.056 137.291 270.071C137.715 271.236 137.767 272.345 137.448 273.398C137.129 274.45 136.588 275.275 135.827 275.871L135.868 275.984C137.1 275.919 138.19 276.224 139.138 276.901C140.08 277.558 140.804 278.582 141.31 279.973C141.714 281.082 141.819 282.161 141.626 283.21C141.434 284.259 140.932 285.219 140.12 286.089C139.302 286.94 138.197 287.619 136.807 288.125C134.777 288.864 132.916 288.956 131.224 288.401C129.545 287.821 128.302 286.57 127.497 284.65L130.598 283.521C131.035 284.49 131.718 285.167 132.646 285.553C133.567 285.92 134.62 285.888 135.804 285.457C136.95 285.04 137.721 284.408 138.115 283.562C138.503 282.698 138.515 281.767 138.153 280.771C137.674 279.456 136.912 278.679 135.868 278.442C134.836 278.179 133.456 278.363 131.727 278.992L130.994 279.259L130.029 276.609L130.79 276.332C132.306 275.759 133.369 275.084 133.981 274.308C134.611 273.526 134.735 272.608 134.352 271.556C134.023 270.653 133.472 270.045 132.698 269.731C131.917 269.398 130.991 269.427 129.919 269.817C128.867 270.2 128.149 270.77 127.764 271.527C127.373 272.265 127.265 273.049 127.44 273.88L124.31 275.019ZM144.784 280.241L143.901 277.817L148.428 260.781L152.318 259.365L157.131 272.587L159.752 271.633L160.768 274.424L158.146 275.378L159.706 279.663L156.549 280.812L154.989 276.527L144.784 280.241ZM150.492 263.733L147.461 276.106L154.114 273.685L150.492 263.733Z" fill="white"/>
<path d="M198.036 253.441C196.853 250.189 196.475 247.454 196.901 245.234C197.34 242.989 198.903 241.377 201.59 240.399C204.278 239.421 206.502 239.654 208.262 241.099C210.034 242.518 211.512 244.854 212.696 248.105C213.893 251.394 214.275 254.171 213.844 256.435C213.424 258.673 211.87 260.282 209.183 261.26C206.495 262.238 204.262 262.008 202.483 260.57C200.716 259.106 199.233 256.73 198.036 253.441ZM209.538 249.254C208.984 247.732 208.412 246.482 207.822 245.505C207.251 244.521 206.546 243.81 205.705 243.371C204.857 242.913 203.841 242.9 202.657 243.331C201.473 243.761 200.704 244.425 200.348 245.32C199.986 246.197 199.894 247.199 200.07 248.327C200.265 249.448 200.64 250.769 201.194 252.291C201.768 253.87 202.345 255.161 202.922 256.164C203.5 257.167 204.21 257.887 205.05 258.326C205.91 258.758 206.932 258.759 208.116 258.328C209.3 257.897 210.073 257.243 210.435 256.367C210.816 255.483 210.905 254.471 210.703 253.332C210.501 252.192 210.113 250.833 209.538 249.254ZM216.096 246.867C214.913 243.616 214.534 240.881 214.961 238.661C215.399 236.415 216.962 234.804 219.65 233.825C222.337 232.847 224.561 233.081 226.322 234.526C228.094 235.945 229.572 238.281 230.755 241.532C231.952 244.821 232.335 247.597 231.903 249.862C231.484 252.1 229.93 253.708 227.243 254.687C224.555 255.665 222.322 255.435 220.543 253.997C218.775 252.533 217.293 250.156 216.096 246.867ZM227.598 242.681C227.044 241.159 226.472 239.909 225.882 238.932C225.311 237.948 224.605 237.236 223.764 236.797C222.917 236.34 221.901 236.326 220.717 236.757C219.533 237.188 218.763 237.851 218.408 238.747C218.046 239.624 217.953 240.626 218.13 241.754C218.325 242.874 218.699 244.196 219.253 245.718C219.828 247.297 220.404 248.588 220.982 249.591C221.56 250.593 222.269 251.314 223.11 251.753C223.97 252.185 224.992 252.186 226.176 251.755C227.36 251.324 228.133 250.67 228.495 249.793C228.875 248.91 228.965 247.898 228.763 246.759C228.561 245.619 228.173 244.26 227.598 242.681ZM234.156 240.294C232.972 237.043 232.594 234.307 233.021 232.088C233.459 229.842 235.022 228.23 237.71 227.252C240.397 226.274 242.621 226.508 244.381 227.953C246.154 229.372 247.632 231.707 248.815 234.959C250.012 238.248 250.395 241.024 249.963 243.288C249.544 245.527 247.99 247.135 245.302 248.113C242.615 249.092 240.382 248.862 238.602 247.423C236.835 245.96 235.353 243.583 234.156 240.294ZM245.658 236.108C245.104 234.586 244.532 233.336 243.942 232.359C243.371 231.375 242.665 230.663 241.824 230.224C240.976 229.767 239.961 229.753 238.777 230.184C237.593 230.615 236.823 231.278 236.468 232.174C236.106 233.05 236.013 234.053 236.189 235.18C236.385 236.301 236.759 237.623 237.313 239.145C237.888 240.724 238.464 242.015 239.042 243.017C239.62 244.02 240.329 244.741 241.17 245.18C242.029 245.612 243.051 245.613 244.235 245.182C245.419 244.751 246.192 244.097 246.554 243.22C246.935 242.337 247.024 241.325 246.823 240.185C246.621 239.046 246.232 237.687 245.658 236.108ZM252.216 233.721C251.032 230.47 250.654 227.734 251.08 225.514C251.519 223.269 253.082 221.657 255.769 220.679C258.457 219.701 260.681 219.934 262.441 221.379C264.213 222.799 265.691 225.134 266.875 228.386C268.072 231.674 268.455 234.451 268.023 236.715C267.603 238.954 266.05 240.562 263.362 241.54C260.675 242.518 258.441 242.288 256.662 240.85C254.895 239.386 253.413 237.01 252.216 233.721ZM263.717 229.535C263.163 228.012 262.591 226.763 262.002 225.785C261.431 224.801 260.725 224.09 259.884 223.651C259.036 223.193 258.02 223.18 256.836 223.611C255.652 224.042 254.883 224.705 254.528 225.601C254.166 226.477 254.073 227.479 254.249 228.607C254.444 229.728 254.819 231.05 255.373 232.572C255.948 234.151 256.524 235.441 257.102 236.444C257.679 237.447 258.389 238.168 259.23 238.607C260.089 239.039 261.111 239.039 262.295 238.608C263.479 238.177 264.252 237.524 264.614 236.647C264.995 235.763 265.084 234.752 264.882 233.612C264.68 232.473 264.292 231.113 263.717 229.535Z" fill="white"/>
<path d="M305.036 214.441C303.853 211.189 303.475 208.454 303.901 206.234C304.34 203.989 305.903 202.377 308.59 201.399C311.278 200.421 313.502 200.654 315.262 202.099C317.034 203.518 318.512 205.854 319.696 209.105C320.893 212.394 321.275 215.171 320.844 217.435C320.424 219.673 318.87 221.282 316.183 222.26C313.495 223.238 311.262 223.008 309.483 221.57C307.716 220.106 306.233 217.73 305.036 214.441ZM316.538 210.254C315.984 208.732 315.412 207.482 314.822 206.505C314.251 205.521 313.546 204.81 312.705 204.371C311.857 203.913 310.841 203.9 309.657 204.331C308.473 204.761 307.704 205.425 307.348 206.32C306.986 207.197 306.894 208.199 307.07 209.327C307.265 210.448 307.64 211.769 308.194 213.291C308.768 214.87 309.345 216.161 309.922 217.164C310.5 218.167 311.21 218.887 312.05 219.326C312.91 219.758 313.932 219.759 315.116 219.328C316.3 218.897 317.073 218.243 317.435 217.367C317.816 216.483 317.905 215.471 317.703 214.332C317.501 213.192 317.113 211.833 316.538 210.254ZM323.096 207.867C321.913 204.616 321.534 201.881 321.961 199.661C322.399 197.415 323.962 195.804 326.65 194.825C329.337 193.847 331.561 194.081 333.322 195.526C335.094 196.945 336.572 199.281 337.755 202.532C338.952 205.821 339.335 208.597 338.903 210.862C338.484 213.1 336.93 214.708 334.243 215.687C331.555 216.665 329.322 216.435 327.543 214.997C325.775 213.533 324.293 211.156 323.096 207.867ZM334.598 203.681C334.044 202.159 333.472 200.909 332.882 199.932C332.311 198.948 331.605 198.236 330.764 197.797C329.917 197.34 328.901 197.326 327.717 197.757C326.533 198.188 325.763 198.851 325.408 199.747C325.046 200.624 324.953 201.626 325.13 202.754C325.325 203.874 325.699 205.196 326.253 206.718C326.828 208.297 327.404 209.588 327.982 210.591C328.56 211.593 329.269 212.314 330.11 212.753C330.97 213.185 331.992 213.186 333.176 212.755C334.36 212.324 335.133 211.67 335.495 210.793C335.875 209.91 335.965 208.898 335.763 207.759C335.561 206.619 335.173 205.26 334.598 203.681ZM341.156 201.294C339.972 198.043 339.594 195.307 340.021 193.088C340.459 190.842 342.022 189.23 344.71 188.252C347.397 187.274 349.621 187.508 351.381 188.953C353.154 190.372 354.632 192.707 355.815 195.959C357.012 199.248 357.395 202.024 356.963 204.288C356.544 206.527 354.99 208.135 352.302 209.113C349.615 210.092 347.382 209.862 345.602 208.423C343.835 206.96 342.353 204.583 341.156 201.294ZM352.658 197.108C352.104 195.586 351.532 194.336 350.942 193.359C350.371 192.375 349.665 191.663 348.824 191.224C347.976 190.767 346.961 190.753 345.777 191.184C344.593 191.615 343.823 192.278 343.468 193.174C343.106 194.05 343.013 195.053 343.189 196.18C343.385 197.301 343.759 198.623 344.313 200.145C344.888 201.724 345.464 203.015 346.042 204.017C346.62 205.02 347.329 205.741 348.17 206.18C349.029 206.612 350.051 206.613 351.235 206.182C352.419 205.751 353.192 205.097 353.554 204.22C353.935 203.337 354.024 202.325 353.823 201.185C353.621 200.046 353.232 198.687 352.658 197.108ZM359.216 194.721C358.032 191.47 357.654 188.734 358.08 186.514C358.519 184.269 360.082 182.657 362.769 181.679C365.457 180.701 367.681 180.934 369.441 182.379C371.213 183.799 372.691 186.134 373.875 189.386C375.072 192.674 375.455 195.451 375.023 197.715C374.603 199.954 373.05 201.562 370.362 202.54C367.675 203.518 365.441 203.288 363.662 201.85C361.895 200.386 360.413 198.01 359.216 194.721ZM370.717 190.535C370.163 189.012 369.591 187.763 369.002 186.785C368.431 185.801 367.725 185.09 366.884 184.651C366.036 184.193 365.02 184.18 363.836 184.611C362.652 185.042 361.883 185.705 361.528 186.601C361.166 187.477 361.073 188.479 361.249 189.607C361.444 190.728 361.819 192.05 362.373 193.572C362.948 195.151 363.524 196.441 364.102 197.444C364.679 198.447 365.389 199.168 366.23 199.607C367.089 200.039 368.111 200.039 369.295 199.608C370.479 199.177 371.252 198.524 371.614 197.647C371.995 196.763 372.084 195.752 371.882 194.612C371.68 193.473 371.292 192.113 370.717 190.535Z" fill="white"/>
<path d="M412.036 175.441C410.853 172.189 410.475 169.454 410.901 167.234C411.34 164.989 412.903 163.377 415.59 162.399C418.278 161.421 420.502 161.654 422.262 163.099C424.034 164.518 425.512 166.854 426.696 170.105C427.893 173.394 428.275 176.171 427.844 178.435C427.424 180.673 425.87 182.282 423.183 183.26C420.495 184.238 418.262 184.008 416.483 182.57C414.716 181.106 413.233 178.73 412.036 175.441ZM423.538 171.254C422.984 169.732 422.412 168.482 421.822 167.505C421.251 166.521 420.546 165.81 419.705 165.371C418.857 164.913 417.841 164.9 416.657 165.331C415.473 165.761 414.704 166.425 414.348 167.32C413.986 168.197 413.894 169.199 414.07 170.327C414.265 171.448 414.64 172.769 415.194 174.291C415.768 175.87 416.345 177.161 416.922 178.164C417.5 179.167 418.21 179.887 419.05 180.326C419.91 180.758 420.932 180.759 422.116 180.328C423.3 179.897 424.073 179.243 424.435 178.367C424.816 177.483 424.905 176.471 424.703 175.332C424.501 174.192 424.113 172.833 423.538 171.254ZM430.096 168.867C428.913 165.616 428.534 162.881 428.961 160.661C429.399 158.415 430.962 156.804 433.65 155.825C436.337 154.847 438.561 155.081 440.322 156.526C442.094 157.945 443.572 160.281 444.755 163.532C445.952 166.821 446.335 169.597 445.903 171.862C445.484 174.1 443.93 175.708 441.243 176.687C438.555 177.665 436.322 177.435 434.543 175.997C432.775 174.533 431.293 172.156 430.096 168.867ZM441.598 164.681C441.044 163.159 440.472 161.909 439.882 160.932C439.311 159.948 438.605 159.236 437.764 158.797C436.917 158.34 435.901 158.326 434.717 158.757C433.533 159.188 432.763 159.851 432.408 160.747C432.046 161.624 431.953 162.626 432.13 163.754C432.325 164.874 432.699 166.196 433.253 167.718C433.828 169.297 434.404 170.588 434.982 171.591C435.56 172.593 436.269 173.314 437.11 173.753C437.97 174.185 438.992 174.186 440.176 173.755C441.36 173.324 442.133 172.67 442.495 171.793C442.875 170.91 442.965 169.898 442.763 168.759C442.561 167.619 442.173 166.26 441.598 164.681ZM448.156 162.294C446.972 159.043 446.594 156.307 447.021 154.088C447.459 151.842 449.022 150.23 451.71 149.252C454.397 148.274 456.621 148.508 458.381 149.953C460.154 151.372 461.632 153.707 462.815 156.959C464.012 160.248 464.395 163.024 463.963 165.288C463.544 167.527 461.99 169.135 459.302 170.113C456.615 171.092 454.382 170.862 452.602 169.423C450.835 167.96 449.353 165.583 448.156 162.294ZM459.658 158.108C459.104 156.586 458.532 155.336 457.942 154.359C457.371 153.375 456.665 152.663 455.824 152.224C454.976 151.767 453.961 151.753 452.777 152.184C451.593 152.615 450.823 153.278 450.468 154.174C450.106 155.05 450.013 156.053 450.189 157.18C450.385 158.301 450.759 159.623 451.313 161.145C451.888 162.724 452.464 164.015 453.042 165.017C453.62 166.02 454.329 166.741 455.17 167.18C456.029 167.612 457.051 167.613 458.235 167.182C459.419 166.751 460.192 166.097 460.554 165.22C460.935 164.337 461.024 163.325 460.823 162.185C460.621 161.046 460.232 159.687 459.658 158.108ZM466.216 155.721C465.032 152.47 464.654 149.734 465.08 147.514C465.519 145.269 467.082 143.657 469.769 142.679C472.457 141.701 474.681 141.934 476.441 143.379C478.213 144.799 479.691 147.134 480.875 150.386C482.072 153.674 482.455 156.451 482.023 158.715C481.603 160.954 480.05 162.562 477.362 163.54C474.675 164.518 472.441 164.288 470.662 162.85C468.895 161.386 467.413 159.01 466.216 155.721ZM477.717 151.535C477.163 150.012 476.591 148.763 476.002 147.785C475.431 146.801 474.725 146.09 473.884 145.651C473.036 145.193 472.02 145.18 470.836 145.611C469.652 146.042 468.883 146.705 468.528 147.601C468.166 148.477 468.073 149.479 468.249 150.607C468.444 151.728 468.819 153.05 469.373 154.572C469.948 156.151 470.524 157.441 471.102 158.444C471.679 159.447 472.389 160.168 473.23 160.607C474.089 161.039 475.111 161.039 476.295 160.608C477.479 160.177 478.252 159.524 478.614 158.647C478.995 157.763 479.084 156.752 478.882 155.612C478.68 154.473 478.292 153.113 477.717 151.535Z" fill="white"/>
<g clip-path="url(#clip0_59_1245)">
<path fill-rule="evenodd" clip-rule="evenodd" d="M169.159 172.792C167.579 168.452 164.528 164.802 160.537 162.479C159.463 161.853 159.099 160.476 159.725 159.402C160.35 158.328 161.727 157.964 162.801 158.59C167.702 161.443 171.448 165.924 173.387 171.253C175.327 176.582 175.338 182.422 173.417 187.758C172.997 188.927 171.708 189.534 170.538 189.113C169.369 188.692 168.762 187.403 169.183 186.234C170.747 181.888 170.738 177.132 169.159 172.792Z" fill="#D5DBFF"/>
<path fill-rule="evenodd" clip-rule="evenodd" d="M183.692 167.417C181.214 160.61 176.338 154.941 169.979 151.473C168.888 150.878 168.486 149.511 169.081 148.421C169.676 147.33 171.043 146.927 172.133 147.522C179.455 151.515 185.068 158.041 187.92 165.878C190.772 173.714 190.668 182.322 187.625 190.086C187.172 191.243 185.867 191.814 184.71 191.36C183.553 190.907 182.982 189.602 183.436 188.445C186.078 181.7 186.169 174.224 183.692 167.417Z" fill="#D5DBFF"/>
<path fill-rule="evenodd" clip-rule="evenodd" d="M157.299 177.034C156.607 175.132 155.34 173.493 153.674 172.344C152.651 171.638 152.395 170.237 153.1 169.214C153.806 168.191 155.207 167.934 156.23 168.64C158.664 170.32 160.516 172.715 161.527 175.495C162.539 178.274 162.661 181.299 161.876 184.151C161.546 185.349 160.307 186.053 159.109 185.723C157.911 185.393 157.207 184.154 157.537 182.956C158.074 181.005 157.991 178.935 157.299 177.034Z" fill="#D5DBFF"/>
</g>
<path d="M116.363 165.988C119.454 164.863 122.859 166.422 123.969 169.471L126.552 176.569L109.238 182.871L104.646 170.253L116.363 165.988Z" fill="#FFE5A4"/>
<path d="M82.6098 178.273L98.6846 222.438L132.438 210.153C135.529 209.028 137.135 205.644 136.025 202.595L133.441 195.497L111.406 203.518L99.9236 171.971L82.6098 178.273Z" fill="#FFE5A4"/>
<path d="M127.7 179.724L132.293 192.343L114.979 198.645L110.387 186.026L127.7 179.724Z" fill="#FFE5A4"/>
<path d="M93.9628 224.157L89.37 211.538L70.4821 218.413L73.0656 225.511C74.1753 228.56 77.5805 230.12 80.6713 228.995L93.9628 224.157Z" fill="#FFE5A4"/>
<path d="M83.6289 195.765L88.2217 208.384L69.3339 215.258L64.7411 202.64L83.6289 195.765Z" fill="#FFE5A4"/>
<path d="M82.4806 192.61L77.8878 179.992L64.5964 184.829C61.5056 185.954 59.8996 189.338 61.0094 192.387L63.5928 199.485L82.4806 192.61Z" fill="#FFE5A4"/>
<defs>
<filter id="filter0_b_59_1245" x="-0.0676212" y="-15.0676" width="577.036" height="450.927" filterUnits="userSpaceOnUse" color-interpolation-filters="sRGB">
<feFlood flood-opacity="0" result="BackgroundImageFix"/>
<feGaussianBlur in="BackgroundImage" stdDeviation="8.86957"/>
<feComposite in2="SourceAlpha" operator="in" result="effect1_backgroundBlur_59_1245"/>
<feBlend mode="normal" in="SourceGraphic" in2="effect1_backgroundBlur_59_1245" result="shape"/>
</filter>
<linearGradient id="paint0_linear_59_1245" x1="198.361" y1="-505.284" x2="306.938" y2="967.641" gradientUnits="userSpaceOnUse">
<stop stop-color="white"/>
<stop offset="1" stop-color="white" stop-opacity="0"/>
</linearGradient>
<clipPath id="clip0_59_1245">
<rect width="48" height="48" fill="white" transform="translate(186 140.866) rotate(70)"/>
</clipPath>
</defs>
</svg>
