<svg width="481" height="624" viewBox="0 0 481 624" fill="none" xmlns="http://www.w3.org/2000/svg">
<path d="M262.345 264.961C267.332 259.355 274.931 256.836 282.278 258.353L388.951 280.366C396.298 281.882 402.279 287.203 404.64 294.324L438.912 397.712C441.273 404.833 439.655 412.673 434.668 418.278L362.268 499.653C357.281 505.258 349.683 507.777 342.335 506.261L235.663 484.248C228.315 482.731 222.334 477.41 219.974 470.289L185.701 366.902C183.34 359.78 184.958 351.94 189.945 346.335L262.345 264.961Z" fill="#073C71" fill-opacity="0.82"/>
<path d="M71.4913 56.6039C76.4783 50.9987 84.0768 48.4798 91.4246 49.9961L215.661 75.6335C223.009 77.1498 228.99 82.4708 231.35 89.5923L271.266 210.003C273.627 217.125 272.009 224.965 267.022 230.57L182.701 325.343C177.714 330.948 170.115 333.467 162.768 331.951L38.531 306.314C31.1833 304.797 25.2026 299.476 22.8418 292.355L-17.0739 171.944C-19.4346 164.823 -17.8168 156.983 -12.8297 151.377L71.4913 56.6039Z" fill="#073C71" fill-opacity="0.82"/>
<path d="M9.34512 337.961C14.3321 332.355 21.9307 329.837 29.2784 331.353L135.951 353.366C143.298 354.882 149.279 360.203 151.64 367.324L185.912 470.712C188.273 477.833 186.655 485.673 181.668 491.278L109.268 572.653C104.281 578.258 96.6829 580.777 89.3351 579.261L-17.3371 557.248C-24.6849 555.732 -30.6656 550.411 -33.0263 543.289L-67.2988 439.902C-69.6595 432.78 -68.0417 424.94 -63.0546 419.335L9.34512 337.961Z" fill="#073C71" fill-opacity="0.82"/>
</svg>
