<svg width="416" height="624" viewBox="0 0 416 624" fill="none" xmlns="http://www.w3.org/2000/svg">
<path d="M197.345 264.961C202.332 259.355 209.931 256.836 217.278 258.353L323.951 280.366C331.298 281.882 337.279 287.203 339.64 294.324L373.912 397.712C376.273 404.833 374.655 412.673 369.668 418.278L297.268 499.653C292.281 505.258 284.683 507.777 277.335 506.261L170.663 484.248C163.315 482.732 157.334 477.41 154.974 470.289L120.701 366.902C118.34 359.78 119.958 351.94 124.945 346.335L197.345 264.961Z" fill="#E9F2F9" fill-opacity="0.5"/>
<path d="M6.49126 56.604C11.4783 50.9988 19.0768 48.4799 26.4246 49.9961L150.661 75.6335C158.009 77.1498 163.99 82.4709 166.35 89.5924L206.266 210.003C208.627 217.125 207.009 224.965 202.022 230.57L117.701 325.343C112.714 330.949 105.115 333.467 97.7677 331.951L-26.469 306.314C-33.8167 304.797 -39.7974 299.476 -42.1582 292.355L-82.0739 171.944C-84.4346 164.823 -82.8168 156.983 -77.8297 151.377L6.49126 56.604Z" fill="#E9F2F9" fill-opacity="0.5"/>
<path d="M-55.6549 337.961C-50.6679 332.355 -43.0693 329.836 -35.7216 331.353L70.9507 353.366C78.2984 354.882 84.2791 360.203 86.6398 367.324L120.912 470.712C123.273 477.833 121.655 485.673 116.668 491.278L44.2684 572.653C39.2814 578.258 31.6829 580.777 24.3351 579.261L-82.3371 557.248C-89.6849 555.732 -95.6656 550.41 -98.0263 543.289L-132.299 439.902C-134.66 432.78 -133.042 424.94 -128.055 419.335L-55.6549 337.961Z" fill="#E9F2F9" fill-opacity="0.5"/>
</svg>
