<svg width="469" height="608" viewBox="0 0 469 608" fill="none" xmlns="http://www.w3.org/2000/svg">
<path d="M40 249H147.684V554.105C147.684 583.841 123.578 607.947 93.8421 607.947V607.947C64.1059 607.947 40 583.841 40 554.105V249Z" fill="#D9EBFF"/>
<path d="M273.316 249H381V446.421C381 476.157 356.894 500.263 327.158 500.263V500.263C297.422 500.263 273.316 476.157 273.316 446.421V249Z" fill="#D9EBFF"/>
<rect x="40" y="249" width="341" height="170.5" fill="#D9EBFF"/>
<path d="M273.316 547.526L147.684 547.526L147.684 359.079C147.684 324.386 175.808 296.263 210.5 296.263V296.263C245.192 296.263 273.316 324.386 273.316 359.079L273.316 547.526Z" fill="white"/>
<path d="M-66 79.2485C-66 69.0853 -58.3778 60.538 -48.2808 59.379L446.719 2.55763C458.591 1.19491 469 10.4779 469 22.4272V232.751C469 242.915 461.378 251.462 451.281 252.621L-43.7192 309.442C-55.5905 310.805 -66 301.522 -66 289.573L-66 79.2485Z" fill="#F89822"/>
<path d="M235.344 99.304L226.56 133H216.624L211.248 110.824L205.68 133H195.744L187.2 99.304H195.984L200.832 123.832L206.832 99.304H215.856L221.616 123.832L226.512 99.304H235.344ZM255.924 105.928C258.996 105.928 261.46 106.952 263.316 109C265.172 111.016 266.1 113.8 266.1 117.352V133H257.94V118.456C257.94 116.664 257.476 115.272 256.548 114.28C255.62 113.288 254.372 112.792 252.804 112.792C251.236 112.792 249.988 113.288 249.06 114.28C248.132 115.272 247.668 116.664 247.668 118.456V133H239.46V97.48H247.668V109.816C248.5 108.632 249.636 107.688 251.076 106.984C252.516 106.28 254.132 105.928 255.924 105.928ZM299.164 106.216L282.364 145.72H273.532L279.676 132.088L268.78 106.216H277.948L284.14 122.968L290.284 106.216H299.164ZM187.344 191.608C187.344 188.824 187.904 186.392 189.024 184.312C190.176 182.232 191.76 180.632 193.776 179.512C195.824 178.392 198.16 177.832 200.784 177.832C204.144 177.832 206.944 178.712 209.184 180.472C211.456 182.232 212.944 184.712 213.648 187.912H204.912C204.176 185.864 202.752 184.84 200.64 184.84C199.136 184.84 197.936 185.432 197.04 186.616C196.144 187.768 195.696 189.432 195.696 191.608C195.696 193.784 196.144 195.464 197.04 196.648C197.936 197.8 199.136 198.376 200.64 198.376C202.752 198.376 204.176 197.352 204.912 195.304H213.648C212.944 198.44 211.456 200.904 209.184 202.696C206.912 204.488 204.112 205.384 200.784 205.384C198.16 205.384 195.824 204.824 193.776 203.704C191.76 202.584 190.176 200.984 189.024 198.904C187.904 196.824 187.344 194.392 187.344 191.608ZM234.503 177.928C237.575 177.928 240.039 178.952 241.895 181C243.751 183.016 244.679 185.8 244.679 189.352V205H236.519V190.456C236.519 188.664 236.055 187.272 235.127 186.28C234.199 185.288 232.951 184.792 231.383 184.792C229.815 184.792 228.567 185.288 227.639 186.28C226.711 187.272 226.247 188.664 226.247 190.456V205H218.039V169.48H226.247V181.816C227.079 180.632 228.215 179.688 229.655 178.984C231.095 178.28 232.711 177.928 234.503 177.928ZM262.574 205.384C259.95 205.384 257.582 204.824 255.47 203.704C253.39 202.584 251.742 200.984 250.526 198.904C249.342 196.824 248.75 194.392 248.75 191.608C248.75 188.856 249.358 186.44 250.574 184.36C251.79 182.248 253.454 180.632 255.566 179.512C257.678 178.392 260.046 177.832 262.67 177.832C265.294 177.832 267.662 178.392 269.774 179.512C271.886 180.632 273.55 182.248 274.766 184.36C275.982 186.44 276.59 188.856 276.59 191.608C276.59 194.36 275.966 196.792 274.718 198.904C273.502 200.984 271.822 202.584 269.678 203.704C267.566 204.824 265.198 205.384 262.574 205.384ZM262.574 198.28C264.142 198.28 265.47 197.704 266.558 196.552C267.678 195.4 268.238 193.752 268.238 191.608C268.238 189.464 267.694 187.816 266.606 186.664C265.55 185.512 264.238 184.936 262.67 184.936C261.07 184.936 259.742 185.512 258.686 186.664C257.63 187.784 257.102 189.432 257.102 191.608C257.102 193.752 257.614 195.4 258.638 196.552C259.694 197.704 261.006 198.28 262.574 198.28ZM293.137 205.384C290.513 205.384 288.145 204.824 286.033 203.704C283.953 202.584 282.305 200.984 281.089 198.904C279.905 196.824 279.313 194.392 279.313 191.608C279.313 188.856 279.921 186.44 281.137 184.36C282.353 182.248 284.017 180.632 286.129 179.512C288.241 178.392 290.609 177.832 293.233 177.832C295.857 177.832 298.225 178.392 300.337 179.512C302.449 180.632 304.113 182.248 305.329 184.36C306.545 186.44 307.153 188.856 307.153 191.608C307.153 194.36 306.529 196.792 305.281 198.904C304.065 200.984 302.385 202.584 300.241 203.704C298.129 204.824 295.761 205.384 293.137 205.384ZM293.137 198.28C294.705 198.28 296.033 197.704 297.121 196.552C298.241 195.4 298.801 193.752 298.801 191.608C298.801 189.464 298.257 187.816 297.169 186.664C296.113 185.512 294.801 184.936 293.233 184.936C291.633 184.936 290.305 185.512 289.249 186.664C288.193 187.784 287.665 189.432 287.665 191.608C287.665 193.752 288.177 195.4 289.201 196.552C290.257 197.704 291.569 198.28 293.137 198.28ZM322.403 205.384C320.067 205.384 317.987 204.984 316.163 204.184C314.339 203.384 312.899 202.296 311.843 200.92C310.787 199.512 310.195 197.944 310.067 196.216H318.179C318.275 197.144 318.707 197.896 319.475 198.472C320.243 199.048 321.187 199.336 322.307 199.336C323.331 199.336 324.115 199.144 324.659 198.76C325.235 198.344 325.523 197.816 325.523 197.176C325.523 196.408 325.123 195.848 324.323 195.496C323.523 195.112 322.227 194.696 320.435 194.248C318.515 193.8 316.915 193.336 315.635 192.856C314.355 192.344 313.251 191.56 312.323 190.504C311.395 189.416 310.931 187.96 310.931 186.136C310.931 184.6 311.347 183.208 312.179 181.96C313.043 180.68 314.291 179.672 315.923 178.936C317.587 178.2 319.555 177.832 321.827 177.832C325.187 177.832 327.827 178.664 329.747 180.328C331.699 181.992 332.819 184.2 333.107 186.952H325.523C325.395 186.024 324.979 185.288 324.275 184.744C323.603 184.2 322.707 183.928 321.587 183.928C320.627 183.928 319.891 184.12 319.379 184.504C318.867 184.856 318.611 185.352 318.611 185.992C318.611 186.76 319.011 187.336 319.811 187.72C320.643 188.104 321.923 188.488 323.651 188.872C325.635 189.384 327.251 189.896 328.499 190.408C329.747 190.888 330.835 191.688 331.763 192.808C332.723 193.896 333.219 195.368 333.251 197.224C333.251 198.792 332.803 200.2 331.907 201.448C331.043 202.664 329.779 203.624 328.115 204.328C326.483 205.032 324.579 205.384 322.403 205.384ZM363.521 191.176C363.521 191.944 363.473 192.744 363.377 193.576H344.801C344.929 195.24 345.457 196.52 346.385 197.416C347.345 198.28 348.513 198.712 349.889 198.712C351.937 198.712 353.361 197.848 354.161 196.12H362.897C362.449 197.88 361.633 199.464 360.449 200.872C359.297 202.28 357.841 203.384 356.081 204.184C354.321 204.984 352.353 205.384 350.177 205.384C347.553 205.384 345.217 204.824 343.169 203.704C341.121 202.584 339.521 200.984 338.369 198.904C337.217 196.824 336.641 194.392 336.641 191.608C336.641 188.824 337.201 186.392 338.321 184.312C339.473 182.232 341.073 180.632 343.121 179.512C345.169 178.392 347.521 177.832 350.177 177.832C352.769 177.832 355.073 178.376 357.089 179.464C359.105 180.552 360.673 182.104 361.793 184.12C362.945 186.136 363.521 188.488 363.521 191.176ZM355.121 189.016C355.121 187.608 354.641 186.488 353.681 185.656C352.721 184.824 351.521 184.408 350.081 184.408C348.705 184.408 347.537 184.808 346.577 185.608C345.649 186.408 345.073 187.544 344.849 189.016H355.121ZM404.471 178.216V205H396.263V201.352C395.431 202.536 394.295 203.496 392.855 204.232C391.447 204.936 389.879 205.288 388.151 205.288C386.103 205.288 384.295 204.84 382.727 203.944C381.159 203.016 379.943 201.688 379.079 199.96C378.215 198.232 377.783 196.2 377.783 193.864V178.216H385.943V192.76C385.943 194.552 386.407 195.944 387.335 196.936C388.263 197.928 389.511 198.424 391.079 198.424C392.679 198.424 393.943 197.928 394.871 196.936C395.799 195.944 396.263 194.552 396.263 192.76V178.216H404.471ZM421.263 205.384C418.927 205.384 416.847 204.984 415.023 204.184C413.199 203.384 411.759 202.296 410.703 200.92C409.647 199.512 409.055 197.944 408.927 196.216H417.039C417.135 197.144 417.567 197.896 418.335 198.472C419.103 199.048 420.047 199.336 421.167 199.336C422.191 199.336 422.975 199.144 423.519 198.76C424.095 198.344 424.383 197.816 424.383 197.176C424.383 196.408 423.983 195.848 423.183 195.496C422.383 195.112 421.087 194.696 419.295 194.248C417.375 193.8 415.775 193.336 414.495 192.856C413.215 192.344 412.111 191.56 411.183 190.504C410.255 189.416 409.791 187.96 409.791 186.136C409.791 184.6 410.207 183.208 411.039 181.96C411.903 180.68 413.151 179.672 414.783 178.936C416.447 178.2 418.415 177.832 420.687 177.832C424.047 177.832 426.687 178.664 428.607 180.328C430.559 181.992 431.679 184.2 431.967 186.952H424.383C424.255 186.024 423.839 185.288 423.135 184.744C422.463 184.2 421.567 183.928 420.447 183.928C419.487 183.928 418.751 184.12 418.239 184.504C417.727 184.856 417.471 185.352 417.471 185.992C417.471 186.76 417.871 187.336 418.671 187.72C419.503 188.104 420.783 188.488 422.511 188.872C424.495 189.384 426.111 189.896 427.359 190.408C428.607 190.888 429.695 191.688 430.623 192.808C431.583 193.896 432.079 195.368 432.111 197.224C432.111 198.792 431.663 200.2 430.767 201.448C429.903 202.664 428.639 203.624 426.975 204.328C425.343 205.032 423.439 205.384 421.263 205.384Z" fill="white"/>
</svg>
