<svg width="44" height="40" viewBox="0 0 44 40" fill="none" xmlns="http://www.w3.org/2000/svg">
<path d="M26.4587 33.309C26.2409 32.2651 25.6433 31.3393 24.7816 30.7111C23.9199 30.0829 22.8557 29.7971 21.7952 29.9091C20.7348 30.0211 19.7537 30.5229 19.0423 31.3172C18.3308 32.1116 17.9398 33.1418 17.9449 34.2082C17.95 35.2745 18.3509 36.3009 19.07 37.0884C19.789 37.8759 20.7748 38.3683 21.8363 38.4701C22.8978 38.5719 23.9593 38.2759 24.8149 37.6394C25.6705 37.003 26.2592 36.0715 26.4669 35.0255H33.0858V33.309H26.4587ZM22.2471 36.7942C21.731 36.7942 21.2266 36.6412 20.7975 36.3545C20.3685 36.0678 20.034 35.6603 19.8366 35.1836C19.6391 34.7068 19.5874 34.1822 19.6881 33.6761C19.7888 33.17 20.0373 32.7051 20.4022 32.3402C20.767 31.9753 21.2319 31.7268 21.7381 31.6262C22.2442 31.5255 22.7688 31.5772 23.2455 31.7746C23.7223 31.9721 24.1297 32.3065 24.4164 32.7356C24.7031 33.1647 24.8561 33.6691 24.8561 34.1851C24.8561 34.8771 24.5813 35.5407 24.092 36.03C23.6027 36.5193 22.939 36.7942 22.2471 36.7942Z" fill="url(#paint0_linear_1350_6169)"/>
<path d="M16.6527 16.7747L20.0857 10.7684C21.3493 11.2479 22.7441 11.2518 24.0104 10.7793L28.1094 17.8019C27.4496 18.3734 27.022 19.1668 26.9074 20.0321C26.7929 20.8975 26.9993 21.7748 27.4877 22.4983C27.9761 23.2217 28.7126 23.7412 29.558 23.9586C30.4034 24.1759 31.2991 24.076 32.0759 23.6777C32.8526 23.2795 33.4565 22.6104 33.7735 21.7971C34.0905 20.9838 34.0985 20.0826 33.7961 19.2638C33.4937 18.4449 32.9018 17.7652 32.1323 17.3532C31.3628 16.9411 30.469 16.8252 29.6199 17.0274L25.536 9.90873C26.4356 9.18778 27.0892 8.20525 27.4064 7.09685C27.7236 5.98846 27.6887 4.80892 27.3067 3.72118C26.9246 2.63344 26.2142 1.69119 25.2736 1.02461C24.3329 0.358023 23.2085 0 22.0556 0C20.9027 0 19.7783 0.358023 18.8376 1.02461C17.897 1.69119 17.1866 2.63344 16.8045 3.72118C16.4224 4.80892 16.3876 5.98846 16.7048 7.09685C17.022 8.20525 17.6756 9.18778 18.5752 9.90873L14.9307 16.1307C14.7121 16.0975 14.4913 16.081 14.2702 16.0813C13.4085 16.0809 12.5655 16.3325 11.8449 16.8049C11.1243 17.2774 10.5575 17.9502 10.2141 18.7405C9.87084 19.5309 9.76602 20.4043 9.91258 21.2535C10.0591 22.1026 10.4507 22.8904 11.0391 23.5199L7.69395 29.0278C6.39565 28.4944 4.94392 28.4704 3.62864 28.9604C2.31336 29.4505 1.23133 30.4186 0.598602 31.6716C-0.034125 32.9245 -0.170983 34.3699 0.215355 35.7193C0.601693 37.0687 1.48279 38.2227 2.68273 38.951C3.88266 39.6792 5.31311 39.928 6.68845 39.6477C8.0638 39.3674 9.28282 38.5787 10.1021 37.439C10.9214 36.2993 11.2807 34.8925 11.1081 33.4996C10.9356 32.1066 10.2441 30.83 9.17152 29.9246L12.4329 24.5237C13.4514 24.9927 14.6101 25.0572 15.6744 24.7041C16.7387 24.351 17.6291 23.6068 18.1654 22.622C18.7017 21.6372 18.8438 20.4855 18.563 19.3999C18.2821 18.3143 17.5993 17.3759 16.6527 16.7747ZM32.6107 20.5044C32.611 20.933 32.4841 21.3521 32.2462 21.7086C32.0083 22.0651 31.6699 22.3431 31.274 22.5073C30.8781 22.6715 30.4423 22.7146 30.0219 22.6312C29.6015 22.5477 29.2152 22.3415 28.9121 22.0385C28.6089 21.7355 28.4024 21.3494 28.3186 20.929C28.2349 20.5086 28.2777 20.0729 28.4417 19.6768C28.6057 19.2808 28.8834 18.9423 29.2398 18.7041C29.5962 18.466 30.0152 18.3388 30.4438 18.3388C31.0178 18.3403 31.5678 18.5694 31.973 18.9759C32.3782 19.3824 32.6056 19.9331 32.6052 20.5071L32.6107 20.5044ZM14.2785 23.1835C13.7486 23.1835 13.2306 23.0264 12.79 22.732C12.3494 22.4376 12.0061 22.0192 11.8033 21.5296C11.6005 21.0401 11.5474 20.5014 11.6508 19.9817C11.7542 19.462 12.0094 18.9846 12.384 18.6099C12.7587 18.2353 13.2361 17.9801 13.7558 17.8767C14.2755 17.7734 14.8142 17.8264 15.3037 18.0292C15.7933 18.232 16.2117 18.5754 16.5061 19.0159C16.8005 19.4565 16.9576 19.9745 16.9576 20.5044C16.9579 20.8569 16.8887 21.206 16.7539 21.5317C16.6191 21.8575 16.4213 22.1534 16.1719 22.4025C15.9225 22.6517 15.6264 22.8491 15.3005 22.9836C14.9747 23.1181 14.6255 23.187 14.273 23.1862L14.2785 23.1835Z" fill="url(#paint1_linear_1350_6169)"/>
<path d="M38.4289 39.7503C41.5027 39.7503 43.9945 37.2585 43.9945 34.1847C43.9945 31.1109 41.5027 28.6191 38.4289 28.6191C35.3551 28.6191 32.8633 31.1109 32.8633 34.1847C32.8633 37.2585 35.3551 39.7503 38.4289 39.7503Z" fill="#F89822"/>
<defs>
<linearGradient id="paint0_linear_1350_6169" x1="24.7545" y1="36.6926" x2="29.6376" y2="21.1617" gradientUnits="userSpaceOnUse">
<stop stop-color="#3495D1"/>
<stop offset="1" stop-color="#3472B8"/>
</linearGradient>
<linearGradient id="paint1_linear_1350_6169" x1="11.4249" y1="38.1803" x2="29.3466" y2="2.70079" gradientUnits="userSpaceOnUse">
<stop stop-color="#3495D1"/>
<stop offset="1" stop-color="#3472B8"/>
</linearGradient>
</defs>
</svg>
