<svg width="25" height="24" viewBox="0 0 25 24" fill="none" xmlns="http://www.w3.org/2000/svg">
<path d="M23.0633 17.4888L22.5861 17.3396V17.3396L23.0633 17.4888ZM1.85204 17.3152L2.33711 17.1939L1.85204 17.3152ZM6.1876 1.68188L6.07913 1.19379L6.07913 1.19379L6.1876 1.68188ZM18.6112 1.68188L18.7196 1.19379L18.7196 1.19379L18.6112 1.68188ZM24.566 12.5489C24.5747 12.2729 24.3581 12.0421 24.0821 12.0334C23.8061 12.0246 23.5752 12.2413 23.5665 12.5173L24.566 12.5489ZM1.63787 12.5324C1.63747 12.2563 1.4133 12.0327 1.13715 12.0331C0.861011 12.0335 0.637476 12.2577 0.637872 12.5338L1.63787 12.5324ZM12.5331 22.9974L12.5387 23.4973L12.5331 22.9974ZM23.41 7.99384L23.7052 8.39742L23.41 7.99384ZM23.7889 7.00032L24.2754 6.88505L23.7889 7.00032ZM6.29606 2.16997C10.3159 1.27668 14.4828 1.27668 18.5027 2.16997L18.7196 1.19379C14.5569 0.268738 10.2419 0.268738 6.07913 1.19379L6.29606 2.16997ZM23.1148 7.59027L13.4112 14.6876L14.0016 15.4948L23.7052 8.39742L23.1148 7.59027ZM11.6474 14.6929L1.81852 7.59424L1.23303 8.40492L11.062 15.5036L11.6474 14.6929ZM18.5027 2.16997C19.9355 2.48837 20.9557 3.03458 21.7014 3.81958C22.4508 4.60837 22.9621 5.67938 23.3023 7.11559L24.2754 6.88505C23.9102 5.3435 23.3373 4.08965 22.4264 3.13084C21.512 2.16824 20.2961 1.54412 18.7196 1.19379L18.5027 2.16997ZM1.62968 7.10897C1.97872 5.71752 2.47563 4.64064 3.20373 3.83774C3.92561 3.04171 4.90794 2.47845 6.29606 2.16997L6.07913 1.19379C4.52543 1.53905 3.34683 2.19132 2.46296 3.16598C1.58533 4.13377 1.03171 5.38275 0.659731 6.86567L1.62968 7.10897ZM23.5665 12.5173C23.5054 14.4504 23.1899 15.4073 22.5861 17.3396L23.5406 17.6379C24.1459 15.7007 24.5002 14.6301 24.566 12.5489L23.5665 12.5173ZM2.33711 17.1939C1.86576 15.3085 1.64056 14.4057 1.63787 12.5324L0.637872 12.5338C0.640747 14.5346 0.891655 15.5352 1.36696 17.4365L2.33711 17.1939ZM12.5275 22.4974C10.3386 22.5219 8.0732 22.3824 6.21002 21.6362C4.379 20.903 2.93508 19.5858 2.33711 17.1939L1.36696 17.4365C2.05274 20.1796 3.74958 21.7282 5.83826 22.5646C7.89479 23.3881 10.3281 23.5221 12.5387 23.4973L12.5275 22.4974ZM22.5861 17.3396C21.888 19.5735 20.4536 20.8349 18.6648 21.5591C16.8496 22.294 14.6707 22.4733 12.5275 22.4974L12.5387 23.4973C14.7048 23.473 17.0421 23.2949 19.0401 22.486C21.0646 21.6664 22.7406 20.1977 23.5406 17.6379L22.5861 17.3396ZM1.81852 7.59424C1.65484 7.47603 1.58632 7.28182 1.62968 7.10897L0.659731 6.86567C0.511111 7.45815 0.75705 8.06115 1.23303 8.40492L1.81852 7.59424ZM13.4112 14.6876C12.8865 15.0714 12.1744 15.0735 11.6474 14.6929L11.062 15.5036C11.9402 16.1379 13.1271 16.1343 14.0016 15.4948L13.4112 14.6876ZM23.7052 8.39742C24.1694 8.05786 24.4138 7.46923 24.2754 6.88505L23.3023 7.11559C23.3423 7.28417 23.275 7.47313 23.1148 7.59027L23.7052 8.39742Z" fill="#1D1D92"/>
</svg>
