<svg width="53" height="50" viewBox="0 0 53 50" fill="none" xmlns="http://www.w3.org/2000/svg">
<path d="M40.0254 1.54973C30.727 -0.516576 21.0884 -0.516576 11.79 1.54973C4.83414 3.09548 1.72012 7.40514 0.137622 14.4108C0.0506957 14.7957 0.205946 15.1939 0.525774 15.4248L25.0332 33.1247C25.7358 33.6321 26.6853 33.6293 27.3849 33.1176L51.5826 15.4191C51.8948 15.1908 52.0485 14.8016 51.9687 14.4232C50.4376 7.16215 47.1251 3.12744 40.0254 1.54973Z" fill="#001933"/>
<path d="M50.1439 37.4745C51.518 33.0773 52.279 22.0361 52.4233 17.4744L26.2116 37.08L0.313345 17.4744C0.319669 21.8767 0.860703 32.777 1.93644 37.08C4.85406 48.7505 16.2126 50.1062 26.2116 49.994C36.0055 49.8841 46.7393 48.3692 50.1439 37.4745Z" fill="#001933"/>
</svg>
