<svg width="1440" height="82" viewBox="0 0 1440 82" fill="none" xmlns="http://www.w3.org/2000/svg">
<rect width="1440" height="82" fill="#001933"/>
<path d="M1062 0H1078.74V47.421C1078.74 52.0428 1074.99 55.7895 1070.37 55.7895C1065.75 55.7895 1062 52.0428 1062 47.4211V0Z" fill="#012245"/>
<path d="M1098.26 0H1115V30.6842C1115 35.306 1111.25 39.0526 1106.63 39.0526C1102.01 39.0526 1098.26 35.306 1098.26 30.6842V0Z" fill="#012245"/>
<rect x="1062" width="53" height="26.5" fill="#012245"/>
<path d="M1098.26 46.3984L1078.74 46.3984L1078.74 17.109C1078.74 11.7169 1083.11 7.3458 1088.5 7.34581C1093.89 7.34581 1098.26 11.7169 1098.26 17.109L1098.26 46.3984Z" fill="#001933"/>
<path d="M354 1H370.737V48.421C370.737 53.0428 366.99 56.7895 362.368 56.7895C357.747 56.7895 354 53.0428 354 48.4211V1Z" fill="#012245"/>
<path d="M390.263 1H407V31.6842C407 36.306 403.253 40.0526 398.632 40.0526C394.01 40.0526 390.263 36.306 390.263 31.6842V1Z" fill="#012245"/>
<rect x="354" y="1" width="53" height="26.5" fill="#012245"/>
<path d="M390.263 47.3984L370.737 47.3984L370.737 18.109C370.737 12.7169 375.108 8.3458 380.5 8.34581C385.892 8.34581 390.263 12.7169 390.263 18.109L390.263 47.3984Z" fill="#001933"/>
</svg>
