<svg width="19" height="30" viewBox="0 0 19 30" fill="none" xmlns="http://www.w3.org/2000/svg">
<path d="M12.3794 5.05854H12.5191C13.9449 5.05854 15.3712 5.05617 16.7974 5.06367C17.3894 5.06683 17.9301 5.23061 18.3646 5.65564C18.7466 6.03095 18.9261 6.49978 18.9719 7.02466C18.9881 7.20817 18.9944 7.39287 18.9944 7.57717C18.996 12.17 18.9978 16.7629 18.9999 21.3558C18.9999 22.3207 18.6767 23.1179 17.9825 23.7983C16.5007 25.2498 15.0432 26.7261 13.5775 28.1942C13.2591 28.5228 12.8679 28.7718 12.4354 28.9212C12.1604 29.0159 11.8718 29.0652 11.581 29.0672C8.93688 29.0672 6.29276 29.0715 3.64864 29.0581C3.0322 29.0549 2.4647 28.8718 2.02625 28.3975C1.71882 28.0644 1.57083 27.6595 1.50413 27.2206C1.48315 27.0732 1.47339 26.9244 1.47493 26.7755C1.47335 20.2849 1.47269 13.7943 1.47296 7.30368C1.47296 6.82576 1.56728 6.37271 1.82814 5.96899C2.18056 5.42201 2.70662 5.15681 3.33963 5.08538C3.49954 5.06834 3.66028 5.06017 3.8211 5.06091C4.85822 5.05775 5.89575 5.06091 6.93287 5.0542C7.04535 5.0542 7.10178 5.08577 7.13454 5.19588C7.21347 5.46187 7.30424 5.72391 7.39698 6.00885H7.23912C6.08794 6.00885 4.93676 6.00648 3.78597 6.01595C3.57452 6.01826 3.36427 6.04798 3.16046 6.10435C2.7962 6.20419 2.57402 6.4619 2.49588 6.82773C2.45254 7.02666 2.42993 7.22954 2.42839 7.43312C2.42655 13.8582 2.42563 20.2826 2.42563 26.7064C2.41906 26.9579 2.4592 27.2084 2.54402 27.4452C2.68649 27.8165 2.97813 28.0076 3.35344 28.066C3.59864 28.0994 3.84595 28.1148 4.0934 28.1121C4.94215 28.1171 5.79077 28.1171 6.63926 28.1121C7.4171 28.1094 8.19456 28.0963 8.97201 28.0967C9.78103 28.0967 10.5899 28.1033 11.3987 28.1165C12.0056 28.1252 12.5104 27.9117 12.9378 27.4803C14.4248 25.9841 15.9162 24.4921 17.4119 23.0042C17.6913 22.7252 17.8926 22.4028 17.9766 22.0176C18.0123 21.8568 18.0324 21.6929 18.0366 21.5283C18.0429 21.1553 18.0335 20.7824 18.0299 20.4094C18.0299 20.3546 18.026 20.2997 18.026 20.2449C18.026 15.9504 18.0248 11.656 18.0224 7.36169C18.0234 7.16596 17.9968 6.97107 17.9435 6.78274C17.8085 6.31233 17.4553 6.09093 16.988 6.03608C16.8084 6.01857 16.6279 6.01132 16.4474 6.01437C15.1979 6.01174 13.9482 6.01174 12.6982 6.01437C12.5799 6.01437 12.5297 5.97491 12.5128 5.86164C12.4749 5.59802 12.4267 5.33716 12.3794 5.05854Z" fill="#F89822"/>
<path d="M14.0917 18.7627C14.0917 19.6581 14.119 20.5552 14.0835 21.4494C14.0511 22.2573 13.7634 22.9751 13.1193 23.5099C12.8153 23.7653 12.43 23.9037 12.0329 23.9002C10.7013 23.9037 9.36942 23.8935 8.03749 23.9049C7.3366 23.9108 6.80462 23.618 6.40366 23.0631C6.05581 22.591 5.86703 22.0205 5.86458 21.434C5.85432 19.6463 5.8484 17.8586 5.86655 16.0712C5.87444 15.3214 6.14596 14.658 6.69807 14.1315C6.85608 13.9748 7.04363 13.851 7.24985 13.7674C7.45606 13.6837 7.67684 13.6418 7.89937 13.6441C9.25103 13.6465 10.6023 13.652 11.954 13.6441C12.6181 13.639 13.1257 13.9184 13.5183 14.4334C13.8415 14.8565 14.0033 15.3447 14.0681 15.8676C14.0837 15.9959 14.0915 16.125 14.0914 16.2543C14.0937 17.091 14.0914 17.928 14.0914 18.7651L14.0917 18.7627ZM10.9784 18.7497C10.9784 17.4021 10.9784 16.0544 10.9784 14.7065C10.9784 14.5487 10.976 14.5443 10.8245 14.5443C9.90101 14.5443 8.97793 14.5443 8.05446 14.5475C7.91792 14.5475 7.77427 14.5475 7.6464 14.5869C7.12192 14.7464 6.80896 15.1189 6.64834 15.6284C6.5043 16.0823 6.5043 16.5479 6.55244 17.016C6.56271 17.1162 6.6144 17.1569 6.71583 17.1577C7.26557 17.1612 7.81531 17.1707 8.36505 17.1746C8.83034 17.1782 8.929 17.2725 8.93571 17.7413C8.9436 18.3305 8.95149 18.9194 8.95307 19.5086C8.95544 20.6136 8.95465 21.7177 8.9507 22.8208C8.9507 22.9447 8.99451 22.9743 9.10856 22.9735C9.67803 22.97 10.2479 22.9735 10.8174 22.9735C10.9776 22.9735 10.9815 22.968 10.9815 22.8066L10.9784 18.7497ZM11.7116 15.8589C11.7116 16.2397 11.7116 16.6205 11.7116 17.0034C11.7116 17.089 11.7333 17.1352 11.83 17.1348C12.317 17.132 12.804 17.1348 13.2902 17.1348C13.3692 17.1348 13.4059 17.102 13.4055 17.0231C13.4055 16.8779 13.4086 16.7322 13.4055 16.587C13.3999 16.1395 13.3265 15.7042 13.1403 15.2945C12.8916 14.7523 12.4299 14.4926 11.8731 14.5688C11.7578 14.5846 11.7049 14.6244 11.7081 14.7539C11.7176 15.1205 11.7116 15.4899 11.7116 15.8589ZM11.7116 21.897C11.7116 22.215 11.716 22.5331 11.7093 22.8512C11.7069 22.9582 11.7523 22.9929 11.8458 22.9909C12.1836 22.9846 12.5029 22.912 12.7693 22.693C13.3447 22.2237 13.4595 21.5911 13.3877 20.8965C13.3782 20.805 13.3143 20.7975 13.2433 20.7975C12.7796 20.7975 12.3162 20.7975 11.8525 20.7975C11.7476 20.7975 11.7077 20.8346 11.7097 20.9435C11.7152 21.2608 11.7116 21.5793 11.7116 21.8973V21.897ZM8.22021 21.8851C8.22021 21.5635 8.21785 21.2414 8.22021 20.9198C8.22021 20.8318 8.19575 20.7904 8.10182 20.7912C7.62825 20.7935 7.15336 20.7935 6.67715 20.7912C6.59309 20.7912 6.55442 20.8259 6.55008 20.9096C6.52442 21.4455 6.5927 21.9609 6.90131 22.4171C7.17756 22.8248 7.54892 23.0458 8.0588 22.9799C8.16378 22.966 8.22732 22.9361 8.22298 22.805C8.21311 22.4984 8.22021 22.1925 8.22021 21.8855V21.8851ZM13.4015 18.9529C13.4015 18.7055 13.4015 18.4584 13.4015 18.211C13.4015 18.1198 13.3763 18.076 13.2744 18.0768C12.7956 18.0807 12.3168 18.0807 11.8379 18.0768C11.746 18.0768 11.7124 18.1107 11.7128 18.2007C11.7147 18.7032 11.7147 19.2056 11.7128 19.7079C11.7128 19.8034 11.7523 19.8412 11.8458 19.8409C12.321 19.839 12.7959 19.839 13.2705 19.8409C13.3676 19.8409 13.4027 19.8014 13.4015 19.7059C13.3995 19.4557 13.4015 19.2043 13.4015 18.9533V18.9529ZM8.22021 18.9497C8.22021 18.7023 8.21666 18.4549 8.22021 18.2078C8.22219 18.1095 8.18549 18.078 8.08998 18.0784C7.61878 18.0815 7.14783 18.0815 6.67715 18.0784C6.58283 18.0784 6.54455 18.1076 6.54495 18.207C6.54837 18.7053 6.54837 19.2036 6.54495 19.7019C6.54495 19.7959 6.58007 19.8235 6.67005 19.8227C7.14362 19.8199 7.61957 19.8191 8.09432 19.8227C8.19575 19.8227 8.2214 19.7832 8.21982 19.6905C8.21706 19.4446 8.22021 19.1972 8.22021 18.9501V18.9497Z" fill="#F89822"/>
<path d="M13.2291 7.57105L10.0534 10.7124L6.83663 7.5379H7.08881C7.48187 7.5379 7.87468 7.5379 8.26722 7.5379C8.33944 7.5379 8.40613 7.53475 8.40534 7.43845C8.401 6.87766 8.42863 6.31371 8.298 5.7624C8.06358 4.76947 7.54265 3.95847 6.71942 3.3519C5.83265 2.69837 4.83222 2.43554 3.74261 2.57011C2.55117 2.71692 1.60205 3.30139 0.886165 4.26077C0.64312 4.58967 0.45322 4.95469 0.323402 5.34249L0.295776 5.33302C0.374705 5.09623 0.439033 4.85234 0.529407 4.6195C0.972593 3.47503 1.71097 2.5634 2.73113 1.88422C3.45376 1.40468 4.27655 1.09689 5.1365 0.984426C5.70451 0.905248 6.28144 0.916035 6.8461 1.01639C8.85287 1.37157 10.2708 2.4971 11.1525 4.31444C11.4452 4.92113 11.6066 5.58277 11.626 6.2561C11.6391 6.64048 11.6552 7.02447 11.6627 7.40885C11.6647 7.50791 11.6991 7.53869 11.7938 7.5379C12.2259 7.53475 12.658 7.5379 13.0902 7.5379H13.2165L13.2291 7.57105Z" fill="#F89822"/>
</svg>
