<svg width="345" height="624" viewBox="0 0 345 624" fill="none" xmlns="http://www.w3.org/2000/svg">
<path d="M371.345 264.96C376.332 259.355 383.931 256.836 391.278 258.353L497.951 280.365C505.298 281.882 511.279 287.203 513.64 294.324L547.912 397.711C550.273 404.833 548.655 412.673 543.668 418.278L471.268 499.653C466.281 505.258 458.683 507.777 451.335 506.26L344.663 484.248C337.315 482.731 331.334 477.41 328.974 470.289L294.701 366.901C292.34 359.78 293.958 351.94 298.945 346.335L371.345 264.96Z" fill="#E9F2F9" fill-opacity="0.5"/>
<path d="M180.491 56.6037C185.478 50.9985 193.077 48.4796 200.425 49.9959L324.661 75.6333C332.009 77.1496 337.99 82.4707 340.35 89.5921L380.266 210.003C382.627 217.124 381.009 224.964 376.022 230.57L291.701 325.343C286.714 330.948 279.115 333.467 271.768 331.951L147.531 306.313C140.183 304.797 134.203 299.476 131.842 292.355L91.9261 171.944C89.5654 164.822 91.1832 156.982 96.1703 151.377L180.491 56.6037Z" fill="#E9F2F9" fill-opacity="0.5"/>
<path d="M118.345 337.961C123.332 332.356 130.931 329.837 138.278 331.353L244.951 353.366C252.298 354.882 258.279 360.203 260.64 367.325L294.912 470.712C297.273 477.833 295.655 485.673 290.668 491.279L218.268 572.653C213.281 578.258 205.683 580.777 198.335 579.261L91.6629 557.248C84.3151 555.732 78.3344 550.411 75.9737 543.289L41.7012 439.902C39.3405 432.78 40.9583 424.94 45.9454 419.335L118.345 337.961Z" fill="#E9F2F9" fill-opacity="0.5"/>
<path d="M123.364 55.7755C125.675 52.1648 129.737 50.0615 134.02 50.2579L176.535 52.2076C180.818 52.404 184.671 54.8703 186.642 58.6774L206.211 96.4717C208.182 100.279 207.973 104.848 205.661 108.459L182.715 144.304C180.404 147.914 176.342 150.018 172.059 149.821L129.544 147.872C125.261 147.675 121.408 145.209 119.437 141.402L99.8678 103.607C97.8965 99.8003 98.1061 95.2308 100.418 91.62L123.364 55.7755Z" fill="url(#paint0_linear_1_6014)"/>
<defs>
<linearGradient id="paint0_linear_1_6014" x1="161.872" y1="126.069" x2="178.822" y2="72.3748" gradientUnits="userSpaceOnUse">
<stop offset="0.0001" stop-color="#063A70"/>
<stop offset="1" stop-color="#2864A4"/>
</linearGradient>
</defs>
</svg>
