<svg width="44" height="44" viewBox="0 0 44 44" fill="none" xmlns="http://www.w3.org/2000/svg">
<circle cx="22" cy="22" r="21" fill="#EB5757" stroke="#FFD8D8" stroke-width="2"/>
<path d="M20.7977 25.9215L20.3324 10H24.8861L24.3876 25.9215H20.7977ZM22.6924 33.5C21.8946 33.5 21.2409 33.2562 20.7313 32.7687C20.2438 32.2812 20 31.694 20 31.0071C20 30.298 20.2438 29.6997 20.7313 29.2122C21.2409 28.7247 21.8946 28.4809 22.6924 28.4809C23.4458 28.4809 24.0662 28.7247 24.5537 29.2122C25.0634 29.6997 25.3182 30.298 25.3182 31.0071C25.3182 31.694 25.0634 32.2812 24.5537 32.7687C24.0662 33.2562 23.4458 33.5 22.6924 33.5Z" fill="white"/>
</svg>
