<svg width="42" height="48" viewBox="0 0 42 48" fill="none" xmlns="http://www.w3.org/2000/svg">
<path fill-rule="evenodd" clip-rule="evenodd" d="M0.00181627 23.9478C0.110364 17.5215 0.0875115 11.0621 0.0532334 6.77789C0.0418074 5.97597 0.441718 5.22348 1.11585 4.75661C1.78999 4.28424 2.65837 4.16341 3.44105 4.41607C5.20066 4.9873 7.07453 5.27291 9.01695 5.27291C16.2553 5.27291 18.6491 1.4171 18.7519 1.25232C19.2147 0.477858 20.1345 0.00549262 21.0257 0C21.9626 0.0109852 22.8253 0.494336 23.2652 1.28527C23.3452 1.4171 25.7447 5.27291 32.9773 5.27291C34.9255 5.27291 36.7993 4.9873 38.5532 4.41607C39.3359 4.16341 40.21 4.28424 40.8841 4.75661C41.5583 5.22348 41.9525 5.97597 41.9468 6.77789C41.9068 11.0182 41.8839 17.4391 41.9982 23.9478C42.0896 29.1603 38.7246 34.7683 32.0061 40.6289C27.2472 44.7813 22.5225 47.5331 22.3226 47.643C21.9169 47.8792 21.4542 48 20.9971 48C20.5401 48 20.0774 47.8792 19.6717 47.643C19.4718 47.5331 14.7471 44.7813 9.98817 40.6289C3.26966 34.7683 -0.089592 29.1603 0.00181627 23.9478ZM5.14353 24.0302C5.01784 31.0717 15.5412 39.1679 20.9971 42.6062C26.4531 39.1624 36.9764 31.0553 36.8565 24.0302C36.7708 18.944 36.7651 13.9128 36.7822 9.91967C35.5425 10.1174 34.2685 10.2163 32.9773 10.2163C26.8987 10.2163 23.1224 8.07415 20.9971 6.23412C18.8719 8.07964 15.0956 10.2163 9.01695 10.2163C7.72581 10.2163 6.45752 10.1174 5.21209 9.91967C5.23494 13.9458 5.22922 18.9935 5.14353 24.0302Z" fill="#636261"/>
<path d="M16.5065 30.4568C16.9921 30.9621 17.6777 31.2532 18.3918 31.2532C18.4261 31.2532 18.4661 31.2477 18.5004 31.2477C19.2545 31.2203 19.9572 30.8742 20.4199 30.303L32.2116 15.7695C33.0857 14.6985 32.8915 13.144 31.7717 12.3037C30.652 11.4633 29.0352 11.6555 28.1611 12.7321L18.2261 24.9642L15.7638 22.4046C14.804 21.4049 13.1758 21.339 12.1304 22.2673C11.0906 23.1955 11.0277 24.7609 11.9875 25.7606L16.5065 30.4568Z" fill="#636261"/>
</svg>
