<svg width="48" height="48" viewBox="0 0 48 48" fill="none" xmlns="http://www.w3.org/2000/svg">
<g clip-path="url(#clip0_1350_6000)">
<path fill-rule="evenodd" clip-rule="evenodd" d="M47.6463 24C47.6463 37.2612 36.9604 48.0518 23.828 48.0518C10.6956 48.0518 0.00976562 37.2612 0.00976562 24C0.00976562 10.7388 10.6956 -0.0517578 23.828 -0.0517578C36.9604 -0.0517578 47.6463 10.7388 47.6463 24ZM43.4521 24C43.4521 13.0729 34.649 4.18354 23.828 4.18354C13.007 4.18354 4.20394 13.0729 4.20394 24C4.20394 34.9271 13.007 43.8165 23.828 43.8165C34.649 43.8165 43.4521 34.9271 43.4521 24Z" fill="#636261"/>
<path fill-rule="evenodd" clip-rule="evenodd" d="M37.4264 20.6164C37.7945 21.7647 37.4916 23.007 36.6341 23.8494L32.5005 27.92L33.4745 33.6706C33.6796 34.8611 33.1996 36.047 32.2303 36.7576C31.2609 37.4682 30.0027 37.5576 28.9402 36.9976L23.8279 34.2823L18.7157 36.9976C18.2543 37.2423 17.7557 37.36 17.2571 37.36C16.6093 37.36 15.9708 37.1576 15.4209 36.7529C14.4516 36.0423 13.9763 34.8611 14.1813 33.6658L15.1553 27.92L11.0217 23.8494C10.1596 23.0023 9.86132 21.7647 10.2295 20.6117C10.5976 19.4635 11.567 18.64 12.7506 18.4658L18.4687 17.6282L21.0271 12.3953C21.5584 11.3082 22.6303 10.6353 23.8279 10.6353C25.0256 10.6353 26.1021 11.3129 26.6287 12.3953L29.1871 17.6282L34.9005 18.4658C36.0889 18.64 37.0582 19.4635 37.4264 20.6164ZM32.1557 22.3435L28.0268 21.7364C27.0108 21.5858 26.1301 20.9411 25.678 20.0141L23.8279 16.2305L21.9825 20.0094C21.5258 20.9411 20.645 21.5858 19.6291 21.7364L15.5002 22.3435L18.4873 25.2847C19.2237 26.0094 19.5592 27.0541 19.3868 28.08L18.6784 32.2306L22.3739 30.2682C23.2827 29.7835 24.3732 29.7835 25.2819 30.2682L28.9774 32.2306L28.2691 28.0753C28.0967 27.0541 28.4322 26.0094 29.1685 25.2847L32.1557 22.3435Z" fill="#636261"/>
</g>
<defs>
<clipPath id="clip0_1350_6000">
<rect width="48" height="48" fill="white"/>
</clipPath>
</defs>
</svg>
