<svg width="1440" height="1211" viewBox="0 0 1440 1211" fill="none" xmlns="http://www.w3.org/2000/svg">
<path d="M0 603.5L1444 0V603.5L0 1211V603.5Z" fill="#F0F7FF"/>
<path d="M40 434H147.684V739.105C147.684 768.841 123.578 792.947 93.8421 792.947C64.1059 792.947 40 768.841 40 739.105V434Z" fill="#D9EBFF"/>
<path d="M273.316 434H381V631.421C381 661.157 356.894 685.263 327.158 685.263C297.422 685.263 273.316 661.157 273.316 631.421V434Z" fill="#D9EBFF"/>
<rect x="40" y="434" width="341" height="170.5" fill="#D9EBFF"/>
<path d="M273.316 732.526L147.684 732.526L147.684 544.079C147.684 509.386 175.808 481.263 210.5 481.263C245.192 481.263 273.316 509.386 273.316 544.079L273.316 732.526Z" fill="#F0F7FF"/>
<path d="M-66 264.249C-66 254.085 -58.3778 245.538 -48.2808 244.379L446.719 187.558C458.591 186.195 469 195.478 469 207.427V417.751C469 427.915 461.378 436.462 451.281 437.621L-43.7192 494.442C-55.5905 495.805 -66 486.522 -66 474.573L-66 264.249Z" fill="#F89822"/>
</svg>
