<svg width="228" height="228" viewBox="0 0 228 228" fill="none" xmlns="http://www.w3.org/2000/svg">
<g clip-path="url(#clip0_60_814)">
<path fill-rule="evenodd" clip-rule="evenodd" d="M226.319 114.001C226.319 176.991 175.562 228.247 113.183 228.247C50.8036 228.247 0.0458984 176.991 0.0458984 114.001C0.0458984 51.0102 50.8036 -0.245117 113.183 -0.245117C175.562 -0.245117 226.319 51.0102 226.319 114.001ZM206.397 114.001C206.397 62.0973 164.582 19.8725 113.183 19.8725C61.783 19.8725 19.9682 62.0973 19.9682 114.001C19.9682 165.904 61.783 208.129 113.183 208.129C164.582 208.129 206.397 165.904 206.397 114.001Z" fill="#001933" fill-opacity="0.03"/>
<path fill-rule="evenodd" clip-rule="evenodd" d="M177.774 97.9294C179.523 103.383 178.084 109.285 174.011 113.286L154.376 132.621L159.003 159.936C159.977 165.592 157.697 171.225 153.092 174.6C148.488 177.975 142.511 178.4 137.464 175.74L113.181 162.842L88.8982 175.74C86.7067 176.902 84.3382 177.461 81.9696 177.461C78.8927 177.461 75.8601 176.5 73.2481 174.578C68.6438 171.202 66.386 165.592 67.3599 159.914L71.9863 132.621L52.3518 113.286C48.2566 109.262 46.8399 103.383 48.5887 97.907C50.3374 92.4529 54.9417 88.5411 60.5642 87.7141L87.725 83.7353L99.8776 58.8788C102.401 53.7153 107.492 50.5188 113.181 50.5188C118.87 50.5188 123.984 53.7376 126.485 58.8788L138.638 83.7353L165.776 87.7141C171.421 88.5411 176.025 92.4529 177.774 97.9294ZM152.738 106.133L133.126 103.249C128.3 102.534 124.116 99.4717 121.969 95.0682L113.181 77.0964L104.415 95.0458C102.246 99.4717 98.0625 102.534 93.2368 103.249L73.6244 106.133L87.8135 120.103C91.311 123.546 92.9048 128.508 92.0858 133.381L88.7211 153.096L106.275 143.775C110.591 141.473 115.771 141.473 120.088 143.775L137.641 153.096L134.277 133.359C133.458 128.508 135.052 123.546 138.549 120.103L152.738 106.133Z" fill="#001933" fill-opacity="0.03"/>
</g>
<defs>
<clipPath id="clip0_60_814">
<rect width="228" height="228" fill="white"/>
</clipPath>
</defs>
</svg>
